<svg xmlns="http://www.w3.org/2000/svg" xmlns:xlink="http://www.w3.org/1999/xlink" width="1080" zoomAndPan="magnify" viewBox="0 0 810 809.999993" height="1080" preserveAspectRatio="xMidYMid meet" version="1.0"><defs><g/><clipPath id="id1"><path d="M 73.183594 383 L 129 383 L 129 388 L 73.183594 388 Z M 73.183594 383 " clip-rule="nonzero"/></clipPath><clipPath id="id2"><path d="M 276 543 L 280.269531 543 L 280.269531 578.175781 L 276 578.175781 Z M 276 543 " clip-rule="nonzero"/></clipPath><clipPath id="id3"><path d="M 276 193.105469 L 280.269531 193.105469 L 280.269531 228 L 276 228 Z M 276 193.105469 " clip-rule="nonzero"/></clipPath></defs><g clip-path="url(#id1)"><path fill="rgb(100%, 50.979614%, 58.428955%)" d="M 127.09375 383.871094 C 127.09375 383.871094 121.5625 383.679688 114.027344 383.488281 C 110.023438 383.394531 105.542969 383.296875 100.964844 383.296875 C 98.296875 383.296875 95.722656 383.296875 93.144531 383.394531 C 83.132812 383.585938 74.839844 383.871094 74.839844 383.871094 C 73.980469 383.871094 73.3125 384.539062 73.3125 385.398438 C 73.3125 386.261719 73.980469 386.929688 74.839844 386.929688 C 74.839844 386.929688 83.132812 387.214844 93.144531 387.40625 C 95.722656 387.40625 98.296875 387.5 100.964844 387.5 C 105.542969 387.5 110.023438 387.40625 114.027344 387.3125 C 121.5625 387.121094 127.09375 386.929688 127.09375 386.929688 C 127.949219 386.929688 128.617188 386.261719 128.617188 385.398438 C 128.617188 384.539062 127.949219 383.871094 127.09375 383.871094 Z M 127.09375 383.871094 " fill-opacity="1" fill-rule="nonzero"/></g><path fill="rgb(100%, 50.979614%, 58.428955%)" d="M 164.375 463.0625 C 164.375 463.0625 161.609375 464.972656 157.988281 467.554688 C 156.082031 468.988281 153.886719 470.515625 151.695312 472.234375 C 150.453125 473.191406 149.214844 474.242188 148.070312 475.195312 C 143.492188 479.015625 139.773438 482.265625 139.773438 482.265625 C 139.109375 482.742188 139.011719 483.699219 139.488281 484.367188 C 139.964844 485.035156 140.917969 485.128906 141.585938 484.652344 C 141.585938 484.652344 145.6875 481.789062 150.453125 478.253906 C 151.695312 477.394531 152.933594 476.4375 154.171875 475.386719 C 156.269531 473.667969 158.371094 471.949219 160.179688 470.417969 C 163.613281 467.554688 166.09375 465.355469 166.09375 465.355469 C 166.761719 464.878906 166.855469 463.921875 166.378906 463.253906 C 165.902344 462.683594 164.949219 462.585938 164.375 463.0625 Z M 164.375 463.0625 " fill-opacity="1" fill-rule="nonzero"/><path fill="rgb(100%, 50.979614%, 58.428955%)" d="M 166.1875 306.015625 C 166.1875 306.015625 163.710938 303.820312 160.277344 300.953125 C 158.464844 299.425781 156.367188 297.707031 154.269531 295.988281 C 153.03125 295.03125 151.789062 294.074219 150.550781 293.121094 C 145.78125 289.585938 141.683594 286.71875 141.683594 286.71875 C 141.015625 286.242188 140.0625 286.339844 139.585938 287.007812 C 139.109375 287.675781 139.203125 288.632812 139.871094 289.109375 C 139.871094 289.109375 143.589844 292.355469 148.167969 296.175781 C 149.308594 297.132812 150.550781 298.183594 151.789062 299.140625 C 153.886719 300.761719 156.082031 302.386719 158.082031 303.820312 C 161.707031 306.496094 164.472656 308.308594 164.472656 308.308594 C 165.140625 308.789062 166.09375 308.691406 166.570312 308.023438 C 167.046875 307.355469 166.761719 306.496094 166.1875 306.015625 Z M 166.1875 306.015625 " fill-opacity="1" fill-rule="nonzero"/><g clip-path="url(#id2)"><path fill="rgb(100%, 50.979614%, 58.428955%)" d="M 276.515625 545.503906 C 276.515625 545.503906 276.324219 548.847656 276.226562 553.335938 C 276.132812 555.726562 276.132812 558.398438 276.132812 561.171875 C 276.132812 562.792969 276.226562 564.324219 276.226562 565.851562 C 276.417969 571.871094 276.800781 576.742188 276.800781 576.742188 C 276.800781 577.601562 277.46875 578.175781 278.328125 578.175781 C 279.183594 578.175781 279.757812 577.503906 279.757812 576.644531 C 279.757812 576.644531 279.949219 571.679688 280.042969 565.753906 C 280.042969 564.226562 280.136719 562.699219 280.042969 561.074219 C 280.042969 558.398438 279.851562 555.628906 279.757812 553.242188 C 279.566406 548.75 279.375 545.410156 279.375 545.410156 C 279.375 544.546875 278.707031 543.976562 277.847656 543.976562 C 277.183594 543.976562 276.515625 544.644531 276.515625 545.503906 Z M 276.515625 545.503906 " fill-opacity="1" fill-rule="nonzero"/></g><g clip-path="url(#id3)"><path fill="rgb(100%, 50.979614%, 58.428955%)" d="M 279.46875 225.871094 C 279.46875 225.871094 279.660156 222.527344 279.851562 218.035156 C 279.949219 215.648438 280.042969 212.972656 280.136719 210.203125 C 280.136719 208.578125 280.136719 207.050781 280.136719 205.523438 C 280.042969 199.503906 279.851562 194.632812 279.851562 194.632812 C 279.851562 193.773438 279.183594 193.105469 278.421875 193.105469 C 277.5625 193.105469 276.894531 193.773438 276.894531 194.535156 C 276.894531 194.535156 276.609375 199.503906 276.324219 205.425781 C 276.226562 206.957031 276.226562 208.484375 276.226562 210.109375 C 276.226562 212.78125 276.226562 215.550781 276.324219 217.941406 C 276.417969 222.429688 276.609375 225.773438 276.609375 225.773438 C 276.609375 226.632812 277.277344 227.300781 278.039062 227.300781 C 278.804688 227.398438 279.46875 226.730469 279.46875 225.871094 Z M 279.46875 225.871094 " fill-opacity="1" fill-rule="nonzero"/></g><path fill="rgb(100%, 50.979614%, 58.428955%)" d="M 227.691406 514.265625 C 227.691406 514.265625 223.78125 519.710938 218.730469 527.066406 C 215.964844 530.984375 212.914062 535.472656 209.859375 539.964844 C 208.050781 542.636719 206.332031 545.21875 204.710938 547.796875 C 198.226562 557.828125 192.886719 566.234375 192.886719 566.234375 C 192.410156 566.902344 192.601562 567.855469 193.269531 568.335938 C 193.9375 568.8125 194.890625 568.621094 195.367188 567.953125 C 195.367188 567.953125 201.089844 559.832031 207.859375 550.089844 C 209.574219 547.605469 211.386719 545.027344 213.101562 542.351562 C 216.15625 537.863281 219.015625 533.277344 221.683594 529.265625 C 226.546875 521.71875 230.078125 516.082031 230.078125 516.082031 C 230.554688 515.414062 230.363281 514.457031 229.695312 513.980469 C 229.027344 513.503906 228.167969 513.597656 227.691406 514.265625 Z M 227.691406 514.265625 " fill-opacity="1" fill-rule="nonzero"/><path fill="rgb(100%, 50.979614%, 58.428955%)" d="M 230.171875 255.484375 C 230.171875 255.484375 226.644531 249.847656 221.78125 242.300781 C 219.207031 238.289062 216.25 233.703125 213.199219 229.214844 C 211.480469 226.539062 209.671875 223.960938 207.953125 221.476562 C 201.183594 211.636719 195.460938 203.613281 195.460938 203.613281 C 194.984375 202.941406 194.128906 202.753906 193.363281 203.230469 C 192.695312 203.707031 192.507812 204.566406 192.984375 205.332031 C 192.984375 205.332031 198.324219 213.738281 204.808594 223.769531 C 206.429688 226.347656 208.144531 228.925781 209.957031 231.601562 C 213.007812 236.089844 216.058594 240.582031 218.824219 244.496094 C 223.972656 251.851562 227.789062 257.296875 227.789062 257.296875 C 228.265625 257.96875 229.121094 258.15625 229.886719 257.679688 C 230.457031 257.105469 230.648438 256.152344 230.171875 255.484375 Z M 230.171875 255.484375 " fill-opacity="1" fill-rule="nonzero"/><g fill="rgb(100%, 50.979614%, 58.428955%)" fill-opacity="0.302"><g transform="translate(189.067729, 470.845891)"><g><path d="M 88.1875 0.671875 C 69.226562 0.671875 54.488281 -4.878906 43.96875 -15.984375 C 33.457031 -27.097656 28.203125 -43.460938 28.203125 -65.078125 L 28.203125 -155.484375 L 32.65625 -155.484375 L 32.65625 -65.3125 C 32.65625 -44.875 37.429688 -29.46875 46.984375 -19.09375 C 56.535156 -8.726562 70.269531 -3.546875 88.1875 -3.546875 C 106.101562 -3.546875 119.835938 -8.726562 129.390625 -19.09375 C 138.941406 -29.46875 143.71875 -44.875 143.71875 -65.3125 L 143.71875 -155.484375 L 148.15625 -155.484375 L 148.15625 -65.078125 C 148.15625 -43.460938 142.894531 -27.097656 132.375 -15.984375 C 121.863281 -4.878906 107.132812 0.671875 88.1875 0.671875 Z M 88.1875 0.671875 "/></g></g></g><g fill="rgb(100%, 50.979614%, 58.428955%)" fill-opacity="0.302"><g transform="translate(365.429803, 470.845891)"><g><path d="M 81.296875 -115.5 C 91.660156 -115.5 101.097656 -113.019531 109.609375 -108.0625 C 118.128906 -103.101562 124.832031 -96.179688 129.71875 -87.296875 C 134.601562 -78.410156 137.046875 -68.414062 137.046875 -57.3125 C 137.046875 -46.207031 134.601562 -36.25 129.71875 -27.4375 C 124.832031 -18.625 118.128906 -11.734375 109.609375 -6.765625 C 101.097656 -1.804688 91.660156 0.671875 81.296875 0.671875 C 69.453125 0.671875 58.898438 -2.546875 49.640625 -8.984375 C 40.390625 -15.429688 33.835938 -24.0625 29.984375 -34.875 L 29.984375 43.09375 L 25.546875 43.09375 L 25.546875 -114.84375 L 29.984375 -114.84375 L 29.984375 -79.75 C 33.835938 -90.707031 40.351562 -99.40625 49.53125 -105.84375 C 58.71875 -112.28125 69.304688 -115.5 81.296875 -115.5 Z M 81.296875 -3.546875 C 90.921875 -3.546875 99.65625 -5.804688 107.5 -10.328125 C 115.351562 -14.847656 121.5 -21.21875 125.9375 -29.4375 C 130.382812 -37.65625 132.609375 -46.945312 132.609375 -57.3125 C 132.609375 -67.675781 130.382812 -76.96875 125.9375 -85.1875 C 121.5 -93.40625 115.351562 -99.804688 107.5 -104.390625 C 99.65625 -108.984375 90.921875 -111.28125 81.296875 -111.28125 C 71.671875 -111.28125 62.929688 -108.984375 55.078125 -104.390625 C 47.234375 -99.804688 41.085938 -93.40625 36.640625 -85.1875 C 32.203125 -76.96875 29.984375 -67.675781 29.984375 -57.3125 C 29.984375 -46.945312 32.203125 -37.65625 36.640625 -29.4375 C 41.085938 -21.21875 47.234375 -14.847656 55.078125 -10.328125 C 62.929688 -5.804688 71.671875 -3.546875 81.296875 -3.546875 Z M 81.296875 -3.546875 "/></g></g></g><g fill="rgb(100%, 50.979614%, 58.428955%)" fill-opacity="0.502"><g transform="translate(192.280175, 467.01745)"><g><path d="M 88.1875 0.671875 C 69.226562 0.671875 54.488281 -4.878906 43.96875 -15.984375 C 33.457031 -27.097656 28.203125 -43.460938 28.203125 -65.078125 L 28.203125 -155.484375 L 32.65625 -155.484375 L 32.65625 -65.3125 C 32.65625 -44.875 37.429688 -29.46875 46.984375 -19.09375 C 56.535156 -8.726562 70.269531 -3.546875 88.1875 -3.546875 C 106.101562 -3.546875 119.835938 -8.726562 129.390625 -19.09375 C 138.941406 -29.46875 143.71875 -44.875 143.71875 -65.3125 L 143.71875 -155.484375 L 148.15625 -155.484375 L 148.15625 -65.078125 C 148.15625 -43.460938 142.894531 -27.097656 132.375 -15.984375 C 121.863281 -4.878906 107.132812 0.671875 88.1875 0.671875 Z M 88.1875 0.671875 "/></g></g></g><g fill="rgb(100%, 50.979614%, 58.428955%)" fill-opacity="0.502"><g transform="translate(368.642248, 467.01745)"><g><path d="M 81.296875 -115.5 C 91.660156 -115.5 101.097656 -113.019531 109.609375 -108.0625 C 118.128906 -103.101562 124.832031 -96.179688 129.71875 -87.296875 C 134.601562 -78.410156 137.046875 -68.414062 137.046875 -57.3125 C 137.046875 -46.207031 134.601562 -36.25 129.71875 -27.4375 C 124.832031 -18.625 118.128906 -11.734375 109.609375 -6.765625 C 101.097656 -1.804688 91.660156 0.671875 81.296875 0.671875 C 69.453125 0.671875 58.898438 -2.546875 49.640625 -8.984375 C 40.390625 -15.429688 33.835938 -24.0625 29.984375 -34.875 L 29.984375 43.09375 L 25.546875 43.09375 L 25.546875 -114.84375 L 29.984375 -114.84375 L 29.984375 -79.75 C 33.835938 -90.707031 40.351562 -99.40625 49.53125 -105.84375 C 58.71875 -112.28125 69.304688 -115.5 81.296875 -115.5 Z M 81.296875 -3.546875 C 90.921875 -3.546875 99.65625 -5.804688 107.5 -10.328125 C 115.351562 -14.847656 121.5 -21.21875 125.9375 -29.4375 C 130.382812 -37.65625 132.609375 -46.945312 132.609375 -57.3125 C 132.609375 -67.675781 130.382812 -76.96875 125.9375 -85.1875 C 121.5 -93.40625 115.351562 -99.804688 107.5 -104.390625 C 99.65625 -108.984375 90.921875 -111.28125 81.296875 -111.28125 C 71.671875 -111.28125 62.929688 -108.984375 55.078125 -104.390625 C 47.234375 -99.804688 41.085938 -93.40625 36.640625 -85.1875 C 32.203125 -76.96875 29.984375 -67.675781 29.984375 -57.3125 C 29.984375 -46.945312 32.203125 -37.65625 36.640625 -29.4375 C 41.085938 -21.21875 47.234375 -14.847656 55.078125 -10.328125 C 62.929688 -5.804688 71.671875 -3.546875 81.296875 -3.546875 Z M 81.296875 -3.546875 "/></g></g></g><g fill="rgb(100%, 50.979614%, 58.428955%)" fill-opacity="1"><g transform="translate(195.49262, 463.189006)"><g><path d="M 88.1875 0.671875 C 69.226562 0.671875 54.488281 -4.878906 43.96875 -15.984375 C 33.457031 -27.097656 28.203125 -43.460938 28.203125 -65.078125 L 28.203125 -155.484375 L 32.65625 -155.484375 L 32.65625 -65.3125 C 32.65625 -44.875 37.429688 -29.46875 46.984375 -19.09375 C 56.535156 -8.726562 70.269531 -3.546875 88.1875 -3.546875 C 106.101562 -3.546875 119.835938 -8.726562 129.390625 -19.09375 C 138.941406 -29.46875 143.71875 -44.875 143.71875 -65.3125 L 143.71875 -155.484375 L 148.15625 -155.484375 L 148.15625 -65.078125 C 148.15625 -43.460938 142.894531 -27.097656 132.375 -15.984375 C 121.863281 -4.878906 107.132812 0.671875 88.1875 0.671875 Z M 88.1875 0.671875 "/></g></g></g><g fill="rgb(100%, 50.979614%, 58.428955%)" fill-opacity="1"><g transform="translate(371.854693, 463.189006)"><g><path d="M 81.296875 -115.5 C 91.660156 -115.5 101.097656 -113.019531 109.609375 -108.0625 C 118.128906 -103.101562 124.832031 -96.179688 129.71875 -87.296875 C 134.601562 -78.410156 137.046875 -68.414062 137.046875 -57.3125 C 137.046875 -46.207031 134.601562 -36.25 129.71875 -27.4375 C 124.832031 -18.625 118.128906 -11.734375 109.609375 -6.765625 C 101.097656 -1.804688 91.660156 0.671875 81.296875 0.671875 C 69.453125 0.671875 58.898438 -2.546875 49.640625 -8.984375 C 40.390625 -15.429688 33.835938 -24.0625 29.984375 -34.875 L 29.984375 43.09375 L 25.546875 43.09375 L 25.546875 -114.84375 L 29.984375 -114.84375 L 29.984375 -79.75 C 33.835938 -90.707031 40.351562 -99.40625 49.53125 -105.84375 C 58.71875 -112.28125 69.304688 -115.5 81.296875 -115.5 Z M 81.296875 -3.546875 C 90.921875 -3.546875 99.65625 -5.804688 107.5 -10.328125 C 115.351562 -14.847656 121.5 -21.21875 125.9375 -29.4375 C 130.382812 -37.65625 132.609375 -46.945312 132.609375 -57.3125 C 132.609375 -67.675781 130.382812 -76.96875 125.9375 -85.1875 C 121.5 -93.40625 115.351562 -99.804688 107.5 -104.390625 C 99.65625 -108.984375 90.921875 -111.28125 81.296875 -111.28125 C 71.671875 -111.28125 62.929688 -108.984375 55.078125 -104.390625 C 47.234375 -99.804688 41.085938 -93.40625 36.640625 -85.1875 C 32.203125 -76.96875 29.984375 -67.675781 29.984375 -57.3125 C 29.984375 -46.945312 32.203125 -37.65625 36.640625 -29.4375 C 41.085938 -21.21875 47.234375 -14.847656 55.078125 -10.328125 C 62.929688 -5.804688 71.671875 -3.546875 81.296875 -3.546875 Z M 81.296875 -3.546875 "/></g></g></g><g fill="rgb(100%, 50.979614%, 58.428955%)" fill-opacity="0.502"><g transform="translate(517.755138, 238.370037)"><g><path d="M 95.421875 -2.3125 C 101.117188 5.6875 103.289062 13.585938 101.9375 21.390625 C 100.59375 29.191406 95.628906 36.148438 87.046875 42.265625 L 49.3125 69.171875 L 47.546875 66.6875 L 85.28125 39.78125 C 93.113281 34.195312 97.691406 27.914062 99.015625 20.9375 C 100.335938 13.96875 98.378906 6.8125 93.140625 -0.53125 C 87.203125 -8.851562 80.015625 -13.644531 71.578125 -14.90625 C 63.140625 -16.175781 54.835938 -13.898438 46.671875 -8.078125 L 11.90625 16.703125 L 10.140625 14.21875 L 101.953125 -51.234375 L 103.71875 -48.75 L 58.796875 -16.734375 C 65.648438 -18.628906 72.273438 -18.367188 78.671875 -15.953125 C 85.066406 -13.546875 90.648438 -9 95.421875 -2.3125 Z M 95.421875 -2.3125 "/></g></g></g><g fill="rgb(100%, 50.979614%, 58.428955%)" fill-opacity="0.502"><g transform="translate(580.859526, 336.053625)"><g><path d="M 48.671875 75.78125 L 40.390625 6.359375 C 33.347656 7.191406 27.222656 9.5 22.015625 13.28125 C 16.804688 17.070312 12.96875 21.894531 10.5 27.75 C 8.039062 33.601562 7.21875 39.957031 8.03125 46.8125 C 8.664062 52.132812 10.289062 57.007812 12.90625 61.4375 C 15.519531 65.875 18.972656 69.363281 23.265625 71.90625 L 21.40625 74.28125 C 16.875 71.351562 13.203125 67.503906 10.390625 62.734375 C 7.578125 57.960938 5.832031 52.765625 5.15625 47.140625 C 4.269531 39.691406 5.160156 32.820312 7.828125 26.53125 C 10.492188 20.25 14.644531 15.0625 20.28125 10.96875 C 25.914062 6.875 32.503906 4.378906 40.046875 3.484375 C 47.585938 2.578125 54.539062 3.328125 60.90625 5.734375 C 67.269531 8.140625 72.460938 11.882812 76.484375 16.96875 C 80.503906 22.050781 82.921875 28.015625 83.734375 34.859375 C 84.535156 41.585938 83.609375 47.914062 80.953125 53.84375 C 78.296875 59.78125 74.238281 64.679688 68.78125 68.546875 C 63.320312 72.421875 56.875 74.800781 49.4375 75.6875 Z M 80.875 35.203125 C 80.15625 29.160156 78.039062 23.847656 74.53125 19.265625 C 71.03125 14.691406 66.535156 11.222656 61.046875 8.859375 C 55.566406 6.503906 49.640625 5.554688 43.265625 6.015625 L 51.203125 72.5625 C 57.503906 71.5 63.039062 69.148438 67.8125 65.515625 C 72.582031 61.890625 76.128906 57.4375 78.453125 52.15625 C 80.785156 46.882812 81.59375 41.234375 80.875 35.203125 Z M 80.875 35.203125 "/></g></g></g><g fill="rgb(100%, 50.979614%, 58.428955%)" fill-opacity="0.502"><g transform="translate(589.225906, 441.099365)"><g><path d="M 59.265625 67.40625 C 56.085938 75.96875 51.453125 81.679688 45.359375 84.546875 C 39.265625 87.410156 32.039062 87.289062 23.6875 84.1875 L -24.609375 66.25 L -23.546875 63.390625 L -7.875 69.21875 C -12.039062 64.96875 -14.65625 59.914062 -15.71875 54.0625 C -16.78125 48.21875 -16.054688 41.921875 -13.546875 35.171875 C -10.515625 27.003906 -6.265625 21.3125 -0.796875 18.09375 C 4.660156 14.875 10.523438 14.429688 16.796875 16.765625 C 22.679688 18.953125 26.679688 22.789062 28.796875 28.28125 C 30.921875 33.769531 30.269531 41.125 26.84375 50.34375 L 16.484375 78.265625 L 24.59375 81.28125 C 32.289062 84.132812 38.816406 84.316406 44.171875 81.828125 C 49.535156 79.335938 53.644531 74.242188 56.5 66.546875 C 58.476562 61.222656 59.394531 55.914062 59.25 50.625 C 59.101562 45.332031 58.082031 40.441406 56.1875 35.953125 L 58.9375 34.703125 C 61.039062 39.484375 62.128906 44.753906 62.203125 50.515625 C 62.285156 56.273438 61.304688 61.90625 59.265625 67.40625 Z M -10.84375 36.171875 C -15.925781 49.847656 -13.132812 61.53125 -2.46875 71.21875 L 13.765625 77.25 L 24.1875 49.1875 C 27.144531 41.207031 27.800781 34.78125 26.15625 29.90625 C 24.519531 25.03125 21.09375 21.617188 15.875 19.671875 C 10.269531 17.597656 5.09375 18 0.34375 20.875 C -4.394531 23.757812 -8.125 28.859375 -10.84375 36.171875 Z M -10.84375 36.171875 "/></g></g></g><g fill="rgb(100%, 50.979614%, 58.428955%)" fill-opacity="0.502"><g transform="translate(544.043497, 538.27116)"><g><path d="M 71.84375 88.65625 L 69.796875 90.90625 L -13.78125 15.203125 L -11.734375 12.953125 Z M 71.84375 88.65625 "/></g></g></g><g fill="rgb(100%, 50.979614%, 58.428955%)" fill-opacity="0.302"><g transform="translate(514.12173, 239.480886)"><g><path d="M 95.421875 -2.3125 C 101.117188 5.6875 103.289062 13.585938 101.9375 21.390625 C 100.59375 29.191406 95.628906 36.148438 87.046875 42.265625 L 49.3125 69.171875 L 47.546875 66.6875 L 85.28125 39.78125 C 93.113281 34.195312 97.691406 27.914062 99.015625 20.9375 C 100.335938 13.96875 98.378906 6.8125 93.140625 -0.53125 C 87.203125 -8.851562 80.015625 -13.644531 71.578125 -14.90625 C 63.140625 -16.175781 54.835938 -13.898438 46.671875 -8.078125 L 11.90625 16.703125 L 10.140625 14.21875 L 101.953125 -51.234375 L 103.71875 -48.75 L 58.796875 -16.734375 C 65.648438 -18.628906 72.273438 -18.367188 78.671875 -15.953125 C 85.066406 -13.546875 90.648438 -9 95.421875 -2.3125 Z M 95.421875 -2.3125 "/></g></g></g><g fill="rgb(100%, 50.979614%, 58.428955%)" fill-opacity="0.302"><g transform="translate(577.226118, 337.164505)"><g><path d="M 48.671875 75.78125 L 40.390625 6.359375 C 33.347656 7.191406 27.222656 9.5 22.015625 13.28125 C 16.804688 17.070312 12.96875 21.894531 10.5 27.75 C 8.039062 33.601562 7.21875 39.957031 8.03125 46.8125 C 8.664062 52.132812 10.289062 57.007812 12.90625 61.4375 C 15.519531 65.875 18.972656 69.363281 23.265625 71.90625 L 21.40625 74.28125 C 16.875 71.351562 13.203125 67.503906 10.390625 62.734375 C 7.578125 57.960938 5.832031 52.765625 5.15625 47.140625 C 4.269531 39.691406 5.160156 32.820312 7.828125 26.53125 C 10.492188 20.25 14.644531 15.0625 20.28125 10.96875 C 25.914062 6.875 32.503906 4.378906 40.046875 3.484375 C 47.585938 2.578125 54.539062 3.328125 60.90625 5.734375 C 67.269531 8.140625 72.460938 11.882812 76.484375 16.96875 C 80.503906 22.050781 82.921875 28.015625 83.734375 34.859375 C 84.535156 41.585938 83.609375 47.914062 80.953125 53.84375 C 78.296875 59.78125 74.238281 64.679688 68.78125 68.546875 C 63.320312 72.421875 56.875 74.800781 49.4375 75.6875 Z M 80.875 35.203125 C 80.15625 29.160156 78.039062 23.847656 74.53125 19.265625 C 71.03125 14.691406 66.535156 11.222656 61.046875 8.859375 C 55.566406 6.503906 49.640625 5.554688 43.265625 6.015625 L 51.203125 72.5625 C 57.503906 71.5 63.039062 69.148438 67.8125 65.515625 C 72.582031 61.890625 76.128906 57.4375 78.453125 52.15625 C 80.785156 46.882812 81.59375 41.234375 80.875 35.203125 Z M 80.875 35.203125 "/></g></g></g><g fill="rgb(100%, 50.979614%, 58.428955%)" fill-opacity="0.302"><g transform="translate(585.59245, 442.210253)"><g><path d="M 59.265625 67.40625 C 56.085938 75.96875 51.453125 81.679688 45.359375 84.546875 C 39.265625 87.410156 32.039062 87.289062 23.6875 84.1875 L -24.609375 66.25 L -23.546875 63.390625 L -7.875 69.21875 C -12.039062 64.96875 -14.65625 59.914062 -15.71875 54.0625 C -16.78125 48.21875 -16.054688 41.921875 -13.546875 35.171875 C -10.515625 27.003906 -6.265625 21.3125 -0.796875 18.09375 C 4.660156 14.875 10.523438 14.429688 16.796875 16.765625 C 22.679688 18.953125 26.679688 22.789062 28.796875 28.28125 C 30.921875 33.769531 30.269531 41.125 26.84375 50.34375 L 16.484375 78.265625 L 24.59375 81.28125 C 32.289062 84.132812 38.816406 84.316406 44.171875 81.828125 C 49.535156 79.335938 53.644531 74.242188 56.5 66.546875 C 58.476562 61.222656 59.394531 55.914062 59.25 50.625 C 59.101562 45.332031 58.082031 40.441406 56.1875 35.953125 L 58.9375 34.703125 C 61.039062 39.484375 62.128906 44.753906 62.203125 50.515625 C 62.285156 56.273438 61.304688 61.90625 59.265625 67.40625 Z M -10.84375 36.171875 C -15.925781 49.847656 -13.132812 61.53125 -2.46875 71.21875 L 13.765625 77.25 L 24.1875 49.1875 C 27.144531 41.207031 27.800781 34.78125 26.15625 29.90625 C 24.519531 25.03125 21.09375 21.617188 15.875 19.671875 C 10.269531 17.597656 5.09375 18 0.34375 20.875 C -4.394531 23.757812 -8.125 28.859375 -10.84375 36.171875 Z M -10.84375 36.171875 "/></g></g></g><g fill="rgb(100%, 50.979614%, 58.428955%)" fill-opacity="0.302"><g transform="translate(540.410114, 539.381975)"><g><path d="M 71.84375 88.65625 L 69.796875 90.90625 L -13.78125 15.203125 L -11.734375 12.953125 Z M 71.84375 88.65625 "/></g></g></g><g fill="rgb(100%, 50.979614%, 58.428955%)" fill-opacity="1"><g transform="translate(521.388594, 237.259202)"><g><path d="M 95.421875 -2.3125 C 101.117188 5.6875 103.289062 13.585938 101.9375 21.390625 C 100.59375 29.191406 95.628906 36.148438 87.046875 42.265625 L 49.3125 69.171875 L 47.546875 66.6875 L 85.28125 39.78125 C 93.113281 34.195312 97.691406 27.914062 99.015625 20.9375 C 100.335938 13.96875 98.378906 6.8125 93.140625 -0.53125 C 87.203125 -8.851562 80.015625 -13.644531 71.578125 -14.90625 C 63.140625 -16.175781 54.835938 -13.898438 46.671875 -8.078125 L 11.90625 16.703125 L 10.140625 14.21875 L 101.953125 -51.234375 L 103.71875 -48.75 L 58.796875 -16.734375 C 65.648438 -18.628906 72.273438 -18.367188 78.671875 -15.953125 C 85.066406 -13.546875 90.648438 -9 95.421875 -2.3125 Z M 95.421875 -2.3125 "/></g></g></g><g fill="rgb(100%, 50.979614%, 58.428955%)" fill-opacity="1"><g transform="translate(584.49291, 334.942806)"><g><path d="M 48.671875 75.78125 L 40.390625 6.359375 C 33.347656 7.191406 27.222656 9.5 22.015625 13.28125 C 16.804688 17.070312 12.96875 21.894531 10.5 27.75 C 8.039062 33.601562 7.21875 39.957031 8.03125 46.8125 C 8.664062 52.132812 10.289062 57.007812 12.90625 61.4375 C 15.519531 65.875 18.972656 69.363281 23.265625 71.90625 L 21.40625 74.28125 C 16.875 71.351562 13.203125 67.503906 10.390625 62.734375 C 7.578125 57.960938 5.832031 52.765625 5.15625 47.140625 C 4.269531 39.691406 5.160156 32.820312 7.828125 26.53125 C 10.492188 20.25 14.644531 15.0625 20.28125 10.96875 C 25.914062 6.875 32.503906 4.378906 40.046875 3.484375 C 47.585938 2.578125 54.539062 3.328125 60.90625 5.734375 C 67.269531 8.140625 72.460938 11.882812 76.484375 16.96875 C 80.503906 22.050781 82.921875 28.015625 83.734375 34.859375 C 84.535156 41.585938 83.609375 47.914062 80.953125 53.84375 C 78.296875 59.78125 74.238281 64.679688 68.78125 68.546875 C 63.320312 72.421875 56.875 74.800781 49.4375 75.6875 Z M 80.875 35.203125 C 80.15625 29.160156 78.039062 23.847656 74.53125 19.265625 C 71.03125 14.691406 66.535156 11.222656 61.046875 8.859375 C 55.566406 6.503906 49.640625 5.554688 43.265625 6.015625 L 51.203125 72.5625 C 57.503906 71.5 63.039062 69.148438 67.8125 65.515625 C 72.582031 61.890625 76.128906 57.4375 78.453125 52.15625 C 80.785156 46.882812 81.59375 41.234375 80.875 35.203125 Z M 80.875 35.203125 "/></g></g></g><g fill="rgb(100%, 50.979614%, 58.428955%)" fill-opacity="1"><g transform="translate(592.85929, 439.988525)"><g><path d="M 59.265625 67.40625 C 56.085938 75.96875 51.453125 81.679688 45.359375 84.546875 C 39.265625 87.410156 32.039062 87.289062 23.6875 84.1875 L -24.609375 66.25 L -23.546875 63.390625 L -7.875 69.21875 C -12.039062 64.96875 -14.65625 59.914062 -15.71875 54.0625 C -16.78125 48.21875 -16.054688 41.921875 -13.546875 35.171875 C -10.515625 27.003906 -6.265625 21.3125 -0.796875 18.09375 C 4.660156 14.875 10.523438 14.429688 16.796875 16.765625 C 22.679688 18.953125 26.679688 22.789062 28.796875 28.28125 C 30.921875 33.769531 30.269531 41.125 26.84375 50.34375 L 16.484375 78.265625 L 24.59375 81.28125 C 32.289062 84.132812 38.816406 84.316406 44.171875 81.828125 C 49.535156 79.335938 53.644531 74.242188 56.5 66.546875 C 58.476562 61.222656 59.394531 55.914062 59.25 50.625 C 59.101562 45.332031 58.082031 40.441406 56.1875 35.953125 L 58.9375 34.703125 C 61.039062 39.484375 62.128906 44.753906 62.203125 50.515625 C 62.285156 56.273438 61.304688 61.90625 59.265625 67.40625 Z M -10.84375 36.171875 C -15.925781 49.847656 -13.132812 61.53125 -2.46875 71.21875 L 13.765625 77.25 L 24.1875 49.1875 C 27.144531 41.207031 27.800781 34.78125 26.15625 29.90625 C 24.519531 25.03125 21.09375 21.617188 15.875 19.671875 C 10.269531 17.597656 5.09375 18 0.34375 20.875 C -4.394531 23.757812 -8.125 28.859375 -10.84375 36.171875 Z M -10.84375 36.171875 "/></g></g></g><g fill="rgb(100%, 50.979614%, 58.428955%)" fill-opacity="1"><g transform="translate(547.676953, 537.160344)"><g><path d="M 71.84375 88.65625 L 69.796875 90.90625 L -13.78125 15.203125 L -11.734375 12.953125 Z M 71.84375 88.65625 "/></g></g></g></svg>