<svg xmlns="http://www.w3.org/2000/svg" xmlns:xlink="http://www.w3.org/1999/xlink" width="1080" zoomAndPan="magnify" viewBox="0 0 810 809.999993" height="1080" preserveAspectRatio="xMidYMid meet" version="1.0"><defs><filter x="0%" y="0%" width="100%" height="100%" id="id1"><feColorMatrix values="0 0 0 0 1 0 0 0 0 1 0 0 0 0 1 0 0 0 1 0" color-interpolation-filters="sRGB"/></filter><g/><clipPath id="id2"><path d="M 391.265625 234.386719 L 658.011719 234.386719 L 658.011719 414.234375 L 391.265625 414.234375 Z M 391.265625 234.386719 " clip-rule="nonzero"/></clipPath><mask id="id3"><g filter="url(#id1)"><rect x="-81" width="972" fill="rgb(0%, 0%, 0%)" y="-80.999999" height="971.999992" fill-opacity="0.9176"/></g></mask><clipPath id="id4"><rect x="0" width="629" y="0" height="9"/></clipPath></defs><path fill="rgb(0%, 45.878601%, 100%)" d="M 95.945312 528.347656 L 95.945312 257.886719 C 95.945312 244.765625 101.160156 232.1875 110.4375 222.910156 C 119.714844 213.636719 132.300781 208.425781 145.421875 208.425781 L 664.730469 208.425781 C 677.851562 208.425781 690.4375 213.636719 699.714844 222.910156 C 708.992188 232.1875 714.207031 244.765625 714.207031 257.886719 L 714.207031 528.347656 C 714.207031 555.660156 692.054688 577.804688 664.730469 577.804688 L 145.421875 577.804688 C 118.097656 577.804688 95.945312 555.660156 95.945312 528.347656 " fill-opacity="1" fill-rule="nonzero"/><g fill="rgb(100%, 100%, 100%)" fill-opacity="1"><g transform="translate(145.055562, 351.315143)"><g/></g></g><g fill="rgb(100%, 100%, 100%)" fill-opacity="1"><g transform="translate(177.202955, 351.315143)"><g><path d="M 70.328125 -64.5625 L 70.328125 0 L 61.984375 0 L 61.984375 -11.78125 C 59.691406 -7.851562 56.539062 -4.804688 52.53125 -2.640625 C 48.519531 -0.472656 43.9375 0.609375 38.78125 0.609375 C 30.351562 0.609375 23.703125 -1.738281 18.828125 -6.4375 C 13.960938 -11.144531 11.53125 -18.039062 11.53125 -27.125 L 11.53125 -64.5625 L 20.25 -64.5625 L 20.25 -27.984375 C 20.25 -21.191406 21.925781 -16.035156 25.28125 -12.515625 C 28.632812 -8.992188 33.421875 -7.234375 39.640625 -7.234375 C 46.429688 -7.234375 51.789062 -9.300781 55.71875 -13.4375 C 59.644531 -17.570312 61.609375 -23.320312 61.609375 -30.6875 L 61.609375 -64.5625 Z M 70.328125 -64.5625 "/></g></g></g><g fill="rgb(100%, 100%, 100%)" fill-opacity="1"><g transform="translate(259.793385, 351.315143)"><g><path d="M 45.40625 -65.046875 C 51.46875 -65.046875 56.953125 -63.675781 61.859375 -60.9375 C 66.765625 -58.195312 70.609375 -54.332031 73.390625 -49.34375 C 76.171875 -44.351562 77.5625 -38.664062 77.5625 -32.28125 C 77.5625 -25.8125 76.171875 -20.082031 73.390625 -15.09375 C 70.609375 -10.101562 66.78125 -6.238281 61.90625 -3.5 C 57.039062 -0.757812 51.539062 0.609375 45.40625 0.609375 C 40.175781 0.609375 35.453125 -0.472656 31.234375 -2.640625 C 27.023438 -4.804688 23.566406 -7.976562 20.859375 -12.15625 L 20.859375 23.8125 L 12.15625 23.8125 L 12.15625 -64.5625 L 20.5 -64.5625 L 20.5 -51.796875 C 23.113281 -56.046875 26.566406 -59.316406 30.859375 -61.609375 C 35.160156 -63.898438 40.007812 -65.046875 45.40625 -65.046875 Z M 44.796875 -7.125 C 49.296875 -7.125 53.382812 -8.164062 57.0625 -10.25 C 60.75 -12.332031 63.632812 -15.296875 65.71875 -19.140625 C 67.8125 -22.992188 68.859375 -27.375 68.859375 -32.28125 C 68.859375 -37.1875 67.8125 -41.539062 65.71875 -45.34375 C 63.632812 -49.15625 60.75 -52.125 57.0625 -54.25 C 53.382812 -56.375 49.296875 -57.4375 44.796875 -57.4375 C 40.210938 -57.4375 36.097656 -56.375 32.453125 -54.25 C 28.816406 -52.125 25.953125 -49.15625 23.859375 -45.34375 C 21.773438 -41.539062 20.734375 -37.1875 20.734375 -32.28125 C 20.734375 -27.375 21.773438 -22.992188 23.859375 -19.140625 C 25.953125 -15.296875 28.816406 -12.332031 32.453125 -10.25 C 36.097656 -8.164062 40.210938 -7.125 44.796875 -7.125 Z M 44.796875 -7.125 "/></g></g></g><g fill="rgb(100%, 100%, 100%)" fill-opacity="1"><g transform="translate(342.995292, 351.315143)"><g/></g></g><g fill="rgb(100%, 100%, 100%)" fill-opacity="1"><g transform="translate(375.147887, 351.315143)"><g/></g></g><g fill="rgb(100%, 100%, 100%)" fill-opacity="1"><g transform="translate(407.300482, 351.315143)"><g/></g></g><g fill="rgb(100%, 100%, 100%)" fill-opacity="1"><g transform="translate(439.453077, 351.315143)"><g/></g></g><g fill="rgb(100%, 100%, 100%)" fill-opacity="1"><g transform="translate(471.605672, 351.315143)"><g/></g></g><g fill="rgb(100%, 100%, 100%)" fill-opacity="1"><g transform="translate(503.758268, 351.315143)"><g/></g></g><g fill="rgb(100%, 100%, 100%)" fill-opacity="1"><g transform="translate(535.910863, 351.315143)"><g/></g></g><g fill="rgb(100%, 100%, 100%)" fill-opacity="1"><g transform="translate(568.063458, 351.315143)"><g/></g></g><g fill="rgb(100%, 100%, 100%)" fill-opacity="1"><g transform="translate(600.216053, 351.315143)"><g/></g></g><g fill="rgb(100%, 100%, 100%)" fill-opacity="1"><g transform="translate(632.368649, 351.315143)"><g/></g></g><g fill="rgb(100%, 100%, 100%)" fill-opacity="1"><g transform="translate(145.08949, 522.858385)"><g/></g></g><g fill="rgb(100%, 100%, 100%)" fill-opacity="1"><g transform="translate(177.242086, 522.858385)"><g/></g></g><g fill="rgb(100%, 100%, 100%)" fill-opacity="1"><g transform="translate(209.394681, 522.858385)"><g/></g></g><g fill="rgb(100%, 100%, 100%)" fill-opacity="1"><g transform="translate(241.547276, 522.858385)"><g/></g></g><g fill="rgb(100%, 100%, 100%)" fill-opacity="1"><g transform="translate(273.699871, 522.858385)"><g/></g></g><g fill="rgb(100%, 100%, 100%)" fill-opacity="1"><g transform="translate(305.852467, 522.858385)"><g/></g></g><g fill="rgb(100%, 100%, 100%)" fill-opacity="1"><g transform="translate(338.005062, 522.858385)"><g/></g></g><g fill="rgb(100%, 100%, 100%)" fill-opacity="1"><g transform="translate(370.155179, 522.858385)"><g><path d="M 45.046875 -65.046875 C 53.140625 -65.046875 59.578125 -62.691406 64.359375 -57.984375 C 69.148438 -53.285156 71.546875 -46.4375 71.546875 -37.4375 L 71.546875 0 L 62.84375 0 L 62.84375 -36.578125 C 62.84375 -43.285156 61.164062 -48.394531 57.8125 -51.90625 C 54.457031 -55.425781 49.671875 -57.1875 43.453125 -57.1875 C 36.492188 -57.1875 30.988281 -55.117188 26.9375 -50.984375 C 22.882812 -46.859375 20.859375 -41.15625 20.859375 -33.875 L 20.859375 0 L 12.15625 0 L 12.15625 -91.0625 L 20.859375 -91.0625 L 20.859375 -53.265625 C 23.234375 -57.023438 26.503906 -59.925781 30.671875 -61.96875 C 34.847656 -64.019531 39.640625 -65.046875 45.046875 -65.046875 Z M 45.046875 -65.046875 "/></g></g></g><g fill="rgb(100%, 100%, 100%)" fill-opacity="1"><g transform="translate(453.236497, 522.858385)"><g><path d="M 68.359375 -29.578125 L 14.359375 -29.578125 C 14.847656 -22.867188 17.425781 -17.445312 22.09375 -13.3125 C 26.757812 -9.1875 32.648438 -7.125 39.765625 -7.125 C 43.773438 -7.125 47.457031 -7.835938 50.8125 -9.265625 C 54.164062 -10.703125 57.070312 -12.8125 59.53125 -15.59375 L 64.4375 -9.9375 C 61.570312 -6.5 57.988281 -3.878906 53.6875 -2.078125 C 49.394531 -0.285156 44.671875 0.609375 39.515625 0.609375 C 32.890625 0.609375 27.019531 -0.800781 21.90625 -3.625 C 16.789062 -6.445312 12.800781 -10.351562 9.9375 -15.34375 C 7.070312 -20.332031 5.640625 -25.976562 5.640625 -32.28125 C 5.640625 -38.582031 7.007812 -44.226562 9.75 -49.21875 C 12.5 -54.207031 16.265625 -58.09375 21.046875 -60.875 C 25.835938 -63.65625 31.21875 -65.046875 37.1875 -65.046875 C 43.15625 -65.046875 48.515625 -63.65625 53.265625 -60.875 C 58.015625 -58.09375 61.738281 -54.226562 64.4375 -49.28125 C 67.132812 -44.332031 68.484375 -38.664062 68.484375 -32.28125 Z M 37.1875 -57.5625 C 30.96875 -57.5625 25.75 -55.578125 21.53125 -51.609375 C 17.320312 -47.640625 14.929688 -42.460938 14.359375 -36.078125 L 60.140625 -36.078125 C 59.566406 -42.460938 57.171875 -47.640625 52.953125 -51.609375 C 48.742188 -55.578125 43.488281 -57.5625 37.1875 -57.5625 Z M 37.1875 -57.5625 "/></g></g></g><g fill="rgb(100%, 100%, 100%)" fill-opacity="1"><g transform="translate(527.359261, 522.858385)"><g><path d="M 34.734375 -65.046875 C 43.160156 -65.046875 49.625 -62.9375 54.125 -58.71875 C 58.625 -54.507812 60.875 -48.273438 60.875 -40.015625 L 60.875 0 L 52.53125 0 L 52.53125 -10.0625 C 50.5625 -6.707031 47.675781 -4.085938 43.875 -2.203125 C 40.070312 -0.328125 35.550781 0.609375 30.3125 0.609375 C 23.113281 0.609375 17.382812 -1.109375 13.125 -4.546875 C 8.875 -7.984375 6.75 -12.523438 6.75 -18.171875 C 6.75 -23.648438 8.734375 -28.066406 12.703125 -31.421875 C 16.671875 -34.773438 22.992188 -36.453125 31.671875 -36.453125 L 52.15625 -36.453125 L 52.15625 -40.375 C 52.15625 -45.9375 50.597656 -50.171875 47.484375 -53.078125 C 44.378906 -55.984375 39.84375 -57.4375 33.875 -57.4375 C 29.78125 -57.4375 25.851562 -56.757812 22.09375 -55.40625 C 18.332031 -54.0625 15.097656 -52.203125 12.390625 -49.828125 L 8.46875 -56.328125 C 11.738281 -59.117188 15.664062 -61.269531 20.25 -62.78125 C 24.832031 -64.289062 29.660156 -65.046875 34.734375 -65.046875 Z M 31.671875 -6.265625 C 36.578125 -6.265625 40.785156 -7.390625 44.296875 -9.640625 C 47.816406 -11.890625 50.4375 -15.140625 52.15625 -19.390625 L 52.15625 -29.953125 L 31.90625 -29.953125 C 20.863281 -29.953125 15.34375 -26.101562 15.34375 -18.40625 C 15.34375 -14.644531 16.773438 -11.679688 19.640625 -9.515625 C 22.503906 -7.347656 26.515625 -6.265625 31.671875 -6.265625 Z M 31.671875 -6.265625 "/></g></g></g><g fill="rgb(100%, 100%, 100%)" fill-opacity="1"><g transform="translate(599.763955, 522.858385)"><g><path d="M 12.15625 -91.0625 L 20.859375 -91.0625 L 20.859375 0 L 12.15625 0 Z M 12.15625 -91.0625 "/></g></g></g><g fill="rgb(100%, 100%, 100%)" fill-opacity="1"><g transform="translate(632.762911, 522.858385)"><g/></g></g><g clip-path="url(#id2)"><path fill="rgb(100%, 100%, 100%)" d="M 653.550781 328.3125 C 650.664062 321.101562 646.394531 314.472656 640.816406 309.003906 C 639.605469 307.820312 638.222656 306.65625 636.71875 305.617188 C 636.695312 297.390625 634.753906 289.3125 631.042969 282.125 C 627.308594 274.890625 621.804688 268.554688 614.699219 263.957031 C 610.332031 261.125 605.410156 258.777344 600.246094 257.109375 C 595.078125 255.464844 589.671875 254.496094 584.261719 254.496094 C 582.371094 254.496094 580.453125 254.617188 578.585938 254.859375 C 578.539062 254.785156 578.492188 254.714844 578.441406 254.640625 C 575.652344 250.820312 571.992188 247.335938 568.28125 244.457031 C 566.414062 243.027344 564.546875 241.746094 562.726562 240.683594 C 560.90625 239.617188 559.1875 238.722656 557.609375 238.09375 C 551.207031 235.503906 544.539062 234.390625 537.867188 234.390625 C 529.574219 234.390625 521.253906 236.109375 513.398438 238.84375 C 511.847656 239.375 510.125 240.078125 508.402344 240.949219 C 500.835938 237.441406 492.636719 235.722656 484.464844 235.722656 C 473.941406 235.722656 463.414062 238.554688 454.175781 244.046875 C 450.390625 246.296875 444.835938 250.019531 440.15625 254.546875 C 437.828125 256.820312 435.695312 259.285156 434.140625 261.925781 C 433.972656 262.214844 433.800781 262.503906 433.65625 262.820312 C 429.074219 263.375 424.734375 264.851562 420.753906 267.027344 C 413.261719 271.140625 407.003906 277.699219 402.613281 285.390625 C 398.226562 293.085938 395.679688 301.890625 395.679688 310.554688 C 395.679688 314.351562 396.164062 318.101562 397.207031 321.707031 C 396.890625 322.019531 396.601562 322.359375 396.332031 322.699219 C 394.5625 324.851562 393.300781 327.34375 392.476562 330.027344 C 391.652344 332.691406 391.265625 335.542969 391.265625 338.425781 C 391.265625 343.601562 392.5 348.925781 394.734375 353.691406 C 395.847656 356.0625 397.207031 358.285156 398.808594 360.292969 C 400.40625 362.277344 402.226562 364.042969 404.265625 365.449219 C 407.148438 367.457031 410.253906 368.933594 413.503906 369.949219 C 416.753906 370.964844 420.125 371.519531 423.542969 371.664062 C 424.222656 371.691406 424.804688 371.15625 424.828125 370.480469 C 424.855469 369.804688 424.320312 369.222656 423.640625 369.199219 C 420.441406 369.078125 417.261719 368.542969 414.253906 367.601562 C 411.222656 366.65625 408.339844 365.277344 405.671875 363.414062 C 403.851562 362.15625 402.203125 360.585938 400.746094 358.746094 C 398.566406 356.011719 396.792969 352.722656 395.605469 349.238281 C 394.394531 345.730469 393.761719 342.027344 393.761719 338.449219 C 393.761719 336.078125 394.054688 333.753906 394.636719 331.578125 C 395.070312 329.957031 395.679688 328.40625 396.480469 326.980469 C 396.964844 326.085938 397.523438 325.238281 398.152344 324.464844 C 399.195312 327.269531 400.625 329.957031 402.421875 332.449219 C 403.753906 334.3125 405.671875 335.835938 407.828125 336.925781 C 409.988281 338.011719 412.414062 338.640625 414.8125 338.640625 C 415.976562 338.640625 417.164062 338.496094 418.28125 338.15625 C 419.421875 337.820312 420.488281 337.3125 421.484375 336.609375 C 422.914062 335.570312 423.980469 334.238281 424.660156 332.785156 C 425.339844 331.3125 425.652344 329.738281 425.652344 328.140625 C 425.652344 326.542969 425.339844 324.949219 424.757812 323.472656 C 424.175781 321.972656 423.324219 320.59375 422.210938 319.433594 C 420.851562 318.003906 419.203125 316.988281 417.410156 316.3125 C 415.613281 315.632812 413.699219 315.320312 411.804688 315.320312 C 410.570312 315.320312 409.355469 315.464844 408.191406 315.707031 C 405.257812 316.359375 402.710938 317.472656 400.554688 318.925781 C 400.117188 319.214844 399.703125 319.527344 399.292969 319.84375 C 398.539062 316.84375 398.175781 313.722656 398.175781 310.578125 C 398.175781 305.132812 399.242188 299.570312 401.207031 294.292969 C 404.140625 286.382812 409.089844 279.101562 415.324219 273.804688 C 418.453125 271.164062 421.894531 268.988281 425.582031 267.488281 C 427.8125 266.570312 430.117188 265.914062 432.492188 265.503906 C 432.445312 265.675781 432.371094 265.84375 432.324219 266.011719 C 431.886719 267.414062 431.621094 268.84375 431.621094 270.269531 C 431.621094 271.527344 431.8125 272.8125 432.226562 274.070312 C 432.636719 275.328125 433.292969 276.585938 434.167969 277.792969 C 435.28125 279.34375 436.761719 280.554688 438.460938 281.398438 C 440.132812 282.246094 442 282.707031 443.890625 282.707031 C 444.328125 282.707031 444.742188 282.683594 445.175781 282.632812 C 446.292969 282.511719 447.433594 282.199219 448.476562 281.691406 C 449.519531 281.183594 450.488281 280.457031 451.238281 279.488281 C 451.773438 278.785156 452.160156 278.011719 452.429688 277.191406 C 452.671875 276.390625 452.792969 275.542969 452.792969 274.699219 C 452.792969 272.980469 452.332031 271.285156 451.507812 269.8125 C 450.828125 268.578125 449.929688 267.511719 448.910156 266.59375 C 447.382812 265.238281 445.539062 264.222656 443.601562 263.570312 C 441.660156 262.914062 439.574219 262.578125 437.539062 262.578125 C 437.441406 262.578125 437.34375 262.578125 437.222656 262.578125 C 437.027344 262.578125 436.835938 262.578125 436.664062 262.601562 C 437.101562 261.925781 437.585938 261.222656 438.09375 260.570312 C 440.449219 257.519531 443.578125 254.617188 446.730469 252.148438 C 449.882812 249.683594 453.058594 247.625 455.460938 246.199219 C 464.261719 240.898438 474.351562 238.191406 484.441406 238.191406 C 491.667969 238.191406 498.871094 239.59375 505.636719 242.425781 C 504.789062 242.90625 503.964844 243.441406 503.164062 243.996094 C 501.03125 245.496094 499.066406 247.214844 497.585938 249.175781 C 496.859375 250.164062 496.25 251.207031 495.816406 252.320312 C 495.402344 253.433594 495.160156 254.617188 495.160156 255.828125 C 495.160156 257.132812 495.425781 258.464844 496.035156 259.796875 C 496.617188 261.125 497.511719 262.457031 498.726562 263.785156 C 499.914062 265.09375 501.394531 266.085938 502.992188 266.761719 C 504.59375 267.441406 506.339844 267.777344 508.0625 267.777344 C 509.929688 267.777344 511.796875 267.367188 513.496094 266.519531 C 515.582031 265.480469 517.277344 263.8125 518.464844 261.851562 C 519.65625 259.890625 520.308594 257.617188 520.308594 255.320312 C 520.308594 254.546875 520.238281 253.796875 520.089844 253.019531 C 519.847656 251.859375 519.460938 250.769531 518.925781 249.730469 C 518.128906 248.183594 517.058594 246.804688 515.796875 245.617188 C 514.5625 244.433594 513.132812 243.414062 511.652344 242.59375 C 511.507812 242.519531 511.335938 242.425781 511.191406 242.351562 C 512.234375 241.890625 513.253906 241.503906 514.199219 241.164062 C 521.863281 238.503906 529.890625 236.859375 537.84375 236.859375 C 544.222656 236.859375 550.578125 237.925781 556.640625 240.390625 C 558.820312 241.285156 561.464844 242.738281 564.179688 244.578125 C 568.257812 247.359375 572.476562 251.0625 575.652344 255.101562 C 575.726562 255.175781 575.773438 255.246094 575.824219 255.34375 C 572.257812 256.070312 568.789062 257.304688 565.492188 259.09375 C 563.574219 260.132812 561.851562 261.585938 560.519531 263.328125 C 559.1875 265.070312 558.214844 267.101562 557.875 269.304688 C 557.753906 270.027344 557.707031 270.730469 557.707031 271.40625 C 557.707031 273.078125 558.046875 274.601562 558.675781 275.933594 C 559.136719 276.925781 559.769531 277.796875 560.519531 278.570312 C 561.636719 279.707031 562.992188 280.554688 564.472656 281.109375 C 565.953125 281.664062 567.550781 281.957031 569.175781 281.957031 C 570.777344 281.957031 572.402344 281.691406 573.957031 281.109375 C 575.507812 280.527344 576.960938 279.65625 578.222656 278.496094 C 579.992188 276.851562 581.304688 275.0625 582.128906 273.222656 C 582.976562 271.359375 583.339844 269.449219 583.339844 267.535156 C 583.339844 265.914062 583.074219 264.296875 582.589844 262.722656 C 582.03125 260.835938 581.15625 258.996094 580.089844 257.207031 C 581.472656 257.0625 582.855469 256.988281 584.238281 256.988281 C 589.332031 256.988281 594.496094 257.882812 599.46875 259.480469 C 604.414062 261.054688 609.144531 263.328125 613.339844 266.035156 C 620.082031 270.390625 625.296875 276.367188 628.835938 283.261719 C 632.113281 289.625 633.953125 296.761719 634.195312 304.046875 C 633.46875 303.632812 632.71875 303.222656 631.941406 302.859375 C 630.269531 302.0625 628.523438 301.40625 626.75 300.972656 C 624.980469 300.511719 623.1875 300.269531 621.390625 300.269531 C 620.082031 300.269531 618.773438 300.414062 617.511719 300.707031 C 615.621094 301.164062 613.800781 301.988281 612.152344 303.269531 C 610.527344 304.527344 609.070312 306.246094 607.90625 308.398438 C 606.792969 310.433594 606.257812 312.65625 606.257812 314.835938 C 606.257812 317.035156 606.792969 319.191406 607.835938 321.125 C 608.878906 323.0625 610.429688 324.753906 612.417969 325.988281 C 613.632812 326.738281 614.867188 327.292969 616.082031 327.632812 C 617.316406 327.996094 618.53125 328.164062 619.742188 328.164062 C 621.925781 328.164062 624.011719 327.609375 625.902344 326.664062 C 628.742188 325.238281 631.191406 322.941406 633.007812 320.230469 C 634.828125 317.496094 636.039062 314.351562 636.378906 311.132812 C 636.476562 310.3125 636.523438 309.464844 636.574219 308.640625 C 637.445312 309.320312 638.273438 310.042969 639.023438 310.769531 C 644.335938 315.972656 648.433594 322.335938 651.199219 329.253906 C 653.960938 336.175781 655.394531 343.648438 655.394531 351.125 C 655.394531 353.0625 655.296875 354.996094 655.101562 356.933594 C 654.910156 358.769531 654.570312 360.683594 654.058594 362.519531 C 653.285156 365.277344 652.070312 367.890625 650.421875 370.042969 C 649.597656 371.109375 648.652344 372.078125 647.585938 372.898438 C 646.515625 373.722656 645.328125 374.375 643.972656 374.859375 C 641.714844 375.683594 639.460938 376.019531 637.179688 376.019531 C 635.265625 376.019531 633.347656 375.753906 631.433594 375.292969 C 628.570312 374.617188 625.757812 373.457031 623.042969 372.078125 C 620.324219 370.675781 617.707031 369.027344 615.257812 367.359375 C 602.476562 358.578125 589.914062 348.414062 576.429688 340.042969 C 569.6875 335.859375 562.703125 332.132812 555.355469 329.253906 C 548.34375 326.519531 540.972656 324.5625 533.164062 323.714844 C 534.835938 319.070312 537.066406 314.664062 539.832031 310.699219 C 541.601562 311.570312 543.398438 312.414062 545.191406 313.164062 C 553.027344 316.433594 561.296875 318.464844 569.710938 318.464844 C 572.0625 318.464844 574.414062 318.292969 576.792969 317.980469 C 578.515625 317.738281 580.285156 317.351562 582.007812 316.769531 C 584.578125 315.925781 587.074219 314.691406 589.089844 312.972656 C 590.105469 312.101562 591.003906 311.132812 591.707031 310.019531 C 592.433594 308.90625 592.992188 307.675781 593.308594 306.292969 C 593.503906 305.449219 593.597656 304.625 593.597656 303.777344 C 593.597656 302.542969 593.40625 301.335938 593.042969 300.175781 C 592.507812 298.433594 591.609375 296.785156 590.445312 295.359375 C 589.308594 293.933594 587.898438 292.675781 586.324219 291.730469 C 584.527344 290.640625 582.589844 289.914062 580.601562 289.457031 C 578.613281 288.996094 576.550781 288.804688 574.511719 288.804688 C 573.105469 288.804688 571.699219 288.898438 570.316406 289.046875 C 565.152344 289.648438 560.324219 291.125 555.960938 293.304688 C 549.386719 296.570312 543.808594 301.382812 539.371094 307.191406 C 539.273438 307.3125 539.179688 307.433594 539.105469 307.554688 C 534.0625 304.890625 529.234375 301.769531 524.722656 298.40625 C 521.8125 296.230469 518.953125 293.933594 515.992188 291.707031 C 513.058594 289.480469 510.027344 287.304688 506.800781 285.414062 C 503.746094 283.625 500.542969 282.199219 497.269531 281.207031 C 493.996094 280.214844 490.625 279.683594 487.207031 279.683594 C 483.90625 279.683594 480.5625 280.191406 477.191406 281.253906 C 469.867188 283.578125 463.125 287.8125 457.59375 293.277344 C 452.066406 298.746094 447.746094 305.425781 445.273438 312.683594 C 444.472656 315.027344 443.867188 317.640625 443.867188 320.253906 C 443.867188 321.511719 444.011719 322.792969 444.351562 324.003906 C 444.691406 325.238281 445.25 326.398438 446.074219 327.464844 C 446.292969 327.753906 446.535156 328.042969 446.777344 328.3125 C 446.21875 329.085938 445.6875 329.835938 445.175781 330.511719 C 442.242188 334.578125 439.625 339.078125 437.757812 343.84375 C 435.863281 348.609375 434.722656 353.664062 434.722656 358.820312 C 434.722656 361.480469 435.039062 364.140625 435.71875 366.804688 C 436.542969 370.09375 437.851562 373.070312 439.550781 375.683594 C 442.097656 379.625 445.515625 382.792969 449.492188 385.140625 C 453.472656 387.511719 458.03125 389.085938 462.855469 389.882812 C 465.839844 390.367188 468.824219 390.585938 471.804688 390.585938 C 475.199219 390.585938 478.597656 390.320312 481.992188 389.933594 C 487.496094 389.304688 492.785156 387.925781 498.023438 386.714844 C 503.261719 385.503906 508.425781 384.488281 513.738281 384.488281 C 514.441406 384.488281 515.144531 384.511719 515.847656 384.535156 C 519.023438 384.707031 522.152344 384.875 525.257812 385.117188 C 525.5 387.414062 526.082031 389.691406 526.882812 391.914062 C 528.554688 396.511719 531.222656 400.867188 534.328125 404.761719 C 537.433594 408.65625 540.925781 412.042969 544.269531 414.683594 C 547.253906 417.027344 550.332031 419.230469 553.316406 421.480469 C 556.300781 423.730469 559.160156 426.054688 561.730469 428.664062 C 565.128906 432.101562 567.457031 435.828125 568.960938 439.84375 C 570.464844 443.859375 571.140625 448.164062 571.140625 452.738281 C 571.140625 454.335938 571.070312 455.980469 570.898438 457.648438 C 570.679688 460.042969 569.855469 462.898438 568.523438 465.996094 C 568.257812 466.625 568.546875 467.351562 569.175781 467.617188 C 569.808594 467.882812 570.535156 467.59375 570.800781 466.964844 C 572.210938 463.699219 573.105469 460.625 573.375 457.867188 C 573.542969 456.125 573.617188 454.40625 573.617188 452.714844 C 573.617188 447.898438 572.914062 443.277344 571.289062 438.949219 C 569.664062 434.617188 567.117188 430.578125 563.503906 426.898438 C 560.8125 424.164062 557.828125 421.769531 554.820312 419.496094 C 551.789062 417.222656 548.707031 415.042969 545.796875 412.722656 C 541.554688 409.382812 536.945312 404.640625 533.453125 399.34375 C 531.707031 396.683594 530.230469 393.898438 529.210938 391.042969 C 528.507812 389.132812 528.023438 387.222656 527.78125 385.3125 C 529.648438 385.503906 531.515625 385.746094 533.332031 386.035156 C 538.960938 386.957031 544.34375 388.527344 549.316406 391.335938 C 555.085938 394.601562 560.90625 398.328125 567.019531 401.328125 C 570.074219 402.828125 573.203125 404.132812 576.429688 405.101562 C 579.65625 406.070312 583 406.699219 586.46875 406.792969 C 586.808594 406.792969 587.171875 406.820312 587.511719 406.820312 C 590.035156 406.820312 592.628906 406.503906 595.078125 405.804688 C 597.527344 405.078125 599.878906 403.964844 601.917969 402.34375 C 604.246094 400.480469 605.992188 398.0625 607.132812 395.398438 C 608.273438 392.738281 608.855469 389.785156 608.855469 386.859375 C 608.855469 383.835938 608.246094 380.785156 607.058594 378.003906 C 605.3125 373.941406 602.5 370.503906 599.128906 367.746094 C 595.757812 364.988281 591.804688 362.882812 587.683594 361.503906 C 585.570312 360.804688 583.414062 360.535156 581.253906 360.535156 C 577.933594 360.535156 574.609375 361.140625 571.335938 361.792969 C 568.0625 362.425781 564.859375 363.078125 561.828125 363.222656 C 561.101562 363.246094 560.351562 363.269531 559.597656 363.269531 C 557.804688 363.269531 555.886719 363.199219 553.945312 363.125 C 551.984375 363.054688 549.96875 362.957031 547.980469 362.957031 C 544.488281 362.957031 540.996094 363.199219 537.796875 364.140625 C 536.195312 364.625 534.667969 365.277344 533.261719 366.175781 C 531.855469 367.070312 530.59375 368.230469 529.5 369.65625 C 527.972656 371.691406 526.882812 373.792969 526.179688 375.972656 C 525.476562 378.125 525.160156 380.351562 525.160156 382.554688 C 525.160156 382.578125 525.160156 382.625 525.160156 382.648438 C 522.128906 382.40625 519.074219 382.238281 516.015625 382.09375 C 515.265625 382.042969 514.511719 382.042969 513.761719 382.042969 C 508.136719 382.042969 502.777344 383.132812 497.511719 384.34375 C 492.226562 385.554688 487.035156 386.90625 481.773438 387.511719 C 478.449219 387.898438 475.152344 388.140625 471.878906 388.140625 C 469.015625 388.140625 466.179688 387.949219 463.339844 387.488281 C 457.253906 386.496094 451.726562 384.175781 447.359375 380.640625 C 445.175781 378.875 443.261719 376.769531 441.707031 374.375 C 440.15625 371.980469 438.96875 369.269531 438.191406 366.222656 C 437.5625 363.777344 437.296875 361.3125 437.296875 358.84375 C 437.296875 354.078125 438.363281 349.3125 440.15625 344.761719 C 441.953125 340.214844 444.449219 335.882812 447.285156 331.964844 C 447.746094 331.335938 448.234375 330.65625 448.71875 329.980469 C 448.742188 329.980469 448.742188 330.003906 448.765625 330.003906 C 450.222656 331.070312 451.847656 331.792969 453.59375 332.277344 C 455.339844 332.761719 457.183594 332.957031 459.050781 332.957031 C 462.785156 332.957031 466.664062 332.132812 470.132812 330.804688 C 471.878906 330.125 473.503906 329.351562 474.984375 328.457031 C 476.460938 327.5625 477.773438 326.570312 478.863281 325.527344 C 480.050781 324.367188 480.996094 323.011719 481.652344 321.585938 C 482.308594 320.15625 482.671875 318.632812 482.671875 317.109375 C 482.671875 316.261719 482.550781 315.414062 482.308594 314.617188 C 481.917969 313.40625 481.238281 312.269531 480.222656 311.351562 C 479.203125 310.433594 477.894531 309.730469 476.269531 309.320312 C 474.933594 308.957031 473.625 308.8125 472.339844 308.8125 C 470.8125 308.8125 469.332031 309.027344 467.902344 309.441406 C 465.402344 310.164062 463.050781 311.425781 460.84375 313.019531 C 457.546875 315.414062 454.585938 318.511719 451.992188 321.65625 C 450.707031 323.230469 449.492188 324.777344 448.378906 326.277344 C 448.304688 326.183594 448.234375 326.085938 448.160156 325.988281 C 447.554688 325.191406 447.117188 324.292969 446.851562 323.328125 C 446.582031 322.359375 446.4375 321.320312 446.4375 320.253906 C 446.4375 318.054688 446.972656 315.65625 447.699219 313.480469 C 450.027344 306.632812 454.148438 300.246094 459.414062 295.042969 C 464.675781 289.84375 471.101562 285.804688 478.039062 283.625 C 481.144531 282.632812 484.246094 282.175781 487.300781 282.175781 C 490.457031 282.175781 493.582031 282.65625 496.664062 283.578125 C 499.71875 284.496094 502.726562 285.851562 505.660156 287.542969 C 508.765625 289.359375 511.699219 291.464844 514.609375 293.664062 C 517.519531 295.867188 520.382812 298.164062 523.339844 300.390625 C 527.851562 303.753906 532.703125 306.898438 537.746094 309.585938 C 534.835938 313.84375 532.484375 318.5625 530.761719 323.519531 C 528.75 323.375 526.738281 323.304688 524.722656 323.304688 C 517.035156 323.304688 509.347656 324.390625 502.023438 326.59375 C 494.699219 328.792969 487.714844 332.132812 481.507812 336.65625 C 479.421875 338.15625 477.382812 339.875 475.636719 341.882812 C 474.765625 342.875 473.988281 343.941406 473.308594 345.101562 C 472.628906 346.238281 472.097656 347.472656 471.707031 348.777344 C 471.296875 350.15625 471.125 351.535156 471.125 352.914062 C 471.125 354.777344 471.464844 356.617188 472.074219 358.359375 C 472.992188 360.972656 474.523438 363.414062 476.460938 365.472656 C 478.402344 367.527344 480.753906 369.199219 483.375 370.3125 C 486.574219 371.640625 489.96875 372.222656 493.367188 372.222656 C 498.628906 372.222656 503.890625 370.84375 508.667969 368.761719 C 511.75 367.40625 514.730469 365.714844 517.421875 363.609375 C 520.117188 361.527344 522.492188 359.035156 524.3125 356.132812 C 525.695312 353.90625 526.710938 351.585938 527.488281 349.214844 C 528.652344 345.632812 529.308594 341.957031 529.914062 338.304688 C 530.519531 334.648438 531.101562 331.042969 532.070312 327.65625 C 532.21875 327.175781 532.363281 326.691406 532.507812 326.183594 C 540.292969 326.957031 547.59375 328.867188 554.601562 331.601562 C 565.371094 335.8125 575.386719 341.933594 585.136719 348.683594 C 594.882812 355.433594 604.34375 362.785156 613.996094 369.441406 C 617.316406 371.738281 621.027344 373.988281 624.933594 375.683594 C 626.898438 376.527344 628.910156 377.230469 630.996094 377.738281 C 633.058594 378.246094 635.167969 378.511719 637.324219 378.511719 C 639.847656 378.511719 642.417969 378.101562 644.941406 377.207031 C 647.050781 376.457031 648.871094 375.292969 650.421875 373.890625 C 652.726562 371.761719 654.398438 369.078125 655.5625 366.175781 C 656.726562 363.269531 657.40625 360.199219 657.699219 357.222656 C 657.890625 355.214844 658.011719 353.183594 658.011719 351.175781 C 657.914062 343.3125 656.410156 335.519531 653.550781 328.3125 Z M 401.183594 321.390625 C 403.195312 319.867188 405.671875 318.707031 408.675781 318.027344 C 409.671875 317.8125 410.714844 317.691406 411.757812 317.691406 C 413.382812 317.691406 415.007812 317.957031 416.488281 318.511719 C 417.964844 319.070312 419.300781 319.914062 420.367188 321.027344 C 421.238281 321.949219 421.945312 323.0625 422.402344 324.269531 C 422.890625 325.480469 423.132812 326.785156 423.132812 328.042969 C 423.132812 329.328125 422.890625 330.5625 422.355469 331.648438 C 421.847656 332.761719 421.070312 333.730469 419.980469 334.503906 C 419.226562 335.035156 418.402344 335.449219 417.53125 335.691406 C 416.65625 335.957031 415.710938 336.078125 414.742188 336.078125 C 412.777344 336.078125 410.691406 335.542969 408.847656 334.625 C 407.003906 333.707031 405.402344 332.398438 404.335938 330.925781 C 402.421875 328.261719 400.964844 325.359375 399.972656 322.335938 C 400.359375 322.042969 400.746094 321.730469 401.183594 321.390625 Z M 437.222656 265.019531 C 437.320312 265.019531 437.390625 265.019531 437.488281 265.019531 C 439.839844 265.019531 442.289062 265.527344 444.375 266.546875 C 445.417969 267.054688 446.390625 267.683594 447.214844 268.40625 C 448.039062 269.15625 448.742188 270.003906 449.277344 270.972656 C 449.90625 272.085938 450.246094 273.414062 450.246094 274.675781 C 450.246094 275.277344 450.171875 275.882812 450.003906 276.441406 C 449.832031 276.996094 449.566406 277.503906 449.226562 277.941406 C 448.742188 278.570312 448.085938 279.054688 447.335938 279.441406 C 446.582031 279.804688 445.710938 280.046875 444.835938 280.140625 C 444.496094 280.191406 444.183594 280.191406 443.84375 280.191406 C 442.363281 280.191406 440.859375 279.828125 439.527344 279.148438 C 438.191406 278.472656 437.003906 277.503906 436.132812 276.296875 C 435.378906 275.277344 434.871094 274.261719 434.53125 273.246094 C 434.191406 272.230469 434.046875 271.238281 434.046875 270.222656 C 434.046875 269.0625 434.238281 267.898438 434.628906 266.714844 C 434.796875 266.183594 435.015625 265.648438 435.257812 265.09375 C 435.886719 265.070312 436.542969 265.019531 437.222656 265.019531 Z M 510.464844 244.769531 C 512.210938 245.738281 513.835938 246.996094 515.121094 248.496094 C 515.75 249.246094 516.308594 250.046875 516.746094 250.890625 C 517.179688 251.738281 517.496094 252.609375 517.691406 253.554688 C 517.8125 254.132812 517.859375 254.738281 517.859375 255.34375 C 517.859375 257.15625 517.328125 259.019531 516.355469 260.617188 C 515.410156 262.214844 514.027344 263.546875 512.402344 264.34375 C 511.070312 264.996094 509.589844 265.335938 508.0625 265.335938 C 506.65625 265.335938 505.226562 265.046875 503.941406 264.511719 C 502.628906 263.980469 501.464844 263.183594 500.519531 262.164062 C 499.453125 261.003906 498.726562 259.890625 498.265625 258.851562 C 497.804688 257.8125 497.609375 256.820312 497.609375 255.851562 C 497.609375 255.054688 497.753906 254.277344 497.996094 253.503906 C 498.457031 252.148438 499.308594 250.820312 500.449219 249.5625 C 502.144531 247.675781 504.472656 245.933594 506.945312 244.503906 C 507.433594 244.238281 507.917969 243.972656 508.378906 243.707031 C 509.105469 244.046875 509.785156 244.382812 510.464844 244.769531 Z M 579.460938 261.320312 C 580.382812 263.425781 580.890625 265.503906 580.890625 267.511719 C 580.890625 269.109375 580.574219 270.65625 579.898438 272.183594 C 579.195312 273.707031 578.125 275.207031 576.550781 276.683594 C 575.53125 277.625 574.34375 278.328125 573.082031 278.785156 C 571.820312 279.246094 570.488281 279.488281 569.175781 279.488281 C 567.988281 279.488281 566.824219 279.296875 565.757812 278.933594 C 564.957031 278.664062 564.207031 278.304688 563.527344 277.84375 C 562.507812 277.164062 561.683594 276.296875 561.101562 275.230469 C 560.519531 274.164062 560.179688 272.90625 560.179688 271.40625 C 560.179688 270.875 560.230469 270.296875 560.324219 269.691406 C 560.617188 267.925781 561.394531 266.253906 562.507812 264.804688 C 563.625 263.351562 565.078125 262.117188 566.703125 261.222656 C 569.421875 259.746094 572.28125 258.65625 575.214844 257.980469 C 575.945312 257.8125 576.671875 257.664062 577.421875 257.519531 C 578.222656 258.804688 578.925781 260.0625 579.460938 261.320312 Z M 633.980469 310.890625 C 633.785156 312.730469 633.25 314.59375 632.449219 316.359375 C 631.238281 318.996094 629.371094 321.367188 627.164062 323.035156 C 626.074219 323.882812 624.882812 324.5625 623.648438 325.019531 C 622.410156 325.480469 621.125 325.722656 619.816406 325.722656 C 618.84375 325.722656 617.851562 325.578125 616.855469 325.285156 C 615.863281 324.996094 614.820312 324.535156 613.800781 323.90625 C 612.175781 322.890625 610.941406 321.535156 610.089844 319.964844 C 609.242188 318.390625 608.804688 316.625 608.804688 314.835938 C 608.804688 313.042969 609.242188 311.230469 610.140625 309.5625 C 610.816406 308.304688 611.59375 307.238281 612.441406 306.367188 C 613.703125 305.0625 615.085938 304.164062 616.613281 303.585938 C 618.117188 303.003906 619.742188 302.738281 621.464844 302.738281 C 622.992188 302.738281 624.59375 302.957031 626.195312 303.367188 C 628.59375 303.972656 630.996094 305.011719 633.203125 306.292969 C 633.566406 306.511719 633.90625 306.730469 634.246094 306.949219 C 634.195312 308.253906 634.101562 309.5625 633.980469 310.890625 Z M 527.585938 382.527344 C 527.585938 380.570312 527.875 378.609375 528.484375 376.722656 C 529.113281 374.8125 530.058594 372.949219 531.441406 371.132812 C 532.339844 369.925781 533.40625 368.980469 534.570312 368.230469 C 536.339844 367.09375 538.402344 366.390625 540.65625 365.957031 C 542.9375 365.519531 545.410156 365.398438 547.933594 365.398438 C 549.871094 365.398438 551.863281 365.472656 553.800781 365.542969 C 555.765625 365.617188 557.707031 365.714844 559.550781 365.714844 C 560.351562 365.714844 561.125 365.691406 561.902344 365.664062 C 565.199219 365.519531 568.5 364.820312 571.75 364.191406 C 574.996094 363.5625 578.175781 362.980469 581.183594 362.980469 C 583.148438 362.980469 585.015625 363.222656 586.832031 363.828125 C 590.6875 365.132812 594.375 367.09375 597.480469 369.65625 C 600.582031 372.222656 603.128906 375.34375 604.707031 378.996094 C 605.773438 381.441406 606.308594 384.175781 606.308594 386.882812 C 606.308594 389.496094 605.796875 392.109375 604.804688 394.457031 C 603.808594 396.804688 602.304688 398.859375 600.316406 400.457031 C 598.570312 401.859375 596.535156 402.828125 594.328125 403.480469 C 592.144531 404.109375 589.792969 404.398438 587.464844 404.398438 C 587.148438 404.398438 586.808594 404.398438 586.492188 404.375 C 583.269531 404.277344 580.164062 403.699219 577.082031 402.777344 C 572.5 401.398438 568.039062 399.269531 563.625 396.851562 C 559.210938 394.433594 554.867188 391.722656 550.480469 389.253906 C 545.191406 386.253906 539.515625 384.632812 533.695312 383.664062 C 531.660156 383.328125 529.597656 383.085938 527.535156 382.867188 C 527.585938 382.722656 527.585938 382.625 527.585938 382.527344 Z M 452.066406 325.359375 C 454.78125 321.875 457.933594 318.292969 461.351562 315.609375 C 463.074219 314.277344 464.84375 313.164062 466.664062 312.414062 C 468.484375 311.640625 470.351562 311.230469 472.242188 311.230469 C 473.308594 311.230469 474.402344 311.375 475.515625 311.664062 C 476.363281 311.882812 477.09375 312.199219 477.648438 312.5625 C 478.523438 313.117188 479.105469 313.769531 479.492188 314.519531 C 479.882812 315.269531 480.074219 316.140625 480.074219 317.0625 C 480.074219 318.148438 479.808594 319.359375 479.273438 320.496094 C 478.742188 321.65625 477.964844 322.769531 477.019531 323.714844 C 476.097656 324.609375 474.957031 325.480469 473.601562 326.304688 C 471.585938 327.511719 469.1875 328.554688 466.664062 329.304688 C 464.140625 330.027344 461.472656 330.464844 458.953125 330.464844 C 456.695312 330.464844 454.539062 330.125 452.695312 329.398438 C 451.773438 329.035156 450.902344 328.578125 450.125 327.996094 C 450.101562 327.996094 450.101562 327.972656 450.074219 327.949219 C 450.730469 327.101562 451.386719 326.230469 452.066406 325.359375 Z M 545.96875 303.464844 C 549.265625 300.246094 552.976562 297.535156 557.125 295.480469 C 561.246094 293.425781 565.78125 292.042969 570.65625 291.464844 C 571.941406 291.320312 573.277344 291.222656 574.585938 291.222656 C 576.476562 291.222656 578.34375 291.390625 580.113281 291.804688 C 581.886719 292.214844 583.582031 292.867188 585.136719 293.785156 C 586.882812 294.828125 588.410156 296.351562 589.5 298.09375 C 590.035156 298.964844 590.472656 299.882812 590.761719 300.828125 C 591.054688 301.769531 591.199219 302.738281 591.199219 303.707031 C 591.199219 304.359375 591.125 305.011719 590.980469 305.664062 C 590.640625 307.09375 589.984375 308.351562 589.089844 309.464844 C 588.410156 310.285156 587.585938 311.0625 586.664062 311.714844 C 585.28125 312.730469 583.632812 313.527344 581.886719 314.15625 C 580.140625 314.785156 578.296875 315.222656 576.5 315.464844 C 574.246094 315.777344 572.015625 315.925781 569.757812 315.925781 C 561.757812 315.925781 553.800781 313.988281 546.1875 310.820312 C 544.5625 310.140625 542.9375 309.390625 541.335938 308.617188 C 542.765625 306.828125 544.320312 305.085938 545.96875 303.464844 Z M 529.597656 326.882812 C 528.238281 331.675781 527.65625 336.632812 526.761719 341.398438 C 526.300781 343.769531 525.789062 346.117188 525.0625 348.34375 C 524.335938 350.570312 523.390625 352.722656 522.128906 354.730469 C 520.480469 357.367188 518.296875 359.640625 515.800781 361.578125 C 513.300781 363.511719 510.488281 365.109375 507.554688 366.414062 C 503.042969 368.398438 498.070312 369.683594 493.246094 369.683594 C 490.117188 369.683594 487.058594 369.148438 484.222656 367.964844 C 481.214844 366.707031 478.5 364.480469 476.558594 361.792969 C 475.589844 360.441406 474.8125 358.988281 474.28125 357.488281 C 473.746094 355.988281 473.453125 354.414062 473.453125 352.867188 C 473.453125 351.707031 473.625 350.542969 473.941406 349.40625 C 474.253906 348.320312 474.738281 347.277344 475.296875 346.285156 C 476.171875 344.8125 477.3125 343.433594 478.597656 342.148438 C 479.882812 340.867188 481.335938 339.707031 482.816406 338.617188 C 488.78125 334.261719 495.5 331.042969 502.605469 328.914062 C 509.6875 326.785156 517.15625 325.722656 524.601562 325.746094 C 526.347656 325.746094 528.09375 325.796875 529.839844 325.914062 C 529.792969 326.230469 529.695312 326.542969 529.597656 326.882812 Z M 529.597656 326.882812 " fill-opacity="1" fill-rule="nonzero"/></g><g mask="url(#id3)"><g transform="matrix(1, 0, 0, 1, 91, 412)"><g clip-path="url(#id4)"><path stroke-linecap="butt" transform="matrix(3.779741, 0, 0, 3.7783, 4.294647, 4.460087)" fill="none" stroke-linejoin="miter" d="M -0.000444053 0.000225118 L 163.93896 0.000225118 " stroke="rgb(100%, 100%, 100%)" stroke-width="1" stroke-opacity="1" stroke-miterlimit="4"/></g></g></g></svg>