<svg xmlns="http://www.w3.org/2000/svg" xmlns:xlink="http://www.w3.org/1999/xlink" width="1080" zoomAndPan="magnify" viewBox="0 0 810 809.999993" height="1080" preserveAspectRatio="xMidYMid meet" version="1.0"><defs><g/></defs><path fill="rgb(100%, 100%, 100%)" d="M 134.316406 134.320312 L 134.316406 675.820312 L 675.816406 675.820312 L 675.816406 134.320312 L 134.316406 134.320312 M 658.570312 658.570312 L 151.207031 658.570312 L 151.207031 151.207031 L 658.570312 151.207031 L 658.570312 658.570312 " fill-opacity="1" fill-rule="nonzero"/><g fill="rgb(100%, 100%, 100%)" fill-opacity="1"><g transform="translate(178.884194, 505.164369)"><g><path d="M 119.453125 4.875 C 86.742188 4.875 61.25 -3.957031 42.96875 -21.625 C 24.6875 -39.300781 15.546875 -64.085938 15.546875 -95.984375 L 15.546875 -213.3125 L 87.453125 -213.3125 L 87.453125 -98.125 C 87.453125 -82.476562 90.242188 -71.097656 95.828125 -63.984375 C 101.421875 -56.878906 109.5 -53.328125 120.0625 -53.328125 C 130.625 -53.328125 138.695312 -56.878906 144.28125 -63.984375 C 149.875 -71.097656 152.671875 -82.476562 152.671875 -98.125 L 152.671875 -213.3125 L 223.375 -213.3125 L 223.375 -95.984375 C 223.375 -64.085938 214.226562 -39.300781 195.9375 -21.625 C 177.65625 -3.957031 152.160156 4.875 119.453125 4.875 Z M 119.453125 4.875 "/></g></g></g><g fill="rgb(100%, 100%, 100%)" fill-opacity="1"><g transform="translate(417.794064, 505.164369)"><g><path d="M 126.46875 -169.734375 C 141.09375 -169.734375 154.550781 -166.226562 166.84375 -159.21875 C 179.132812 -152.207031 188.882812 -142.097656 196.09375 -128.890625 C 203.3125 -115.691406 206.921875 -100.457031 206.921875 -83.1875 C 206.921875 -65.925781 203.3125 -50.742188 196.09375 -37.640625 C 188.882812 -24.535156 179.132812 -14.476562 166.84375 -7.46875 C 154.550781 -0.457031 141.09375 3.046875 126.46875 3.046875 C 107.976562 3.046875 93.859375 -1.726562 84.109375 -11.28125 L 84.109375 59.125 L 15.234375 59.125 L 15.234375 -166.6875 L 80.75 -166.6875 L 80.75 -152.984375 C 90.707031 -164.148438 105.945312 -169.734375 126.46875 -169.734375 Z M 110.015625 -50.578125 C 117.929688 -50.578125 124.425781 -53.421875 129.5 -59.109375 C 134.582031 -64.804688 137.125 -72.832031 137.125 -83.1875 C 137.125 -93.550781 134.582031 -101.628906 129.5 -107.421875 C 124.425781 -113.210938 117.929688 -116.109375 110.015625 -116.109375 C 102.085938 -116.109375 95.582031 -113.210938 90.5 -107.421875 C 85.425781 -101.628906 82.890625 -93.550781 82.890625 -83.1875 C 82.890625 -72.832031 85.425781 -64.804688 90.5 -59.109375 C 95.582031 -53.421875 102.085938 -50.578125 110.015625 -50.578125 Z M 110.015625 -50.578125 "/></g></g></g><g fill="rgb(100%, 100%, 100%)" fill-opacity="1"><g transform="translate(192.581126, 569.589375)"><g><path d="M 25.75 -33.34375 C 29.78125 -33.34375 33.019531 -32.125 35.46875 -29.6875 C 37.925781 -27.257812 39.15625 -23.59375 39.15625 -18.6875 L 39.15625 0 L 25.625 0 L 25.625 -16.34375 C 25.625 -20.09375 24.285156 -21.96875 21.609375 -21.96875 C 20.097656 -21.96875 18.875 -21.4375 17.9375 -20.375 C 17 -19.320312 16.53125 -17.660156 16.53125 -15.390625 L 16.53125 0 L 3 0 L 3 -44.421875 L 16.53125 -44.421875 L 16.53125 -30.109375 C 19.039062 -32.265625 22.113281 -33.34375 25.75 -33.34375 Z M 25.75 -33.34375 "/></g></g></g><g fill="rgb(100%, 100%, 100%)" fill-opacity="1"><g transform="translate(254.551315, 569.589375)"><g><path d="M 37.84375 -16.40625 C 37.84375 -16.207031 37.78125 -15.148438 37.65625 -13.234375 L 14.90625 -13.234375 C 15.382812 -11.992188 16.179688 -11.046875 17.296875 -10.390625 C 18.421875 -9.734375 19.820312 -9.40625 21.5 -9.40625 C 22.9375 -9.40625 24.140625 -9.582031 25.109375 -9.9375 C 26.085938 -10.300781 27.160156 -10.921875 28.328125 -11.796875 L 35.390625 -4.671875 C 32.191406 -1.160156 27.421875 0.59375 21.078125 0.59375 C 17.117188 0.59375 13.644531 -0.128906 10.65625 -1.578125 C 7.664062 -3.035156 5.347656 -5.0625 3.703125 -7.65625 C 2.066406 -10.257812 1.25 -13.175781 1.25 -16.40625 C 1.25 -19.675781 2.054688 -22.597656 3.671875 -25.171875 C 5.296875 -27.753906 7.515625 -29.757812 10.328125 -31.1875 C 13.140625 -32.625 16.300781 -33.34375 19.8125 -33.34375 C 23.125 -33.34375 26.144531 -32.6875 28.875 -31.375 C 31.613281 -30.0625 33.789062 -28.125 35.40625 -25.5625 C 37.03125 -23.007812 37.84375 -19.957031 37.84375 -16.40625 Z M 19.9375 -24.125 C 18.539062 -24.125 17.382812 -23.742188 16.46875 -22.984375 C 15.550781 -22.234375 14.953125 -21.160156 14.671875 -19.765625 L 25.203125 -19.765625 C 24.921875 -21.117188 24.320312 -22.179688 23.40625 -22.953125 C 22.488281 -23.734375 21.332031 -24.125 19.9375 -24.125 Z M 19.9375 -24.125 "/></g></g></g><g fill="rgb(100%, 100%, 100%)" fill-opacity="1"><g transform="translate(313.587822, 569.589375)"><g><path d="M 17.65625 -33.34375 C 23.40625 -33.34375 27.796875 -32.054688 30.828125 -29.484375 C 33.867188 -26.910156 35.390625 -22.953125 35.390625 -17.609375 L 35.390625 0 L 22.8125 0 L 22.8125 -4.3125 C 21.257812 -1.039062 18.164062 0.59375 13.53125 0.59375 C 10.9375 0.59375 8.726562 0.144531 6.90625 -0.75 C 5.09375 -1.644531 3.71875 -2.859375 2.78125 -4.390625 C 1.84375 -5.929688 1.375 -7.660156 1.375 -9.578125 C 1.375 -12.816406 2.609375 -15.269531 5.078125 -16.9375 C 7.554688 -18.613281 11.3125 -19.453125 16.34375 -19.453125 L 21.796875 -19.453125 C 21.359375 -22.015625 19.300781 -23.296875 15.625 -23.296875 C 14.144531 -23.296875 12.644531 -23.066406 11.125 -22.609375 C 9.613281 -22.148438 8.320312 -21.519531 7.25 -20.71875 L 2.9375 -29.640625 C 4.8125 -30.796875 7.078125 -31.703125 9.734375 -32.359375 C 12.390625 -33.015625 15.03125 -33.34375 17.65625 -33.34375 Z M 17.609375 -7.546875 C 18.566406 -7.546875 19.421875 -7.800781 20.171875 -8.3125 C 20.929688 -8.832031 21.492188 -9.613281 21.859375 -10.65625 L 21.859375 -12.9375 L 18.5 -12.9375 C 15.75 -12.9375 14.375 -12.015625 14.375 -10.171875 C 14.375 -9.421875 14.660156 -8.796875 15.234375 -8.296875 C 15.816406 -7.796875 16.609375 -7.546875 17.609375 -7.546875 Z M 17.609375 -7.546875 "/></g></g></g><g fill="rgb(100%, 100%, 100%)" fill-opacity="1"><g transform="translate(371.78613, 569.589375)"><g><path d="M 3 -44.421875 L 16.53125 -44.421875 L 16.53125 0 L 3 0 Z M 3 -44.421875 "/></g></g></g></svg>