<svg xmlns="http://www.w3.org/2000/svg" xmlns:xlink="http://www.w3.org/1999/xlink" width="1080" zoomAndPan="magnify" viewBox="0 0 810 809.999993" height="1080" preserveAspectRatio="xMidYMid meet" version="1.0"><defs><g/><clipPath id="id1"><path d="M 91.359375 382 L 144 382 L 144 387 L 91.359375 387 Z M 91.359375 382 " clip-rule="nonzero"/></clipPath><clipPath id="id2"><path d="M 283 534 L 287 534 L 287 566.566406 L 283 566.566406 Z M 283 534 " clip-rule="nonzero"/></clipPath><clipPath id="id3"><path d="M 283 202.589844 L 287 202.589844 L 287 235 L 283 235 Z M 283 202.589844 " clip-rule="nonzero"/></clipPath></defs><g fill="rgb(0%, 45.878601%, 100%)" fill-opacity="0.302"><g transform="translate(200.897571, 466.465515)"><g><path d="M 83.34375 0.625 C 65.425781 0.625 51.5 -4.617188 41.5625 -15.109375 C 31.625 -25.609375 26.65625 -41.078125 26.65625 -61.515625 L 26.65625 -146.953125 L 30.859375 -146.953125 L 30.859375 -61.71875 C 30.859375 -42.40625 35.367188 -27.847656 44.390625 -18.046875 C 53.421875 -8.253906 66.40625 -3.359375 83.34375 -3.359375 C 100.28125 -3.359375 113.257812 -8.253906 122.28125 -18.046875 C 131.3125 -27.847656 135.828125 -42.40625 135.828125 -61.71875 L 135.828125 -146.953125 L 140.03125 -146.953125 L 140.03125 -61.515625 C 140.03125 -41.078125 135.0625 -25.609375 125.125 -15.109375 C 115.1875 -4.617188 101.257812 0.625 83.34375 0.625 Z M 83.34375 0.625 "/></g></g></g><g fill="rgb(0%, 45.878601%, 100%)" fill-opacity="0.302"><g transform="translate(367.586298, 466.465515)"><g><path d="M 76.84375 -109.171875 C 86.632812 -109.171875 95.550781 -106.828125 103.59375 -102.140625 C 111.644531 -97.453125 117.976562 -90.90625 122.59375 -82.5 C 127.21875 -74.101562 129.53125 -64.65625 129.53125 -54.15625 C 129.53125 -43.664062 127.21875 -34.253906 122.59375 -25.921875 C 117.976562 -17.597656 111.644531 -11.09375 103.59375 -6.40625 C 95.550781 -1.71875 86.632812 0.625 76.84375 0.625 C 65.644531 0.625 55.671875 -2.414062 46.921875 -8.5 C 38.171875 -14.59375 31.976562 -22.742188 28.34375 -32.953125 L 28.34375 40.734375 L 24.140625 40.734375 L 24.140625 -108.53125 L 28.34375 -108.53125 L 28.34375 -75.375 C 31.976562 -85.726562 38.132812 -93.945312 46.8125 -100.03125 C 55.488281 -106.125 65.5 -109.171875 76.84375 -109.171875 Z M 76.84375 -3.359375 C 85.9375 -3.359375 94.191406 -5.492188 101.609375 -9.765625 C 109.023438 -14.035156 114.832031 -20.050781 119.03125 -27.8125 C 123.226562 -35.582031 125.328125 -44.363281 125.328125 -54.15625 C 125.328125 -63.957031 123.226562 -72.738281 119.03125 -80.5 C 114.832031 -88.269531 109.023438 -94.320312 101.609375 -98.65625 C 94.191406 -103 85.9375 -105.171875 76.84375 -105.171875 C 67.738281 -105.171875 59.476562 -103 52.0625 -98.65625 C 44.644531 -94.320312 38.835938 -88.269531 34.640625 -80.5 C 30.441406 -72.738281 28.34375 -63.957031 28.34375 -54.15625 C 28.34375 -44.363281 30.441406 -35.582031 34.640625 -27.8125 C 38.835938 -20.050781 44.644531 -14.035156 52.0625 -9.765625 C 59.476562 -5.492188 67.738281 -3.359375 76.84375 -3.359375 Z M 76.84375 -3.359375 "/></g></g></g><g fill="rgb(0%, 45.878601%, 100%)" fill-opacity="0.502"><g transform="translate(203.934017, 462.84681)"><g><path d="M 83.34375 0.625 C 65.425781 0.625 51.5 -4.617188 41.5625 -15.109375 C 31.625 -25.609375 26.65625 -41.078125 26.65625 -61.515625 L 26.65625 -146.953125 L 30.859375 -146.953125 L 30.859375 -61.71875 C 30.859375 -42.40625 35.367188 -27.847656 44.390625 -18.046875 C 53.421875 -8.253906 66.40625 -3.359375 83.34375 -3.359375 C 100.28125 -3.359375 113.257812 -8.253906 122.28125 -18.046875 C 131.3125 -27.847656 135.828125 -42.40625 135.828125 -61.71875 L 135.828125 -146.953125 L 140.03125 -146.953125 L 140.03125 -61.515625 C 140.03125 -41.078125 135.0625 -25.609375 125.125 -15.109375 C 115.1875 -4.617188 101.257812 0.625 83.34375 0.625 Z M 83.34375 0.625 "/></g></g></g><g fill="rgb(0%, 45.878601%, 100%)" fill-opacity="0.502"><g transform="translate(370.622744, 462.84681)"><g><path d="M 76.84375 -109.171875 C 86.632812 -109.171875 95.550781 -106.828125 103.59375 -102.140625 C 111.644531 -97.453125 117.976562 -90.90625 122.59375 -82.5 C 127.21875 -74.101562 129.53125 -64.65625 129.53125 -54.15625 C 129.53125 -43.664062 127.21875 -34.253906 122.59375 -25.921875 C 117.976562 -17.597656 111.644531 -11.09375 103.59375 -6.40625 C 95.550781 -1.71875 86.632812 0.625 76.84375 0.625 C 65.644531 0.625 55.671875 -2.414062 46.921875 -8.5 C 38.171875 -14.59375 31.976562 -22.742188 28.34375 -32.953125 L 28.34375 40.734375 L 24.140625 40.734375 L 24.140625 -108.53125 L 28.34375 -108.53125 L 28.34375 -75.375 C 31.976562 -85.726562 38.132812 -93.945312 46.8125 -100.03125 C 55.488281 -106.125 65.5 -109.171875 76.84375 -109.171875 Z M 76.84375 -3.359375 C 85.9375 -3.359375 94.191406 -5.492188 101.609375 -9.765625 C 109.023438 -14.035156 114.832031 -20.050781 119.03125 -27.8125 C 123.226562 -35.582031 125.328125 -44.363281 125.328125 -54.15625 C 125.328125 -63.957031 123.226562 -72.738281 119.03125 -80.5 C 114.832031 -88.269531 109.023438 -94.320312 101.609375 -98.65625 C 94.191406 -103 85.9375 -105.171875 76.84375 -105.171875 C 67.738281 -105.171875 59.476562 -103 52.0625 -98.65625 C 44.644531 -94.320312 38.835938 -88.269531 34.640625 -80.5 C 30.441406 -72.738281 28.34375 -63.957031 28.34375 -54.15625 C 28.34375 -44.363281 30.441406 -35.582031 34.640625 -27.8125 C 38.835938 -20.050781 44.644531 -14.035156 52.0625 -9.765625 C 59.476562 -5.492188 67.738281 -3.359375 76.84375 -3.359375 Z M 76.84375 -3.359375 "/></g></g></g><g fill="rgb(0%, 45.878601%, 100%)" fill-opacity="1"><g transform="translate(206.970461, 459.228119)"><g><path d="M 83.34375 0.625 C 65.425781 0.625 51.5 -4.617188 41.5625 -15.109375 C 31.625 -25.609375 26.65625 -41.078125 26.65625 -61.515625 L 26.65625 -146.953125 L 30.859375 -146.953125 L 30.859375 -61.71875 C 30.859375 -42.40625 35.367188 -27.847656 44.390625 -18.046875 C 53.421875 -8.253906 66.40625 -3.359375 83.34375 -3.359375 C 100.28125 -3.359375 113.257812 -8.253906 122.28125 -18.046875 C 131.3125 -27.847656 135.828125 -42.40625 135.828125 -61.71875 L 135.828125 -146.953125 L 140.03125 -146.953125 L 140.03125 -61.515625 C 140.03125 -41.078125 135.0625 -25.609375 125.125 -15.109375 C 115.1875 -4.617188 101.257812 0.625 83.34375 0.625 Z M 83.34375 0.625 "/></g></g></g><g fill="rgb(0%, 45.878601%, 100%)" fill-opacity="1"><g transform="translate(373.659188, 459.228119)"><g><path d="M 76.84375 -109.171875 C 86.632812 -109.171875 95.550781 -106.828125 103.59375 -102.140625 C 111.644531 -97.453125 117.976562 -90.90625 122.59375 -82.5 C 127.21875 -74.101562 129.53125 -64.65625 129.53125 -54.15625 C 129.53125 -43.664062 127.21875 -34.253906 122.59375 -25.921875 C 117.976562 -17.597656 111.644531 -11.09375 103.59375 -6.40625 C 95.550781 -1.71875 86.632812 0.625 76.84375 0.625 C 65.644531 0.625 55.671875 -2.414062 46.921875 -8.5 C 38.171875 -14.59375 31.976562 -22.742188 28.34375 -32.953125 L 28.34375 40.734375 L 24.140625 40.734375 L 24.140625 -108.53125 L 28.34375 -108.53125 L 28.34375 -75.375 C 31.976562 -85.726562 38.132812 -93.945312 46.8125 -100.03125 C 55.488281 -106.125 65.5 -109.171875 76.84375 -109.171875 Z M 76.84375 -3.359375 C 85.9375 -3.359375 94.191406 -5.492188 101.609375 -9.765625 C 109.023438 -14.035156 114.832031 -20.050781 119.03125 -27.8125 C 123.226562 -35.582031 125.328125 -44.363281 125.328125 -54.15625 C 125.328125 -63.957031 123.226562 -72.738281 119.03125 -80.5 C 114.832031 -88.269531 109.023438 -94.320312 101.609375 -98.65625 C 94.191406 -103 85.9375 -105.171875 76.84375 -105.171875 C 67.738281 -105.171875 59.476562 -103 52.0625 -98.65625 C 44.644531 -94.320312 38.835938 -88.269531 34.640625 -80.5 C 30.441406 -72.738281 28.34375 -63.957031 28.34375 -54.15625 C 28.34375 -44.363281 30.441406 -35.582031 34.640625 -27.8125 C 38.835938 -20.050781 44.644531 -14.035156 52.0625 -9.765625 C 59.476562 -5.492188 67.738281 -3.359375 76.84375 -3.359375 Z M 76.84375 -3.359375 "/></g></g></g><g fill="rgb(0%, 45.878601%, 100%)" fill-opacity="0.502"><g transform="translate(512.000458, 247.227706)"><g><path d="M 90.171875 -2.1875 C 95.554688 5.375 97.613281 12.835938 96.34375 20.203125 C 95.082031 27.578125 90.394531 34.15625 82.28125 39.9375 L 46.609375 65.375 L 44.9375 63.046875 L 80.609375 37.609375 C 88.015625 32.328125 92.335938 26.390625 93.578125 19.796875 C 94.828125 13.203125 92.976562 6.4375 88.03125 -0.5 C 82.414062 -8.363281 75.617188 -12.894531 67.640625 -14.09375 C 59.671875 -15.300781 51.828125 -13.148438 44.109375 -7.640625 L 11.25 15.78125 L 9.59375 13.453125 L 96.375 -48.421875 L 98.03125 -46.09375 L 55.578125 -15.8125 C 62.066406 -17.613281 68.328125 -17.375 74.359375 -15.09375 C 80.390625 -12.8125 85.660156 -8.507812 90.171875 -2.1875 Z M 90.171875 -2.1875 "/></g></g></g><g fill="rgb(0%, 45.878601%, 100%)" fill-opacity="0.502"><g transform="translate(571.745125, 339.798753)"><g><path d="M 46 71.625 L 38.171875 6 C 31.515625 6.789062 25.722656 8.972656 20.796875 12.546875 C 15.878906 16.128906 12.253906 20.6875 9.921875 26.21875 C 7.597656 31.757812 6.820312 37.765625 7.59375 44.234375 C 8.1875 49.265625 9.71875 53.875 12.1875 58.0625 C 14.664062 62.25 17.9375 65.546875 22 67.953125 L 20.234375 70.21875 C 15.941406 67.4375 12.46875 63.789062 9.8125 59.28125 C 7.15625 54.78125 5.507812 49.867188 4.875 44.546875 C 4.03125 37.515625 4.867188 31.023438 7.390625 25.078125 C 9.921875 19.128906 13.847656 14.222656 19.171875 10.359375 C 24.503906 6.503906 30.734375 4.148438 37.859375 3.296875 C 44.984375 2.453125 51.550781 3.164062 57.5625 5.4375 C 63.570312 7.707031 68.476562 11.238281 72.28125 16.03125 C 76.082031 20.832031 78.367188 26.472656 79.140625 32.953125 C 79.898438 39.316406 79.023438 45.300781 76.515625 50.90625 C 74.015625 56.519531 70.179688 61.148438 65.015625 64.796875 C 59.847656 68.453125 53.75 70.703125 46.71875 71.546875 Z M 76.453125 33.28125 C 75.773438 27.570312 73.773438 22.550781 70.453125 18.21875 C 67.128906 13.882812 62.878906 10.601562 57.703125 8.375 C 52.523438 6.15625 46.921875 5.253906 40.890625 5.671875 L 48.390625 68.578125 C 54.347656 67.585938 59.578125 65.375 64.078125 61.9375 C 68.585938 58.507812 71.945312 54.300781 74.15625 49.3125 C 76.363281 44.320312 77.128906 38.976562 76.453125 33.28125 Z M 76.453125 33.28125 "/></g></g></g><g fill="rgb(0%, 45.878601%, 100%)" fill-opacity="0.502"><g transform="translate(579.62713, 439.333149)"><g><path d="M 56.015625 63.71875 C 53.003906 71.789062 48.617188 77.179688 42.859375 79.890625 C 37.097656 82.609375 30.269531 82.5 22.375 79.5625 L -23.265625 62.609375 L -22.265625 59.921875 L -7.453125 65.421875 C -11.378906 61.398438 -13.847656 56.625 -14.859375 51.09375 C -15.867188 45.5625 -15.1875 39.609375 -12.8125 33.234375 C -9.945312 25.515625 -5.929688 20.140625 -0.765625 17.109375 C 4.398438 14.078125 9.941406 13.664062 15.859375 15.875 C 21.429688 17.9375 25.21875 21.5625 27.21875 26.75 C 29.21875 31.9375 28.601562 38.882812 25.375 47.59375 L 15.5625 73.984375 L 23.234375 76.828125 C 30.515625 79.535156 36.6875 79.707031 41.75 77.34375 C 46.820312 74.988281 50.707031 70.171875 53.40625 62.890625 C 55.28125 57.859375 56.144531 52.84375 56 47.84375 C 55.863281 42.84375 54.898438 38.222656 53.109375 33.984375 L 55.6875 32.796875 C 57.6875 37.304688 58.722656 42.285156 58.796875 47.734375 C 58.867188 53.179688 57.941406 58.507812 56.015625 63.71875 Z M -10.25 34.1875 C -15.050781 47.113281 -12.410156 58.160156 -2.328125 67.328125 L 13.015625 73.03125 L 22.875 46.5 C 25.675781 38.96875 26.296875 32.890625 24.734375 28.265625 C 23.179688 23.648438 19.941406 20.425781 15.015625 18.59375 C 9.710938 16.625 4.816406 17.003906 0.328125 19.734375 C -4.148438 22.460938 -7.675781 27.28125 -10.25 34.1875 Z M -10.25 34.1875 "/></g></g></g><g fill="rgb(0%, 45.878601%, 100%)" fill-opacity="0.502"><g transform="translate(536.81538, 531.34968)"><g><path d="M 67.890625 83.796875 L 65.96875 85.9375 L -13.015625 14.375 L -11.09375 12.234375 Z M 67.890625 83.796875 "/></g></g></g><g fill="rgb(0%, 45.878601%, 100%)" fill-opacity="0.302"><g transform="translate(508.566106, 248.277706)"><g><path d="M 90.171875 -2.1875 C 95.554688 5.375 97.613281 12.835938 96.34375 20.203125 C 95.082031 27.578125 90.394531 34.15625 82.28125 39.9375 L 46.609375 65.375 L 44.9375 63.046875 L 80.609375 37.609375 C 88.015625 32.328125 92.335938 26.390625 93.578125 19.796875 C 94.828125 13.203125 92.976562 6.4375 88.03125 -0.5 C 82.414062 -8.363281 75.617188 -12.894531 67.640625 -14.09375 C 59.671875 -15.300781 51.828125 -13.148438 44.109375 -7.640625 L 11.25 15.78125 L 9.59375 13.453125 L 96.375 -48.421875 L 98.03125 -46.09375 L 55.578125 -15.8125 C 62.066406 -17.613281 68.328125 -17.375 74.359375 -15.09375 C 80.390625 -12.8125 85.660156 -8.507812 90.171875 -2.1875 Z M 90.171875 -2.1875 "/></g></g></g><g fill="rgb(0%, 45.878601%, 100%)" fill-opacity="0.302"><g transform="translate(568.310773, 340.848752)"><g><path d="M 46 71.625 L 38.171875 6 C 31.515625 6.789062 25.722656 8.972656 20.796875 12.546875 C 15.878906 16.128906 12.253906 20.6875 9.921875 26.21875 C 7.597656 31.757812 6.820312 37.765625 7.59375 44.234375 C 8.1875 49.265625 9.71875 53.875 12.1875 58.0625 C 14.664062 62.25 17.9375 65.546875 22 67.953125 L 20.234375 70.21875 C 15.941406 67.4375 12.46875 63.789062 9.8125 59.28125 C 7.15625 54.78125 5.507812 49.867188 4.875 44.546875 C 4.03125 37.515625 4.867188 31.023438 7.390625 25.078125 C 9.921875 19.128906 13.847656 14.222656 19.171875 10.359375 C 24.503906 6.503906 30.734375 4.148438 37.859375 3.296875 C 44.984375 2.453125 51.550781 3.164062 57.5625 5.4375 C 63.570312 7.707031 68.476562 11.238281 72.28125 16.03125 C 76.082031 20.832031 78.367188 26.472656 79.140625 32.953125 C 79.898438 39.316406 79.023438 45.300781 76.515625 50.90625 C 74.015625 56.519531 70.179688 61.148438 65.015625 64.796875 C 59.847656 68.453125 53.75 70.703125 46.71875 71.546875 Z M 76.453125 33.28125 C 75.773438 27.570312 73.773438 22.550781 70.453125 18.21875 C 67.128906 13.882812 62.878906 10.601562 57.703125 8.375 C 52.523438 6.15625 46.921875 5.253906 40.890625 5.671875 L 48.390625 68.578125 C 54.347656 67.585938 59.578125 65.375 64.078125 61.9375 C 68.585938 58.507812 71.945312 54.300781 74.15625 49.3125 C 76.363281 44.320312 77.128906 38.976562 76.453125 33.28125 Z M 76.453125 33.28125 "/></g></g></g><g fill="rgb(0%, 45.878601%, 100%)" fill-opacity="0.302"><g transform="translate(576.192778, 440.383028)"><g><path d="M 56.015625 63.71875 C 53.003906 71.789062 48.617188 77.179688 42.859375 79.890625 C 37.097656 82.609375 30.269531 82.5 22.375 79.5625 L -23.265625 62.609375 L -22.265625 59.921875 L -7.453125 65.421875 C -11.378906 61.398438 -13.847656 56.625 -14.859375 51.09375 C -15.867188 45.5625 -15.1875 39.609375 -12.8125 33.234375 C -9.945312 25.515625 -5.929688 20.140625 -0.765625 17.109375 C 4.398438 14.078125 9.941406 13.664062 15.859375 15.875 C 21.429688 17.9375 25.21875 21.5625 27.21875 26.75 C 29.21875 31.9375 28.601562 38.882812 25.375 47.59375 L 15.5625 73.984375 L 23.234375 76.828125 C 30.515625 79.535156 36.6875 79.707031 41.75 77.34375 C 46.820312 74.988281 50.707031 70.171875 53.40625 62.890625 C 55.28125 57.859375 56.144531 52.84375 56 47.84375 C 55.863281 42.84375 54.898438 38.222656 53.109375 33.984375 L 55.6875 32.796875 C 57.6875 37.304688 58.722656 42.285156 58.796875 47.734375 C 58.867188 53.179688 57.941406 58.507812 56.015625 63.71875 Z M -10.25 34.1875 C -15.050781 47.113281 -12.410156 58.160156 -2.328125 67.328125 L 13.015625 73.03125 L 22.875 46.5 C 25.675781 38.96875 26.296875 32.890625 24.734375 28.265625 C 23.179688 23.648438 19.941406 20.425781 15.015625 18.59375 C 9.710938 16.625 4.816406 17.003906 0.328125 19.734375 C -4.148438 22.460938 -7.675781 27.28125 -10.25 34.1875 Z M -10.25 34.1875 "/></g></g></g><g fill="rgb(0%, 45.878601%, 100%)" fill-opacity="0.302"><g transform="translate(533.381029, 532.39968)"><g><path d="M 67.890625 83.796875 L 65.96875 85.9375 L -13.015625 14.375 L -11.09375 12.234375 Z M 67.890625 83.796875 "/></g></g></g><g fill="rgb(0%, 45.878601%, 100%)" fill-opacity="1"><g transform="translate(515.434881, 246.177706)"><g><path d="M 90.171875 -2.1875 C 95.554688 5.375 97.613281 12.835938 96.34375 20.203125 C 95.082031 27.578125 90.394531 34.15625 82.28125 39.9375 L 46.609375 65.375 L 44.9375 63.046875 L 80.609375 37.609375 C 88.015625 32.328125 92.335938 26.390625 93.578125 19.796875 C 94.828125 13.203125 92.976562 6.4375 88.03125 -0.5 C 82.414062 -8.363281 75.617188 -12.894531 67.640625 -14.09375 C 59.671875 -15.300781 51.828125 -13.148438 44.109375 -7.640625 L 11.25 15.78125 L 9.59375 13.453125 L 96.375 -48.421875 L 98.03125 -46.09375 L 55.578125 -15.8125 C 62.066406 -17.613281 68.328125 -17.375 74.359375 -15.09375 C 80.390625 -12.8125 85.660156 -8.507812 90.171875 -2.1875 Z M 90.171875 -2.1875 "/></g></g></g><g fill="rgb(0%, 45.878601%, 100%)" fill-opacity="1"><g transform="translate(575.179476, 338.748753)"><g><path d="M 46 71.625 L 38.171875 6 C 31.515625 6.789062 25.722656 8.972656 20.796875 12.546875 C 15.878906 16.128906 12.253906 20.6875 9.921875 26.21875 C 7.597656 31.757812 6.820312 37.765625 7.59375 44.234375 C 8.1875 49.265625 9.71875 53.875 12.1875 58.0625 C 14.664062 62.25 17.9375 65.546875 22 67.953125 L 20.234375 70.21875 C 15.941406 67.4375 12.46875 63.789062 9.8125 59.28125 C 7.15625 54.78125 5.507812 49.867188 4.875 44.546875 C 4.03125 37.515625 4.867188 31.023438 7.390625 25.078125 C 9.921875 19.128906 13.847656 14.222656 19.171875 10.359375 C 24.503906 6.503906 30.734375 4.148438 37.859375 3.296875 C 44.984375 2.453125 51.550781 3.164062 57.5625 5.4375 C 63.570312 7.707031 68.476562 11.238281 72.28125 16.03125 C 76.082031 20.832031 78.367188 26.472656 79.140625 32.953125 C 79.898438 39.316406 79.023438 45.300781 76.515625 50.90625 C 74.015625 56.519531 70.179688 61.148438 65.015625 64.796875 C 59.847656 68.453125 53.75 70.703125 46.71875 71.546875 Z M 76.453125 33.28125 C 75.773438 27.570312 73.773438 22.550781 70.453125 18.21875 C 67.128906 13.882812 62.878906 10.601562 57.703125 8.375 C 52.523438 6.15625 46.921875 5.253906 40.890625 5.671875 L 48.390625 68.578125 C 54.347656 67.585938 59.578125 65.375 64.078125 61.9375 C 68.585938 58.507812 71.945312 54.300781 74.15625 49.3125 C 76.363281 44.320312 77.128906 38.976562 76.453125 33.28125 Z M 76.453125 33.28125 "/></g></g></g><g fill="rgb(0%, 45.878601%, 100%)" fill-opacity="1"><g transform="translate(583.061481, 438.283149)"><g><path d="M 56.015625 63.71875 C 53.003906 71.789062 48.617188 77.179688 42.859375 79.890625 C 37.097656 82.609375 30.269531 82.5 22.375 79.5625 L -23.265625 62.609375 L -22.265625 59.921875 L -7.453125 65.421875 C -11.378906 61.398438 -13.847656 56.625 -14.859375 51.09375 C -15.867188 45.5625 -15.1875 39.609375 -12.8125 33.234375 C -9.945312 25.515625 -5.929688 20.140625 -0.765625 17.109375 C 4.398438 14.078125 9.941406 13.664062 15.859375 15.875 C 21.429688 17.9375 25.21875 21.5625 27.21875 26.75 C 29.21875 31.9375 28.601562 38.882812 25.375 47.59375 L 15.5625 73.984375 L 23.234375 76.828125 C 30.515625 79.535156 36.6875 79.707031 41.75 77.34375 C 46.820312 74.988281 50.707031 70.171875 53.40625 62.890625 C 55.28125 57.859375 56.144531 52.84375 56 47.84375 C 55.863281 42.84375 54.898438 38.222656 53.109375 33.984375 L 55.6875 32.796875 C 57.6875 37.304688 58.722656 42.285156 58.796875 47.734375 C 58.867188 53.179688 57.941406 58.507812 56.015625 63.71875 Z M -10.25 34.1875 C -15.050781 47.113281 -12.410156 58.160156 -2.328125 67.328125 L 13.015625 73.03125 L 22.875 46.5 C 25.675781 38.96875 26.296875 32.890625 24.734375 28.265625 C 23.179688 23.648438 19.941406 20.425781 15.015625 18.59375 C 9.710938 16.625 4.816406 17.003906 0.328125 19.734375 C -4.148438 22.460938 -7.675781 27.28125 -10.25 34.1875 Z M -10.25 34.1875 "/></g></g></g><g fill="rgb(0%, 45.878601%, 100%)" fill-opacity="1"><g transform="translate(540.249732, 530.29968)"><g><path d="M 67.890625 83.796875 L 65.96875 85.9375 L -13.015625 14.375 L -11.09375 12.234375 Z M 67.890625 83.796875 "/></g></g></g><g clip-path="url(#id1)"><path fill="rgb(0%, 45.878601%, 100%)" d="M 142.316406 382.90625 C 142.316406 382.90625 137.089844 382.726562 129.96875 382.546875 C 126.183594 382.457031 121.949219 382.367188 117.621094 382.367188 C 115.097656 382.367188 112.664062 382.367188 110.230469 382.457031 C 100.765625 382.636719 92.925781 382.90625 92.925781 382.90625 C 92.113281 382.90625 91.484375 383.539062 91.484375 384.351562 C 91.484375 385.164062 92.113281 385.796875 92.925781 385.796875 C 92.925781 385.796875 100.765625 386.066406 110.230469 386.25 C 112.664062 386.25 115.097656 386.339844 117.621094 386.339844 C 121.949219 386.339844 126.183594 386.25 129.96875 386.15625 C 137.089844 385.976562 142.316406 385.796875 142.316406 385.796875 C 143.128906 385.796875 143.761719 385.164062 143.761719 384.351562 C 143.761719 383.539062 143.128906 382.90625 142.316406 382.90625 Z M 142.316406 382.90625 " fill-opacity="1" fill-rule="nonzero"/></g><path fill="rgb(0%, 45.878601%, 100%)" d="M 177.558594 457.761719 C 177.558594 457.761719 174.945312 459.566406 171.519531 462.003906 C 169.71875 463.359375 167.644531 464.804688 165.570312 466.429688 C 164.398438 467.332031 163.226562 468.324219 162.148438 469.226562 C 157.820312 472.839844 154.304688 475.910156 154.304688 475.910156 C 153.675781 476.363281 153.585938 477.265625 154.035156 477.894531 C 154.484375 478.527344 155.386719 478.617188 156.019531 478.167969 C 156.019531 478.167969 159.894531 475.457031 164.398438 472.117188 C 165.570312 471.304688 166.742188 470.402344 167.914062 469.410156 C 169.898438 467.785156 171.882812 466.15625 173.59375 464.714844 C 176.839844 462.003906 179.179688 459.929688 179.179688 459.929688 C 179.8125 459.476562 179.902344 458.574219 179.453125 457.941406 C 179 457.398438 178.101562 457.308594 177.558594 457.761719 Z M 177.558594 457.761719 " fill-opacity="1" fill-rule="nonzero"/><path fill="rgb(0%, 45.878601%, 100%)" d="M 179.273438 309.316406 C 179.273438 309.316406 176.929688 307.242188 173.683594 304.53125 C 171.972656 303.085938 169.988281 301.460938 168.003906 299.835938 C 166.832031 298.933594 165.660156 298.03125 164.488281 297.128906 C 159.984375 293.789062 156.109375 291.078125 156.109375 291.078125 C 155.476562 290.625 154.574219 290.71875 154.125 291.347656 C 153.675781 291.980469 153.765625 292.882812 154.394531 293.335938 C 154.394531 293.335938 157.910156 296.40625 162.238281 300.015625 C 163.320312 300.921875 164.488281 301.914062 165.660156 302.816406 C 167.644531 304.351562 169.71875 305.886719 171.609375 307.242188 C 175.035156 309.769531 177.648438 311.484375 177.648438 311.484375 C 178.28125 311.9375 179.179688 311.847656 179.632812 311.214844 C 180.082031 310.582031 179.8125 309.769531 179.273438 309.316406 Z M 179.273438 309.316406 " fill-opacity="1" fill-rule="nonzero"/><g clip-path="url(#id2)"><path fill="rgb(0%, 45.878601%, 100%)" d="M 283.554688 535.683594 C 283.554688 535.683594 283.375 538.84375 283.285156 543.089844 C 283.191406 545.347656 283.191406 547.875 283.191406 550.492188 C 283.191406 552.027344 283.285156 553.472656 283.285156 554.917969 C 283.464844 560.605469 283.824219 565.210938 283.824219 565.210938 C 283.824219 566.023438 284.453125 566.566406 285.265625 566.566406 C 286.078125 566.566406 286.617188 565.933594 286.617188 565.121094 C 286.617188 565.121094 286.796875 560.425781 286.886719 554.828125 C 286.886719 553.382812 286.980469 551.9375 286.886719 550.402344 C 286.886719 547.875 286.707031 545.253906 286.617188 543 C 286.4375 538.753906 286.257812 535.59375 286.257812 535.59375 C 286.257812 534.78125 285.625 534.238281 284.816406 534.238281 C 284.183594 534.238281 283.554688 534.871094 283.554688 535.683594 Z M 283.554688 535.683594 " fill-opacity="1" fill-rule="nonzero"/></g><g clip-path="url(#id3)"><path fill="rgb(0%, 45.878601%, 100%)" d="M 286.347656 233.5625 C 286.347656 233.5625 286.527344 230.402344 286.707031 226.15625 C 286.796875 223.898438 286.886719 221.371094 286.980469 218.753906 C 286.980469 217.21875 286.980469 215.773438 286.980469 214.328125 C 286.886719 208.640625 286.707031 204.035156 286.707031 204.035156 C 286.707031 203.222656 286.078125 202.589844 285.355469 202.589844 C 284.546875 202.589844 283.914062 203.222656 283.914062 203.945312 C 283.914062 203.945312 283.644531 208.640625 283.375 214.238281 C 283.285156 215.683594 283.285156 217.128906 283.285156 218.664062 C 283.285156 221.191406 283.285156 223.808594 283.375 226.066406 C 283.464844 230.3125 283.644531 233.472656 283.644531 233.472656 C 283.644531 234.285156 284.273438 234.914062 284.996094 234.914062 C 285.714844 235.007812 286.347656 234.375 286.347656 233.5625 Z M 286.347656 233.5625 " fill-opacity="1" fill-rule="nonzero"/></g><path fill="rgb(0%, 45.878601%, 100%)" d="M 237.40625 506.160156 C 237.40625 506.160156 233.710938 511.304688 228.933594 518.257812 C 226.320312 521.960938 223.4375 526.203125 220.550781 530.449219 C 218.839844 532.976562 217.21875 535.414062 215.683594 537.851562 C 209.554688 547.332031 204.507812 555.277344 204.507812 555.277344 C 204.058594 555.910156 204.238281 556.8125 204.867188 557.265625 C 205.5 557.714844 206.402344 557.535156 206.851562 556.902344 C 206.851562 556.902344 212.257812 549.230469 218.660156 540.019531 C 220.28125 537.671875 221.992188 535.234375 223.617188 532.703125 C 226.5 528.460938 229.203125 524.125 231.726562 520.335938 C 236.324219 513.203125 239.660156 507.875 239.660156 507.875 C 240.109375 507.242188 239.929688 506.339844 239.300781 505.886719 C 238.667969 505.4375 237.855469 505.527344 237.40625 506.160156 Z M 237.40625 506.160156 " fill-opacity="1" fill-rule="nonzero"/><path fill="rgb(0%, 45.878601%, 100%)" d="M 239.75 261.550781 C 239.75 261.550781 236.414062 256.226562 231.816406 249.089844 C 229.382812 245.300781 226.589844 240.964844 223.707031 236.722656 C 222.085938 234.191406 220.371094 231.753906 218.75 229.40625 C 212.351562 220.109375 206.941406 212.523438 206.941406 212.523438 C 206.492188 211.890625 205.679688 211.710938 204.960938 212.160156 C 204.328125 212.613281 204.148438 213.425781 204.597656 214.148438 C 204.597656 214.148438 209.644531 222.09375 215.773438 231.574219 C 217.308594 234.011719 218.929688 236.449219 220.640625 238.980469 C 223.527344 243.222656 226.410156 247.464844 229.023438 251.167969 C 233.890625 258.121094 237.496094 263.269531 237.496094 263.269531 C 237.945312 263.898438 238.757812 264.082031 239.480469 263.628906 C 240.019531 263.085938 240.199219 262.183594 239.75 261.550781 Z M 239.75 261.550781 " fill-opacity="1" fill-rule="nonzero"/></svg>