<svg xmlns="http://www.w3.org/2000/svg" xmlns:xlink="http://www.w3.org/1999/xlink" width="1080" zoomAndPan="magnify" viewBox="0 0 810 809.999993" height="1080" preserveAspectRatio="xMidYMid meet" version="1.0"><defs><g/><clipPath id="id1"><path d="M 81 340.496094 L 757.5 340.496094 L 757.5 692 L 81 692 Z M 81 340.496094 " clip-rule="nonzero"/></clipPath><clipPath id="id2"><path d="M 81 340.496094 L 180 340.496094 L 180 440 L 81 440 Z M 81 340.496094 " clip-rule="nonzero"/></clipPath><clipPath id="id3"><path d="M 96 154 L 404 154 L 404 529.015625 L 96 529.015625 Z M 96 154 " clip-rule="nonzero"/></clipPath></defs><g clip-path="url(#id1)"><path fill="rgb(85.099792%, 85.099792%, 85.099792%)" d="M 757.5 565.488281 C 757.5 635.320312 700.886719 691.933594 631.046875 691.933594 L 207.453125 691.933594 C 137.613281 691.933594 81 635.320312 81 565.488281 C 81 563.507812 81.058594 561.542969 81.148438 559.585938 L 81 559.585938 L 81 340.828125 L 179.21875 439.039062 L 631.046875 439.039062 C 700.886719 439.039062 757.5 495.652344 757.5 565.488281 Z M 757.5 565.488281 " fill-opacity="1" fill-rule="nonzero"/></g><g clip-path="url(#id2)"><path fill="rgb(0%, 45.878601%, 100%)" d="M 179.21875 439.039062 L 81 439.039062 L 81 340.828125 Z M 179.21875 439.039062 " fill-opacity="1" fill-rule="nonzero"/></g><path fill="rgb(0%, 45.878601%, 100%)" d="M 227.097656 255.507812 C 227.226562 255.574219 227.363281 255.625 227.503906 255.65625 C 227.636719 255.695312 227.773438 255.714844 227.90625 255.71875 C 228.695312 255.75 229.464844 255.324219 229.835938 254.570312 C 232.839844 248.4375 238.949219 244.726562 245.507812 245.011719 C 245.675781 245.019531 245.835938 245.03125 246.003906 245.039062 C 251.890625 245.484375 258.558594 248.644531 260.183594 254.738281 C 260.417969 255.625 261.195312 256.21875 262.066406 256.253906 C 262.269531 256.265625 262.476562 256.242188 262.679688 256.191406 C 263.769531 255.894531 264.421875 254.773438 264.128906 253.679688 C 261.992188 245.640625 253.636719 241.5 246.304688 240.960938 C 246.09375 240.945312 245.886719 240.933594 245.679688 240.921875 C 237.496094 240.570312 229.886719 245.164062 226.160156 252.769531 C 225.667969 253.785156 226.082031 255.007812 227.097656 255.507812 " fill-opacity="1" fill-rule="nonzero"/><path fill="rgb(0%, 45.878601%, 100%)" d="M 268.433594 293.871094 C 275.613281 298.039062 284.449219 295.054688 290.011719 290.242188 C 290.167969 290.097656 290.328125 289.960938 290.480469 289.824219 C 296.511719 284.277344 298.652344 275.632812 295.917969 267.613281 C 295.554688 266.546875 294.390625 265.976562 293.324219 266.339844 C 293.1875 266.386719 293.058594 266.449219 292.9375 266.523438 C 292.816406 266.59375 292.703125 266.675781 292.605469 266.765625 C 292.023438 267.300781 291.78125 268.148438 292.050781 268.941406 C 294.253906 275.410156 292.550781 282.363281 287.714844 286.804688 C 287.589844 286.921875 287.46875 287.03125 287.347656 287.136719 C 282.871094 291.003906 275.921875 293.488281 270.476562 290.328125 C 269.679688 289.871094 268.710938 290 268.074219 290.589844 C 267.925781 290.730469 267.796875 290.890625 267.683594 291.078125 C 267.121094 292.058594 267.453125 293.308594 268.433594 293.871094 " fill-opacity="1" fill-rule="nonzero"/><path fill="rgb(0%, 45.878601%, 100%)" d="M 239.457031 295.453125 C 240.203125 295.222656 240.621094 294.417969 240.390625 293.667969 L 240.273438 293.394531 L 240.109375 293.160156 C 239.742188 292.742188 239.164062 292.554688 238.605469 292.730469 C 234.066406 294.148438 229.257812 292.824219 226.257812 289.355469 L 226.035156 289.09375 C 223.4375 285.890625 221.839844 280.992188 224.140625 277.246094 C 224.476562 276.710938 224.402344 276.03125 224.003906 275.5625 C 223.910156 275.460938 223.800781 275.363281 223.675781 275.289062 C 223.003906 274.871094 222.125 275.085938 221.714844 275.753906 C 218.824219 280.449219 220.417969 286.3125 223.371094 290.296875 C 221.554688 293.261719 218.371094 295.257812 214.65625 295.667969 C 210.746094 296.101562 207.023438 294.71875 204.628906 291.953125 L 204.460938 291.761719 C 201.359375 288 200.164062 281.546875 203.316406 277.9375 C 203.792969 277.394531 203.78125 276.59375 203.324219 276.058594 L 203.191406 275.921875 C 202.597656 275.398438 201.695312 275.460938 201.171875 276.054688 C 199.835938 277.578125 199.070312 279.421875 198.769531 281.375 C 194.488281 282.382812 190.09375 281.015625 187.28125 277.769531 L 187.0625 277.5 C 184.453125 274.308594 182.859375 269.402344 185.160156 265.660156 C 185.496094 265.113281 185.421875 264.425781 185.019531 263.972656 C 184.933594 263.867188 184.820312 263.773438 184.695312 263.695312 C 184.023438 263.277344 183.148438 263.492188 182.738281 264.160156 C 179.703125 269.097656 181.605469 275.324219 184.847656 279.3125 C 184.941406 279.421875 185.039062 279.53125 185.132812 279.636719 C 188.472656 283.496094 193.585938 285.222656 198.652344 284.304688 C 198.859375 287.699219 200.234375 291.117188 202.269531 293.582031 L 202.476562 293.835938 C 205.480469 297.304688 210.125 299.042969 214.972656 298.507812 C 219.273438 298.035156 223.027344 295.820312 225.355469 292.496094 C 229.101562 295.867188 234.414062 297.027344 239.457031 295.453125 " fill-opacity="1" fill-rule="nonzero"/><path fill="rgb(0%, 45.878601%, 100%)" d="M 189.96875 222.90625 C 187.457031 227.710938 186.964844 232.890625 188.746094 237.265625 C 189.101562 238.136719 190.199219 238.425781 191.167969 237.996094 C 191.28125 237.945312 191.382812 237.890625 191.476562 237.824219 C 192.257812 237.296875 192.628906 236.347656 192.308594 235.574219 C 190.601562 231.394531 191.5 226.234375 194.722656 221.777344 C 196.09375 219.882812 197.765625 218.273438 199.621094 217.019531 C 202.109375 215.332031 204.921875 214.292969 207.765625 214.066406 C 214.230469 213.5625 221.558594 216.949219 222.179688 222.789062 C 222.28125 223.746094 223.203125 224.335938 224.242188 224.097656 C 224.386719 224.066406 224.527344 224.019531 224.660156 223.960938 C 224.777344 223.90625 224.898438 223.839844 225.007812 223.769531 C 225.628906 223.347656 226.015625 222.636719 225.945312 221.933594 C 225.117188 214.066406 215.984375 209.882812 207.996094 210.496094 C 204.414062 210.78125 200.886719 212.089844 197.773438 214.1875 C 195.613281 215.660156 193.65625 217.503906 192.027344 219.660156 C 187.289062 217.414062 181.253906 217.53125 175.519531 220.089844 L 175.496094 220.097656 C 174.144531 220.703125 172.871094 221.417969 171.675781 222.222656 C 167.304688 225.179688 164.105469 229.40625 162.828125 234.054688 C 162.558594 235.03125 163.160156 235.917969 164.164062 236.035156 C 164.539062 236.078125 164.910156 236.007812 165.25 235.859375 C 165.371094 235.804688 165.492188 235.738281 165.597656 235.664062 C 166.019531 235.378906 166.347656 234.953125 166.484375 234.464844 C 167.496094 230.773438 170.0625 227.40625 173.574219 225.027344 C 174.542969 224.375 175.585938 223.792969 176.683594 223.300781 L 176.707031 223.285156 C 181.34375 221.226562 186.199219 221.117188 189.96875 222.90625 " fill-opacity="1" fill-rule="nonzero"/><path fill="rgb(0%, 45.878601%, 100%)" d="M 278.195312 206.480469 C 278.535156 206.550781 278.898438 206.535156 279.257812 206.414062 C 281.890625 205.546875 284.6875 205.417969 287.402344 205.984375 C 289.988281 206.527344 292.503906 207.699219 294.714844 209.457031 C 298.851562 212.746094 301.191406 217.503906 301.191406 222.378906 C 295.40625 222.9375 290.167969 225.730469 286.773438 230.269531 C 286.089844 231.167969 286.277344 232.457031 287.179688 233.136719 C 287.421875 233.324219 287.703125 233.445312 287.988281 233.503906 C 288.738281 233.65625 289.546875 233.386719 290.039062 232.726562 C 293.289062 228.386719 298.683594 226.015625 304.46875 226.375 C 305.34375 226.4375 306.195312 226.554688 307.035156 226.722656 C 311.695312 227.695312 315.648438 230.464844 317.894531 234.421875 C 321.351562 240.507812 321.449219 249.929688 316.09375 254.242188 C 315.21875 254.953125 315.078125 256.234375 315.785156 257.121094 C 316.089844 257.511719 316.511719 257.753906 316.957031 257.847656 C 317.53125 257.964844 318.160156 257.835938 318.65625 257.4375 C 325.863281 251.640625 325.714844 239.925781 321.449219 232.402344 C 319.324219 228.65625 316.023438 225.773438 312.066406 224.046875 C 310.757812 223.476562 309.367188 223.042969 307.933594 222.738281 C 307.0625 222.558594 306.179688 222.425781 305.269531 222.347656 C 305.265625 216.234375 302.367188 210.316406 297.253906 206.25 C 295.71875 205.027344 294.058594 204.027344 292.328125 203.277344 C 291 202.699219 289.628906 202.265625 288.238281 201.976562 C 284.832031 201.265625 281.300781 201.425781 277.972656 202.53125 C 276.902344 202.878906 276.316406 204.042969 276.671875 205.117188 C 276.90625 205.835938 277.5 206.335938 278.195312 206.480469 " fill-opacity="1" fill-rule="nonzero"/><g clip-path="url(#id3)"><path fill="rgb(0%, 45.878601%, 100%)" d="M 224.289062 305.21875 L 224.039062 305.097656 C 222.984375 304.683594 221.796875 305.203125 221.386719 306.253906 C 220.324219 308.964844 220.1875 311.824219 220.722656 314.605469 C 215.441406 318.046875 208.84375 318.351562 203.480469 315.335938 C 203.339844 315.261719 203.195312 315.179688 203.050781 315.089844 C 197.984375 312.046875 193.453125 306.210938 194.738281 300.039062 C 194.898438 299.269531 194.582031 298.527344 194.015625 298.054688 C 193.589844 297.429688 192.890625 297.105469 192.183594 297.148438 C 191.839844 297.171875 191.496094 297.285156 191.183594 297.488281 C 188.875 299.023438 186.210938 299.898438 183.441406 300.070312 C 180.800781 300.234375 178.066406 299.765625 175.46875 298.65625 C 170.609375 296.578125 167.097656 292.617188 165.808594 287.90625 C 171.25 285.839844 175.550781 281.761719 177.632812 276.484375 C 178.054688 275.433594 177.53125 274.238281 176.484375 273.820312 C 176.195312 273.710938 175.898438 273.664062 175.609375 273.6875 C 174.84375 273.734375 174.136719 274.214844 173.832031 274.980469 C 171.84375 280.023438 167.269531 283.738281 161.597656 284.925781 C 160.738281 285.097656 159.882812 285.214844 159.03125 285.269531 C 154.277344 285.570312 149.734375 283.949219 146.523438 280.730469 C 141.582031 275.769531 139 266.714844 143.023438 261.136719 C 143.621094 260.3125 143.507812 259.210938 142.820312 258.507812 C 142.695312 258.300781 142.535156 258.101562 142.335938 257.941406 C 136.652344 253.238281 134.425781 246.027344 136.375 238.636719 C 137.953125 232.664062 142.003906 227.820312 147.238281 225.347656 C 148.742188 224.632812 150.347656 224.117188 152.007812 223.828125 C 152.21875 223.792969 152.417969 223.730469 152.605469 223.640625 C 153.050781 223.429688 153.410156 223.082031 153.644531 222.660156 C 154.304688 222.292969 154.769531 221.625 154.839844 220.816406 C 155.449219 213.699219 159.628906 207.65625 165.738281 204.765625 C 166.539062 204.382812 167.382812 204.058594 168.253906 203.785156 C 174.792969 201.773438 183.261719 202.398438 187.546875 208.277344 L 187.570312 208.289062 C 187.957031 208.820312 188.554688 209.1875 189.257812 209.25 C 189.515625 209.273438 189.773438 209.25 190.007812 209.191406 C 190.144531 209.164062 190.265625 209.113281 190.386719 209.058594 C 190.539062 208.984375 190.691406 208.886719 190.832031 208.789062 L 190.839844 208.789062 L 190.84375 208.785156 L 190.917969 208.714844 C 191.097656 208.574219 191.25 208.410156 191.382812 208.214844 L 191.519531 208.003906 L 191.652344 207.707031 C 191.71875 207.539062 191.757812 207.367188 191.785156 207.191406 L 191.808594 207.09375 C 192.417969 199.988281 196.601562 193.9375 202.707031 191.050781 C 203.511719 190.660156 204.355469 190.339844 205.226562 190.074219 C 211.488281 188.132812 219.613281 188.660156 224.03125 193.960938 C 224.164062 194.175781 224.320312 194.378906 224.523438 194.558594 C 225.203125 195.488281 226.421875 195.773438 227.429688 195.296875 L 227.558594 195.222656 C 228.238281 195.054688 228.871094 194.703125 229.324219 194.167969 C 233.269531 189.523438 239.226562 186.410156 245.894531 185.351562 C 247.734375 185.0625 249.625 184.925781 251.550781 184.964844 L 251.582031 184.964844 C 259.660156 185.117188 266.738281 188.246094 270.96875 193.378906 C 264.117188 198.605469 259.910156 205.746094 259.542969 213.25 C 259.460938 214.75 260.859375 215.90625 262.542969 215.945312 C 262.730469 215.949219 262.917969 215.929688 263.101562 215.902344 C 264.582031 215.667969 265.746094 214.558594 265.8125 213.222656 C 266.167969 206.039062 270.933594 199.210938 278.582031 194.960938 C 281.835938 193.152344 285.332031 191.964844 288.851562 191.410156 C 293.570312 190.65625 298.328125 191.0625 302.574219 192.660156 C 312.238281 196.300781 320.527344 206.136719 317.484375 214.976562 C 316.988281 216.429688 317.929688 217.898438 319.589844 218.253906 C 319.820312 218.304688 320.050781 218.332031 320.277344 218.34375 C 320.492188 218.347656 320.703125 218.328125 320.90625 218.300781 L 321.152344 218.230469 C 327.476562 218.546875 333.015625 222.207031 335.585938 227.835938 C 335.65625 227.992188 335.71875 228.140625 335.785156 228.289062 C 337.09375 231.402344 338.328125 240.53125 337.765625 243.953125 L 337.769531 243.953125 C 337.714844 244.171875 337.679688 244.398438 337.699219 244.636719 C 338.277344 251.449219 334.933594 257.78125 329.164062 260.917969 C 329.023438 260.996094 328.875 261.070312 328.726562 261.152344 C 323.453125 263.804688 316.113281 264.523438 311.59375 260.136719 C 310.9375 259.492188 309.960938 259.394531 309.191406 259.8125 C 309.019531 259.90625 308.851562 260.03125 308.699219 260.179688 C 307.917969 260.996094 307.9375 262.292969 308.75 263.078125 C 314.414062 268.589844 323.09375 268.164062 329.585938 265.261719 C 333.164062 268.726562 334.964844 273.8125 334.386719 279.152344 C 333.777344 284.777344 330.691406 289.574219 326.09375 292.070312 C 325.992188 292.132812 325.882812 292.183594 325.777344 292.238281 C 319.554688 295.429688 310.164062 295.117188 306.097656 289.566406 C 305.484375 288.730469 304.363281 288.496094 303.476562 288.976562 L 303.242188 289.125 C 302.332031 289.792969 302.128906 291.078125 302.800781 291.988281 C 304.519531 294.335938 306.859375 295.980469 309.484375 297.011719 C 309.570312 303.328125 306.300781 309.074219 300.890625 312.007812 C 300.746094 312.09375 300.597656 312.167969 300.449219 312.242188 C 295.171875 314.914062 287.832031 315.625 283.3125 311.238281 C 283.179688 311.105469 283.015625 311.003906 282.859375 310.917969 L 282.84375 310.894531 C 282.753906 310.777344 282.65625 310.675781 282.550781 310.582031 C 282.441406 310.492188 282.332031 310.410156 282.210938 310.347656 C 281.527344 309.960938 280.644531 309.988281 279.980469 310.496094 C 274.542969 314.617188 267.414062 315.179688 261.683594 311.96875 C 261.539062 311.886719 261.394531 311.808594 261.257812 311.722656 C 256.199219 308.675781 251.660156 302.839844 252.945312 296.671875 C 253.132812 295.773438 252.699219 294.886719 251.945312 294.464844 C 251.765625 294.363281 251.574219 294.289062 251.367188 294.242188 C 250.257812 294.015625 249.175781 294.726562 248.945312 295.835938 C 247.328125 303.582031 252.328125 310.703125 258.246094 314.644531 C 257.238281 319.527344 253.90625 323.773438 249.101562 326.140625 C 244.035156 328.628906 238.335938 328.582031 233.765625 326.023438 L 233.460938 325.847656 C 227.441406 322.28125 222.683594 314.164062 225.195312 307.746094 C 225.570312 306.785156 225.167969 305.707031 224.289062 305.21875 Z M 393.339844 371.414062 C 398.40625 366.027344 404.152344 359.921875 403.898438 351.554688 C 403.621094 342.644531 397.5625 335.566406 392.210938 329.324219 C 390.019531 326.761719 387.945312 324.34375 386.292969 321.890625 C 376.703125 307.691406 370.363281 295.101562 367.957031 285.476562 C 366.707031 280.488281 367.804688 276.15625 369.085938 271.136719 C 370.125 267.050781 371.203125 262.820312 371.085938 257.851562 C 370.769531 244.703125 367.964844 236.527344 365.492188 229.304688 C 364.835938 227.398438 364.21875 225.589844 363.640625 223.714844 C 362.257812 219.195312 356.679688 203.273438 342.871094 187.976562 C 325.515625 168.757812 302.40625 158 274.171875 156.007812 C 270.285156 155.527344 203.292969 147.738281 160.753906 172.824219 C 159.164062 173.65625 141.242188 183.339844 124.605469 206.699219 C 108.949219 228.679688 91.613281 267.460938 97.929688 327.375 C 98.101562 329.042969 99.59375 330.234375 101.269531 330.082031 C 102.9375 329.902344 104.148438 328.40625 103.972656 326.734375 C 97.875 268.90625 114.410156 231.617188 129.351562 210.515625 C 145.539062 187.652344 163.429688 178.292969 163.605469 178.207031 L 163.769531 178.113281 C 204.847656 153.824219 272.820312 161.976562 273.5 162.058594 L 273.664062 162.074219 C 336.652344 166.480469 354.832031 215.683594 357.835938 225.492188 C 358.441406 227.472656 359.105469 229.410156 359.742188 231.285156 C 362.1875 238.417969 364.71875 245.789062 365.011719 258 C 365.109375 262.128906 364.179688 265.777344 363.195312 269.632812 C 361.839844 274.960938 360.4375 280.472656 362.058594 286.957031 C 364.675781 297.410156 371.136719 310.304688 381.257812 325.300781 C 383.105469 328.046875 385.394531 330.710938 387.605469 333.292969 C 392.753906 339.304688 397.621094 344.976562 397.824219 351.742188 C 398 357.585938 393.589844 362.269531 388.917969 367.234375 C 385.980469 370.359375 382.941406 373.582031 381.003906 377.246094 C 378.355469 382.253906 380.125 387.570312 381.691406 392.257812 C 384.019531 399.253906 384.871094 402.765625 378.789062 406.226562 C 377.847656 406.761719 377.261719 407.761719 377.246094 408.84375 C 377.242188 409.925781 377.804688 410.933594 378.738281 411.492188 C 380.53125 412.554688 381.53125 413.675781 381.796875 414.90625 C 382.394531 417.671875 379.511719 421.804688 377.191406 425.125 C 376.359375 426.328125 375.566406 427.457031 374.882812 428.578125 C 370.347656 435.957031 370.984375 442.070312 371.652344 448.542969 C 371.894531 450.894531 372.152344 453.332031 372.179688 455.996094 C 372.257812 462.53125 369.277344 468.632812 363.785156 473.171875 C 357.320312 478.527344 348.390625 480.851562 340.464844 479.214844 C 327.5 476.5625 316.085938 478.527344 306.542969 485.074219 C 290.785156 495.875 284.894531 515.839844 283.238281 522.929688 L 231.722656 522.640625 L 231.8125 329.613281 C 237.539062 332.816406 244.636719 332.894531 250.902344 329.816406 C 256.46875 327.078125 260.464844 322.269531 261.988281 316.644531 C 268.179688 319.160156 275.273438 318.464844 281.078125 314.710938 C 287.050781 319.890625 295.9375 319.109375 302.289062 315.90625 C 302.476562 315.804688 302.65625 315.710938 302.84375 315.609375 C 309.265625 312.117188 313.265625 305.476562 313.550781 298.085938 C 318.355469 298.84375 323.558594 297.984375 327.640625 295.882812 C 327.773438 295.8125 327.910156 295.742188 328.050781 295.667969 C 333.824219 292.527344 337.699219 286.554688 338.449219 279.589844 C 339.117188 273.410156 337.195312 267.457031 333.273438 263.15625 C 338.71875 259.25 342.789062 253.226562 341.621094 241.414062 C 342.582031 236.738281 341.273438 230.78125 339.550781 226.699219 C 339.46875 226.507812 339.386719 226.316406 339.296875 226.128906 C 336.457031 219.90625 330.730469 215.621094 324.015625 214.441406 C 326.515625 203.152344 316.632812 191.945312 305.316406 187.675781 C 299.960938 185.652344 293.988281 185.15625 288.089844 186.089844 C 283.984375 186.730469 279.921875 188.078125 276.117188 190.082031 C 270.804688 183.648438 262.019531 179.730469 252.027344 179.542969 L 251.988281 179.542969 C 249.628906 179.503906 247.3125 179.671875 245.050781 180.027344 C 237.660156 181.195312 230.953125 184.441406 226.0625 189.257812 C 220.109375 183.84375 210.964844 183.371094 203.847656 185.550781 C 202.757812 185.890625 201.699219 186.292969 200.6875 186.769531 C 194.460938 189.722656 189.847656 195.289062 187.964844 202.039062 C 182.03125 197.523438 173.5625 197.210938 166.875 199.273438 C 165.78125 199.601562 164.726562 200.015625 163.71875 200.492188 C 156.40625 203.953125 151.328125 211.011719 150.265625 219.371094 C 148.511719 219.753906 146.820312 220.335938 145.21875 221.085938 C 138.753906 224.148438 133.75 230.09375 131.816406 237.433594 C 129.484375 246.277344 131.984375 254.933594 138.488281 260.832031 C 134.910156 268.21875 138.074219 278.042969 143.632812 283.625 C 146.667969 286.667969 150.613281 288.574219 154.882812 289.1875 C 156.296875 289.386719 157.75 289.4375 159.214844 289.355469 C 160.097656 289.292969 160.992188 289.1875 161.882812 289.023438 C 163.507812 294.917969 167.863281 299.859375 173.867188 302.421875 C 175.671875 303.191406 177.53125 303.71875 179.40625 303.980469 C 180.839844 304.191406 182.277344 304.242188 183.695312 304.160156 C 186.03125 304.007812 188.308594 303.457031 190.449219 302.527344 C 190.609375 309.335938 195.511719 315.335938 200.945312 318.605469 C 201.121094 318.710938 201.304688 318.8125 201.484375 318.917969 C 207.867188 322.492188 215.605469 322.328125 221.988281 318.613281 C 222.917969 320.761719 224.214844 322.78125 225.738281 324.5625 L 225.648438 525.664062 C 225.644531 527.335938 226.996094 528.703125 228.667969 528.707031 L 285.683594 529.03125 L 285.703125 529.03125 C 287.183594 529.03125 288.453125 527.964844 288.699219 526.5 C 288.738281 526.253906 293.097656 501.65625 309.96875 490.101562 C 318.105469 484.523438 327.957031 482.867188 339.246094 485.179688 C 348.925781 487.167969 359.804688 484.363281 367.65625 477.871094 C 374.59375 472.125 378.355469 464.335938 378.257812 455.925781 C 378.226562 452.988281 377.941406 450.289062 377.695312 447.914062 C 377.066406 441.800781 376.605469 437.382812 380.054688 431.765625 C 380.652344 430.792969 381.390625 429.734375 382.175781 428.613281 C 385.324219 424.097656 388.890625 418.980469 387.734375 413.617188 C 387.371094 411.929688 386.5625 410.390625 385.308594 409.015625 C 391.746094 403.203125 389.300781 395.875 387.453125 390.328125 C 386.105469 386.289062 384.941406 382.800781 386.375 380.097656 C 387.921875 377.164062 390.554688 374.367188 393.339844 371.414062 " fill-opacity="1" fill-rule="nonzero"/></g><g fill="rgb(0%, 45.878601%, 100%)" fill-opacity="1"><g transform="translate(137.259792, 627.006799)"><g><path d="M 57.40625 0.875 C 44.269531 0.875 34.023438 -2.894531 26.671875 -10.4375 C 19.328125 -17.976562 15.65625 -28.945312 15.65625 -43.34375 L 15.65625 -101.484375 L 26.390625 -101.484375 L 26.390625 -43.78125 C 26.390625 -31.988281 29.046875 -23.191406 34.359375 -17.390625 C 39.671875 -11.597656 47.351562 -8.703125 57.40625 -8.703125 C 67.5625 -8.703125 75.296875 -11.597656 80.609375 -17.390625 C 85.921875 -23.191406 88.578125 -31.988281 88.578125 -43.78125 L 88.578125 -101.484375 L 99.03125 -101.484375 L 99.03125 -43.34375 C 99.03125 -28.945312 95.378906 -17.976562 88.078125 -10.4375 C 80.773438 -2.894531 70.550781 0.875 57.40625 0.875 Z M 57.40625 0.875 "/></g></g></g><g fill="rgb(0%, 45.878601%, 100%)" fill-opacity="1"><g transform="translate(252.076633, 627.006799)"><g><path d="M 53.640625 -76.84375 C 60.796875 -76.84375 67.269531 -75.222656 73.0625 -71.984375 C 78.863281 -68.742188 83.40625 -64.175781 86.6875 -58.28125 C 89.976562 -52.382812 91.625 -45.664062 91.625 -38.125 C 91.625 -30.488281 89.976562 -23.722656 86.6875 -17.828125 C 83.40625 -11.929688 78.890625 -7.363281 73.140625 -4.125 C 67.390625 -0.894531 60.890625 0.71875 53.640625 0.71875 C 47.453125 0.71875 41.867188 -0.554688 36.890625 -3.109375 C 31.921875 -5.671875 27.835938 -9.421875 24.640625 -14.359375 L 24.640625 28.125 L 14.359375 28.125 L 14.359375 -76.265625 L 24.21875 -76.265625 L 24.21875 -61.1875 C 27.3125 -66.207031 31.394531 -70.070312 36.46875 -72.78125 C 41.539062 -75.488281 47.265625 -76.84375 53.640625 -76.84375 Z M 52.921875 -8.40625 C 58.234375 -8.40625 63.0625 -9.632812 67.40625 -12.09375 C 71.757812 -14.5625 75.171875 -18.066406 77.640625 -22.609375 C 80.109375 -27.160156 81.34375 -32.332031 81.34375 -38.125 C 81.34375 -43.925781 80.109375 -49.070312 77.640625 -53.5625 C 75.171875 -58.0625 71.757812 -61.566406 67.40625 -64.078125 C 63.0625 -66.597656 58.234375 -67.859375 52.921875 -67.859375 C 47.503906 -67.859375 42.644531 -66.597656 38.34375 -64.078125 C 34.039062 -61.566406 30.65625 -58.0625 28.1875 -53.5625 C 25.726562 -49.070312 24.5 -43.925781 24.5 -38.125 C 24.5 -32.332031 25.726562 -27.160156 28.1875 -22.609375 C 30.65625 -18.066406 34.039062 -14.5625 38.34375 -12.09375 C 42.644531 -9.632812 47.503906 -8.40625 52.921875 -8.40625 Z M 52.921875 -8.40625 "/></g></g></g><g fill="rgb(0%, 45.878601%, 100%)" fill-opacity="1"><g transform="translate(350.36681, 627.006799)"><g/></g></g><g fill="rgb(0%, 45.878601%, 100%)" fill-opacity="1"><g transform="translate(388.349144, 627.006799)"><g><path d="M 101.34375 -101.484375 L 101.34375 0 L 90.765625 0 L 90.765625 -46.828125 L 27.25 -46.828125 L 27.25 0 L 16.53125 0 L 16.53125 -101.484375 L 27.25 -101.484375 L 27.25 -56.25 L 90.765625 -56.25 L 90.765625 -101.484375 Z M 101.34375 -101.484375 "/></g></g></g><g fill="rgb(0%, 45.878601%, 100%)" fill-opacity="1"><g transform="translate(506.210374, 627.006799)"><g><path d="M 80.75 -34.9375 L 16.96875 -34.9375 C 17.539062 -27.007812 20.582031 -20.601562 26.09375 -15.71875 C 31.601562 -10.84375 38.5625 -8.40625 46.96875 -8.40625 C 51.707031 -8.40625 56.054688 -9.25 60.015625 -10.9375 C 63.984375 -12.632812 67.414062 -15.125 70.3125 -18.40625 L 76.109375 -11.75 C 72.734375 -7.6875 68.503906 -4.59375 63.421875 -2.46875 C 58.347656 -0.34375 52.769531 0.71875 46.6875 0.71875 C 38.851562 0.71875 31.914062 -0.945312 25.875 -4.28125 C 19.832031 -7.613281 15.117188 -12.226562 11.734375 -18.125 C 8.359375 -24.019531 6.671875 -30.6875 6.671875 -38.125 C 6.671875 -45.570312 8.289062 -52.242188 11.53125 -58.140625 C 14.769531 -64.035156 19.210938 -68.625 24.859375 -71.90625 C 30.515625 -75.195312 36.875 -76.84375 43.9375 -76.84375 C 50.988281 -76.84375 57.316406 -75.195312 62.921875 -71.90625 C 68.523438 -68.625 72.921875 -64.054688 76.109375 -58.203125 C 79.304688 -52.359375 80.90625 -45.664062 80.90625 -38.125 Z M 43.9375 -68 C 36.582031 -68 30.414062 -65.65625 25.4375 -60.96875 C 20.46875 -56.28125 17.644531 -50.164062 16.96875 -42.625 L 71.046875 -42.625 C 70.367188 -50.164062 67.539062 -56.28125 62.5625 -60.96875 C 57.582031 -65.65625 51.375 -68 43.9375 -68 Z M 43.9375 -68 "/></g></g></g><g fill="rgb(0%, 45.878601%, 100%)" fill-opacity="1"><g transform="translate(593.772732, 627.006799)"><g><path d="M 41.03125 -76.84375 C 50.988281 -76.84375 58.625 -74.351562 63.9375 -69.375 C 69.25 -64.394531 71.90625 -57.023438 71.90625 -47.265625 L 71.90625 0 L 62.046875 0 L 62.046875 -11.890625 C 59.734375 -7.921875 56.328125 -4.828125 51.828125 -2.609375 C 47.335938 -0.390625 42 0.71875 35.8125 0.71875 C 27.300781 0.71875 20.53125 -1.304688 15.5 -5.359375 C 10.476562 -9.421875 7.96875 -14.785156 7.96875 -21.453125 C 7.96875 -27.929688 10.3125 -33.148438 15 -37.109375 C 19.6875 -41.078125 27.15625 -43.0625 37.40625 -43.0625 L 61.625 -43.0625 L 61.625 -47.703125 C 61.625 -54.273438 59.785156 -59.273438 56.109375 -62.703125 C 52.429688 -66.140625 47.066406 -67.859375 40.015625 -67.859375 C 35.179688 -67.859375 30.539062 -67.054688 26.09375 -65.453125 C 21.644531 -63.859375 17.828125 -61.660156 14.640625 -58.859375 L 10 -66.546875 C 13.863281 -69.835938 18.503906 -72.375 23.921875 -74.15625 C 29.335938 -75.945312 35.039062 -76.84375 41.03125 -76.84375 Z M 37.40625 -7.390625 C 43.207031 -7.390625 48.1875 -8.71875 52.34375 -11.375 C 56.5 -14.039062 59.59375 -17.882812 61.625 -22.90625 L 61.625 -35.375 L 37.703125 -35.375 C 24.648438 -35.375 18.125 -30.832031 18.125 -21.75 C 18.125 -17.300781 19.8125 -13.796875 23.1875 -11.234375 C 26.570312 -8.671875 31.3125 -7.390625 37.40625 -7.390625 Z M 37.40625 -7.390625 "/></g></g></g><g fill="rgb(0%, 45.878601%, 100%)" fill-opacity="1"><g transform="translate(679.305497, 627.006799)"><g><path d="M 14.359375 -107.578125 L 24.640625 -107.578125 L 24.640625 0 L 14.359375 0 Z M 14.359375 -107.578125 "/></g></g></g></svg>