<svg xmlns="http://www.w3.org/2000/svg" xmlns:xlink="http://www.w3.org/1999/xlink" width="1080" zoomAndPan="magnify" viewBox="0 0 810 809.999993" height="1080" preserveAspectRatio="xMidYMid meet" version="1.0"><defs><g/><clipPath id="id1"><path d="M 66.667969 301.476562 L 743.167969 301.476562 L 743.167969 653 L 66.667969 653 Z M 66.667969 301.476562 " clip-rule="nonzero"/></clipPath><clipPath id="id2"><path d="M 66.667969 301.476562 L 165 301.476562 L 165 401 L 66.667969 401 Z M 66.667969 301.476562 " clip-rule="nonzero"/></clipPath><clipPath id="id3"><path d="M 85 126 L 386 126 L 386 491.546875 L 85 491.546875 Z M 85 126 " clip-rule="nonzero"/></clipPath></defs><g clip-path="url(#id1)"><path fill="rgb(100%, 50.979614%, 58.428955%)" d="M 743.167969 526.464844 C 743.167969 596.300781 686.550781 652.914062 616.710938 652.914062 L 193.121094 652.914062 C 123.28125 652.914062 66.667969 596.300781 66.667969 526.464844 C 66.667969 524.488281 66.726562 522.523438 66.816406 520.566406 L 66.667969 520.566406 L 66.667969 301.808594 L 164.882812 400.019531 L 616.710938 400.019531 C 686.550781 400.019531 743.167969 456.632812 743.167969 526.464844 Z M 743.167969 526.464844 " fill-opacity="1" fill-rule="nonzero"/></g><g clip-path="url(#id2)"><path fill="rgb(85.099792%, 85.099792%, 85.099792%)" d="M 164.882812 400.019531 L 66.667969 400.019531 L 66.667969 301.808594 Z M 164.882812 400.019531 " fill-opacity="1" fill-rule="nonzero"/></g><path fill="rgb(85.099792%, 85.099792%, 85.099792%)" d="M 213.277344 224.722656 C 213.40625 224.785156 213.539062 224.835938 213.675781 224.867188 C 213.804688 224.902344 213.9375 224.921875 214.070312 224.925781 C 214.839844 224.957031 215.589844 224.542969 215.953125 223.804688 C 218.886719 217.824219 224.855469 214.203125 231.261719 214.480469 C 231.425781 214.492188 231.582031 214.5 231.746094 214.507812 C 237.496094 214.941406 244.007812 218.023438 245.597656 223.96875 C 245.824219 224.835938 246.585938 225.414062 247.433594 225.449219 C 247.636719 225.460938 247.835938 225.4375 248.035156 225.386719 C 249.101562 225.101562 249.738281 224.007812 249.449219 222.9375 C 247.363281 215.097656 239.199219 211.058594 232.039062 210.53125 C 231.835938 210.515625 231.628906 210.503906 231.429688 210.492188 C 223.4375 210.148438 216.003906 214.632812 212.363281 222.050781 C 211.882812 223.042969 212.285156 224.234375 213.277344 224.722656 " fill-opacity="1" fill-rule="nonzero"/><path fill="rgb(85.099792%, 85.099792%, 85.099792%)" d="M 253.652344 262.148438 C 260.667969 266.214844 269.300781 263.300781 274.730469 258.605469 C 274.886719 258.464844 275.039062 258.332031 275.191406 258.203125 C 281.082031 252.789062 283.171875 244.355469 280.5 236.53125 C 280.144531 235.488281 279.007812 234.933594 277.964844 235.289062 C 277.832031 235.335938 277.707031 235.394531 277.589844 235.46875 C 277.46875 235.535156 277.359375 235.617188 277.265625 235.703125 C 276.695312 236.226562 276.460938 237.050781 276.722656 237.824219 C 278.875 244.136719 277.210938 250.921875 272.488281 255.253906 C 272.367188 255.367188 272.246094 255.472656 272.128906 255.578125 C 267.757812 259.347656 260.96875 261.777344 255.652344 258.691406 C 254.875 258.246094 253.925781 258.371094 253.304688 258.949219 C 253.15625 259.085938 253.03125 259.238281 252.921875 259.421875 C 252.371094 260.378906 252.699219 261.597656 253.652344 262.148438 " fill-opacity="1" fill-rule="nonzero"/><path fill="rgb(85.099792%, 85.099792%, 85.099792%)" d="M 225.351562 263.691406 C 226.082031 263.464844 226.488281 262.679688 226.261719 261.949219 L 226.148438 261.683594 L 225.988281 261.453125 C 225.628906 261.046875 225.066406 260.863281 224.519531 261.035156 C 220.085938 262.417969 215.390625 261.125 212.460938 257.742188 L 212.242188 257.488281 C 209.703125 254.363281 208.140625 249.582031 210.390625 245.929688 C 210.71875 245.40625 210.644531 244.742188 210.257812 244.285156 C 210.167969 244.1875 210.058594 244.089844 209.933594 244.019531 C 209.28125 243.613281 208.417969 243.824219 208.019531 244.472656 C 205.199219 249.054688 206.753906 254.773438 209.640625 258.660156 C 207.863281 261.550781 204.753906 263.5 201.128906 263.902344 C 197.304688 264.324219 193.671875 262.972656 191.332031 260.277344 L 191.167969 260.089844 C 188.140625 256.421875 186.96875 250.125 190.050781 246.605469 C 190.511719 246.070312 190.503906 245.292969 190.058594 244.769531 L 189.925781 244.636719 C 189.347656 244.128906 188.464844 244.1875 187.957031 244.765625 C 186.652344 246.253906 185.902344 248.050781 185.609375 249.957031 C 181.429688 250.9375 177.132812 249.605469 174.386719 246.441406 L 174.171875 246.175781 C 171.625 243.0625 170.070312 238.277344 172.316406 234.625 C 172.644531 234.09375 172.570312 233.421875 172.179688 232.980469 C 172.09375 232.875 171.984375 232.785156 171.859375 232.707031 C 171.207031 232.304688 170.351562 232.511719 169.949219 233.164062 C 166.984375 237.980469 168.84375 244.054688 172.011719 247.941406 C 172.101562 248.050781 172.199219 248.15625 172.289062 248.261719 C 175.550781 252.027344 180.546875 253.710938 185.496094 252.816406 C 185.695312 256.125 187.039062 259.460938 189.027344 261.867188 L 189.230469 262.113281 C 192.164062 265.496094 196.699219 267.195312 201.4375 266.671875 C 205.636719 266.210938 209.300781 264.046875 211.578125 260.804688 C 215.234375 264.09375 220.425781 265.226562 225.351562 263.691406 " fill-opacity="1" fill-rule="nonzero"/><path fill="rgb(85.099792%, 85.099792%, 85.099792%)" d="M 177.011719 192.917969 C 174.558594 197.601562 174.078125 202.65625 175.820312 206.921875 C 176.164062 207.773438 177.238281 208.058594 178.183594 207.636719 C 178.292969 207.589844 178.394531 207.535156 178.484375 207.46875 C 179.25 206.957031 179.609375 206.03125 179.300781 205.273438 C 177.628906 201.195312 178.507812 196.164062 181.65625 191.816406 C 182.992188 189.96875 184.625 188.398438 186.441406 187.171875 C 188.871094 185.527344 191.617188 184.511719 194.394531 184.292969 C 200.707031 183.800781 207.871094 187.101562 208.472656 192.804688 C 208.574219 193.738281 209.476562 194.3125 210.488281 194.078125 C 210.628906 194.046875 210.765625 194 210.898438 193.945312 C 211.011719 193.890625 211.132812 193.828125 211.234375 193.761719 C 211.84375 193.347656 212.222656 192.652344 212.15625 191.964844 C 211.34375 184.292969 202.421875 180.210938 194.621094 180.8125 C 191.125 181.089844 187.675781 182.363281 184.636719 184.414062 C 182.523438 185.847656 180.613281 187.644531 179.023438 189.75 C 174.394531 187.558594 168.5 187.671875 162.898438 190.167969 L 162.875 190.175781 C 161.558594 190.769531 160.308594 191.464844 159.144531 192.25 C 154.875 195.136719 151.75 199.253906 150.503906 203.789062 C 150.238281 204.746094 150.824219 205.613281 151.808594 205.726562 C 152.171875 205.765625 152.535156 205.699219 152.867188 205.554688 C 152.984375 205.5 153.105469 205.433594 153.210938 205.363281 C 153.617188 205.082031 153.941406 204.667969 154.074219 204.191406 C 155.0625 200.589844 157.566406 197.308594 160.996094 194.984375 C 161.945312 194.347656 162.960938 193.78125 164.035156 193.300781 L 164.058594 193.285156 C 168.585938 191.277344 173.332031 191.167969 177.011719 192.917969 " fill-opacity="1" fill-rule="nonzero"/><path fill="rgb(85.099792%, 85.099792%, 85.099792%)" d="M 263.1875 176.890625 C 263.519531 176.957031 263.875 176.945312 264.226562 176.828125 C 266.796875 175.980469 269.53125 175.855469 272.183594 176.40625 C 274.707031 176.9375 277.164062 178.078125 279.324219 179.796875 C 283.367188 183.003906 285.648438 187.644531 285.648438 192.402344 C 280 192.945312 274.886719 195.671875 271.570312 200.097656 C 270.902344 200.976562 271.082031 202.234375 271.964844 202.898438 C 272.203125 203.082031 272.472656 203.199219 272.757812 203.253906 C 273.488281 203.402344 274.277344 203.140625 274.757812 202.496094 C 277.933594 198.261719 283.203125 195.949219 288.851562 196.300781 C 289.707031 196.359375 290.539062 196.472656 291.359375 196.636719 C 295.914062 197.589844 299.769531 200.289062 301.96875 204.152344 C 305.34375 210.085938 305.4375 219.28125 300.207031 223.488281 C 299.351562 224.179688 299.214844 225.433594 299.90625 226.296875 C 300.203125 226.675781 300.617188 226.910156 301.050781 227.003906 C 301.613281 227.117188 302.226562 226.992188 302.710938 226.601562 C 309.75 220.945312 309.605469 209.519531 305.4375 202.179688 C 303.363281 198.527344 300.140625 195.714844 296.273438 194.027344 C 294.992188 193.472656 293.636719 193.050781 292.238281 192.753906 C 291.386719 192.578125 290.523438 192.449219 289.632812 192.371094 C 289.628906 186.40625 286.800781 180.632812 281.804688 176.667969 C 280.304688 175.472656 278.683594 174.5 276.992188 173.765625 C 275.695312 173.203125 274.359375 172.777344 272.996094 172.496094 C 269.671875 171.804688 266.222656 171.960938 262.972656 173.039062 C 261.925781 173.378906 261.355469 174.515625 261.703125 175.5625 C 261.929688 176.261719 262.511719 176.75 263.1875 176.890625 " fill-opacity="1" fill-rule="nonzero"/><g clip-path="url(#id3)"><path fill="rgb(85.099792%, 85.099792%, 85.099792%)" d="M 210.535156 273.21875 L 210.289062 273.097656 C 209.261719 272.695312 208.101562 273.203125 207.699219 274.226562 C 206.664062 276.875 206.527344 279.660156 207.050781 282.375 C 201.890625 285.734375 195.449219 286.03125 190.207031 283.089844 C 190.074219 283.015625 189.929688 282.933594 189.789062 282.847656 C 184.839844 279.878906 180.414062 274.1875 181.667969 268.164062 C 181.828125 267.414062 181.519531 266.6875 180.964844 266.226562 C 180.550781 265.617188 179.867188 265.304688 179.175781 265.34375 C 178.839844 265.367188 178.503906 265.476562 178.199219 265.675781 C 175.941406 267.175781 173.339844 268.027344 170.636719 268.195312 C 168.058594 268.355469 165.386719 267.898438 162.847656 266.816406 C 158.105469 264.789062 154.675781 260.925781 153.414062 256.328125 C 158.726562 254.3125 162.929688 250.332031 164.964844 245.183594 C 165.375 244.160156 164.863281 242.992188 163.839844 242.589844 C 163.558594 242.480469 163.269531 242.433594 162.984375 242.457031 C 162.238281 242.5 161.546875 242.972656 161.253906 243.71875 C 159.308594 248.640625 154.84375 252.265625 149.300781 253.421875 C 148.460938 253.589844 147.625 253.703125 146.792969 253.757812 C 142.148438 254.046875 137.714844 252.46875 134.574219 249.328125 C 129.746094 244.488281 127.226562 235.652344 131.160156 230.210938 C 131.742188 229.40625 131.632812 228.332031 130.957031 227.648438 C 130.835938 227.445312 130.679688 227.253906 130.484375 227.09375 C 124.933594 222.507812 122.761719 215.472656 124.660156 208.261719 C 126.203125 202.433594 130.160156 197.710938 135.277344 195.300781 C 136.746094 194.601562 138.308594 194.097656 139.933594 193.816406 C 140.140625 193.78125 140.335938 193.71875 140.515625 193.632812 C 140.953125 193.429688 141.304688 193.085938 141.53125 192.675781 C 142.175781 192.316406 142.632812 191.664062 142.699219 190.878906 C 143.296875 183.933594 147.375 178.039062 153.34375 175.21875 C 154.128906 174.847656 154.953125 174.527344 155.800781 174.261719 C 162.1875 172.300781 170.460938 172.910156 174.644531 178.644531 L 174.667969 178.65625 C 175.046875 179.175781 175.632812 179.53125 176.320312 179.59375 C 176.570312 179.617188 176.820312 179.59375 177.050781 179.535156 C 177.183594 179.507812 177.300781 179.457031 177.421875 179.410156 C 177.570312 179.335938 177.714844 179.238281 177.855469 179.144531 L 177.863281 179.144531 L 177.9375 179.070312 C 178.117188 178.933594 178.261719 178.777344 178.394531 178.585938 L 178.527344 178.378906 L 178.65625 178.089844 C 178.722656 177.925781 178.757812 177.753906 178.785156 177.585938 L 178.808594 177.492188 C 179.402344 170.558594 183.488281 164.65625 189.453125 161.835938 C 190.242188 161.460938 191.0625 161.144531 191.914062 160.886719 C 198.035156 158.992188 205.96875 159.507812 210.285156 164.679688 C 210.414062 164.886719 210.566406 165.085938 210.761719 165.261719 C 211.425781 166.167969 212.617188 166.445312 213.601562 165.980469 L 213.730469 165.910156 C 214.394531 165.746094 215.011719 165.402344 215.453125 164.878906 C 219.304688 160.347656 225.125 157.3125 231.640625 156.277344 C 233.4375 155.996094 235.285156 155.863281 237.164062 155.902344 L 237.195312 155.902344 C 245.082031 156.050781 251.996094 159.101562 256.128906 164.109375 C 249.4375 169.210938 245.328125 176.175781 244.96875 183.496094 C 244.890625 184.957031 246.257812 186.089844 247.898438 186.125 C 248.085938 186.128906 248.265625 186.109375 248.445312 186.082031 C 249.890625 185.855469 251.027344 184.773438 251.09375 183.46875 C 251.441406 176.460938 256.097656 169.800781 263.566406 165.652344 C 266.746094 163.890625 270.160156 162.730469 273.597656 162.1875 C 278.207031 161.457031 282.855469 161.851562 287 163.410156 C 296.441406 166.960938 304.539062 176.558594 301.566406 185.183594 C 301.082031 186.597656 302 188.03125 303.625 188.378906 C 303.847656 188.429688 304.074219 188.457031 304.292969 188.464844 C 304.5 188.46875 304.710938 188.449219 304.90625 188.421875 L 305.148438 188.355469 C 311.324219 188.664062 316.734375 192.234375 319.246094 197.726562 C 319.316406 197.875 319.378906 198.023438 319.441406 198.167969 C 320.71875 201.203125 321.925781 210.109375 321.375 213.449219 L 321.378906 213.449219 C 321.324219 213.660156 321.292969 213.886719 321.3125 214.117188 C 321.875 220.761719 318.609375 226.9375 312.972656 230 C 312.835938 230.078125 312.691406 230.148438 312.546875 230.226562 C 307.394531 232.816406 300.226562 233.519531 295.8125 229.238281 C 295.171875 228.609375 294.214844 228.515625 293.464844 228.917969 C 293.296875 229.011719 293.132812 229.132812 292.984375 229.28125 C 292.222656 230.078125 292.242188 231.34375 293.03125 232.105469 C 298.566406 237.484375 307.046875 237.070312 313.386719 234.238281 C 316.878906 237.617188 318.640625 242.578125 318.078125 247.789062 C 317.480469 253.273438 314.464844 257.957031 309.976562 260.390625 C 309.875 260.449219 309.769531 260.5 309.664062 260.554688 C 303.585938 263.667969 294.417969 263.363281 290.445312 257.945312 C 289.84375 257.132812 288.746094 256.902344 287.882812 257.371094 L 287.65625 257.519531 C 286.765625 258.167969 286.570312 259.421875 287.222656 260.308594 C 288.902344 262.597656 291.1875 264.207031 293.75 265.214844 C 293.832031 271.375 290.640625 276.976562 285.359375 279.84375 C 285.21875 279.925781 285.070312 279.996094 284.925781 280.070312 C 279.773438 282.675781 272.601562 283.371094 268.1875 279.089844 C 268.058594 278.960938 267.898438 278.863281 267.742188 278.777344 L 267.730469 278.753906 C 267.644531 278.640625 267.546875 278.539062 267.441406 278.449219 C 267.339844 278.363281 267.230469 278.28125 267.109375 278.222656 C 266.441406 277.84375 265.582031 277.871094 264.933594 278.367188 C 259.621094 282.386719 252.65625 282.933594 247.0625 279.800781 C 246.921875 279.722656 246.78125 279.648438 246.644531 279.566406 C 241.703125 276.589844 237.273438 270.894531 238.527344 264.878906 C 238.710938 264 238.285156 263.136719 237.550781 262.726562 C 237.371094 262.625 237.183594 262.554688 236.984375 262.507812 C 235.902344 262.289062 234.84375 262.980469 234.621094 264.066406 C 233.039062 271.621094 237.921875 278.566406 243.703125 282.414062 C 242.71875 287.175781 239.464844 291.320312 234.769531 293.628906 C 229.824219 296.054688 224.257812 296.011719 219.792969 293.515625 L 219.492188 293.34375 C 213.613281 289.863281 208.964844 281.945312 211.421875 275.683594 C 211.785156 274.746094 211.394531 273.695312 210.535156 273.21875 Z M 375.660156 337.796875 C 380.609375 332.539062 386.222656 326.585938 385.972656 318.421875 C 385.703125 309.730469 379.785156 302.824219 374.558594 296.734375 C 372.414062 294.234375 370.390625 291.875 368.773438 289.480469 C 359.40625 275.628906 353.214844 263.347656 350.863281 253.957031 C 349.644531 249.089844 350.71875 244.863281 351.96875 239.96875 C 352.984375 235.980469 354.035156 231.855469 353.921875 227.007812 C 353.613281 214.179688 350.875 206.203125 348.457031 199.160156 C 347.816406 197.296875 347.214844 195.535156 346.652344 193.707031 C 345.300781 189.296875 339.851562 173.761719 326.363281 158.84375 C 309.410156 140.09375 286.835938 129.597656 259.257812 127.652344 C 255.464844 127.183594 190.027344 119.585938 148.476562 144.058594 C 146.921875 144.867188 129.414062 154.316406 113.164062 177.105469 C 97.875 198.550781 80.941406 236.382812 87.113281 294.832031 C 87.28125 296.460938 88.734375 297.621094 90.375 297.472656 C 92.003906 297.300781 93.183594 295.835938 93.011719 294.207031 C 87.058594 237.792969 103.207031 201.414062 117.800781 180.828125 C 133.613281 158.523438 151.089844 149.394531 151.261719 149.308594 L 151.421875 149.214844 C 191.546875 125.523438 257.9375 133.476562 258.605469 133.554688 L 258.761719 133.570312 C 320.289062 137.871094 338.042969 185.871094 340.980469 195.441406 C 341.570312 197.371094 342.21875 199.261719 342.84375 201.089844 C 345.230469 208.046875 347.703125 215.242188 347.988281 227.152344 C 348.085938 231.183594 347.175781 234.738281 346.214844 238.5 C 344.890625 243.699219 343.523438 249.078125 345.105469 255.402344 C 347.660156 265.601562 353.972656 278.179688 363.855469 292.808594 C 365.664062 295.488281 367.898438 298.085938 370.058594 300.605469 C 375.085938 306.46875 379.839844 312.007812 380.039062 318.605469 C 380.210938 324.304688 375.902344 328.875 371.339844 333.71875 C 368.46875 336.765625 365.503906 339.914062 363.613281 343.488281 C 361.023438 348.371094 362.75 353.558594 364.28125 358.128906 C 366.554688 364.953125 367.386719 368.382812 361.445312 371.757812 C 360.527344 372.28125 359.953125 373.253906 359.941406 374.3125 C 359.9375 375.367188 360.484375 376.351562 361.394531 376.894531 C 363.148438 377.929688 364.125 379.023438 364.386719 380.226562 C 364.96875 382.921875 362.152344 386.957031 359.886719 390.191406 C 359.070312 391.367188 358.296875 392.46875 357.628906 393.5625 C 353.203125 400.761719 353.820312 406.726562 354.476562 413.039062 C 354.714844 415.335938 354.964844 417.710938 354.992188 420.3125 C 355.066406 426.6875 352.15625 432.636719 346.792969 437.066406 C 340.476562 442.289062 331.753906 444.558594 324.015625 442.964844 C 311.347656 440.375 300.199219 442.289062 290.875 448.679688 C 275.484375 459.214844 269.730469 478.691406 268.117188 485.609375 L 217.796875 485.328125 L 217.882812 297.015625 C 223.476562 300.140625 230.410156 300.21875 236.53125 297.210938 C 241.964844 294.542969 245.871094 289.851562 247.359375 284.363281 C 253.410156 286.816406 260.335938 286.140625 266.003906 282.480469 C 271.835938 287.53125 280.519531 286.769531 286.722656 283.644531 C 286.90625 283.542969 287.082031 283.453125 287.265625 283.351562 C 293.539062 279.945312 297.445312 273.46875 297.722656 266.261719 C 302.417969 266.996094 307.5 266.160156 311.484375 264.109375 C 311.617188 264.042969 311.75 263.976562 311.886719 263.902344 C 317.527344 260.835938 321.3125 255.007812 322.042969 248.214844 C 322.695312 242.1875 320.820312 236.378906 316.988281 232.183594 C 322.308594 228.375 326.285156 222.496094 325.140625 210.972656 C 326.078125 206.410156 324.800781 200.597656 323.117188 196.613281 C 323.039062 196.429688 322.957031 196.242188 322.871094 196.058594 C 320.097656 189.988281 314.507812 185.808594 307.945312 184.660156 C 310.390625 173.644531 300.734375 162.710938 289.679688 158.546875 C 284.449219 156.574219 278.617188 156.085938 272.851562 156.996094 C 268.84375 157.625 264.878906 158.9375 261.160156 160.894531 C 255.96875 154.617188 247.390625 150.796875 237.632812 150.613281 L 237.589844 150.613281 C 235.289062 150.574219 233.023438 150.738281 230.816406 151.082031 C 223.597656 152.226562 217.046875 155.390625 212.269531 160.089844 C 206.453125 154.808594 197.519531 154.347656 190.566406 156.472656 C 189.503906 156.804688 188.472656 157.199219 187.484375 157.664062 C 181.402344 160.542969 176.894531 165.972656 175.054688 172.5625 C 169.257812 168.152344 160.988281 167.847656 154.457031 169.859375 C 153.386719 170.179688 152.359375 170.585938 151.371094 171.050781 C 144.230469 174.425781 139.269531 181.3125 138.234375 189.464844 C 136.515625 189.839844 134.867188 190.410156 133.300781 191.140625 C 126.988281 194.128906 122.101562 199.929688 120.210938 207.085938 C 117.933594 215.714844 120.375 224.160156 126.726562 229.917969 C 123.234375 237.121094 126.324219 246.703125 131.753906 252.148438 C 134.714844 255.117188 138.570312 256.980469 142.742188 257.578125 C 144.125 257.773438 145.542969 257.824219 146.972656 257.742188 C 147.835938 257.683594 148.710938 257.578125 149.578125 257.417969 C 151.167969 263.167969 155.421875 267.992188 161.285156 270.488281 C 163.050781 271.242188 164.863281 271.757812 166.691406 272.011719 C 168.09375 272.214844 169.5 272.265625 170.882812 272.183594 C 173.167969 272.039062 175.390625 271.5 177.480469 270.589844 C 177.640625 277.234375 182.425781 283.089844 187.734375 286.277344 C 187.90625 286.378906 188.085938 286.480469 188.261719 286.582031 C 194.496094 290.070312 202.054688 289.910156 208.289062 286.285156 C 209.199219 288.378906 210.460938 290.351562 211.949219 292.089844 L 211.863281 488.277344 C 211.859375 489.90625 213.179688 491.242188 214.8125 491.246094 L 270.503906 491.558594 L 270.523438 491.558594 C 271.96875 491.558594 273.207031 490.523438 273.449219 489.09375 C 273.488281 488.851562 277.746094 464.855469 294.226562 453.582031 C 302.171875 448.140625 311.792969 446.523438 322.820312 448.785156 C 332.277344 450.722656 342.902344 447.988281 350.574219 441.652344 C 357.347656 436.046875 361.023438 428.449219 360.925781 420.242188 C 360.894531 417.375 360.617188 414.742188 360.378906 412.425781 C 359.761719 406.460938 359.3125 402.152344 362.683594 396.671875 C 363.265625 395.726562 363.988281 394.691406 364.753906 393.597656 C 367.828125 389.191406 371.3125 384.199219 370.183594 378.96875 C 369.832031 377.320312 369.039062 375.820312 367.816406 374.480469 C 374.101562 368.808594 371.714844 361.660156 369.90625 356.25 C 368.59375 352.304688 367.457031 348.90625 368.855469 346.269531 C 370.367188 343.40625 372.9375 340.675781 375.660156 337.796875 " fill-opacity="1" fill-rule="nonzero"/></g><g fill="rgb(85.099792%, 85.099792%, 85.099792%)" fill-opacity="1"><g transform="translate(121.6227, 588.431246)"><g><path d="M 56.1875 0.5625 C 43.914062 0.5625 34.359375 -3.019531 27.515625 -10.1875 C 20.679688 -17.351562 17.265625 -27.875 17.265625 -41.75 L 17.265625 -99.0625 L 22.078125 -99.0625 L 22.078125 -41.890625 C 22.078125 -29.242188 25 -19.738281 30.84375 -13.375 C 36.695312 -7.007812 45.144531 -3.828125 56.1875 -3.828125 C 67.125 -3.828125 75.539062 -7.007812 81.4375 -13.375 C 87.332031 -19.738281 90.28125 -29.242188 90.28125 -41.890625 L 90.28125 -99.0625 L 94.953125 -99.0625 L 94.953125 -41.75 C 94.953125 -27.875 91.554688 -17.351562 84.765625 -10.1875 C 77.972656 -3.019531 68.445312 0.5625 56.1875 0.5625 Z M 56.1875 0.5625 "/></g></g></g><g fill="rgb(85.099792%, 85.099792%, 85.099792%)" fill-opacity="1"><g transform="translate(233.844626, 588.431246)"><g><path d="M 51.9375 -74.015625 C 58.632812 -74.015625 64.71875 -72.429688 70.1875 -69.265625 C 75.664062 -66.109375 79.984375 -61.675781 83.140625 -55.96875 C 86.296875 -50.257812 87.875 -43.820312 87.875 -36.65625 C 87.875 -29.476562 86.296875 -23.082031 83.140625 -17.46875 C 79.984375 -11.863281 75.664062 -7.476562 70.1875 -4.3125 C 64.71875 -1.15625 58.632812 0.421875 51.9375 0.421875 C 44.863281 0.421875 38.519531 -1.367188 32.90625 -4.953125 C 27.289062 -8.535156 23.113281 -13.441406 20.375 -19.671875 L 20.375 27.453125 L 15.703125 27.453125 L 15.703125 -73.453125 L 20.234375 -73.453125 L 20.234375 -53.34375 C 22.972656 -59.757812 27.148438 -64.804688 32.765625 -68.484375 C 38.378906 -72.171875 44.769531 -74.015625 51.9375 -74.015625 Z M 51.796875 -3.828125 C 57.734375 -3.828125 63.082031 -5.21875 67.84375 -8 C 72.613281 -10.78125 76.367188 -14.644531 79.109375 -19.59375 C 81.847656 -24.550781 83.21875 -30.238281 83.21875 -36.65625 C 83.21875 -43.070312 81.847656 -48.78125 79.109375 -53.78125 C 76.367188 -58.78125 72.613281 -62.671875 67.84375 -65.453125 C 63.082031 -68.234375 57.734375 -69.625 51.796875 -69.625 C 45.847656 -69.625 40.492188 -68.234375 35.734375 -65.453125 C 30.972656 -62.671875 27.222656 -58.78125 24.484375 -53.78125 C 21.742188 -48.78125 20.375 -43.070312 20.375 -36.65625 C 20.375 -30.238281 21.742188 -24.550781 24.484375 -19.59375 C 27.222656 -14.644531 30.972656 -10.78125 35.734375 -8 C 40.492188 -5.21875 45.847656 -3.828125 51.796875 -3.828125 Z M 51.796875 -3.828125 "/></g></g></g><g fill="rgb(85.099792%, 85.099792%, 85.099792%)" fill-opacity="1"><g transform="translate(329.084665, 588.431246)"><g/></g></g><g fill="rgb(85.099792%, 85.099792%, 85.099792%)" fill-opacity="1"><g transform="translate(364.888145, 588.431246)"><g><path d="M 97.21875 -99.0625 L 97.21875 0 L 92.40625 0 L 92.40625 -48.109375 L 22.921875 -48.109375 L 22.921875 0 L 18.109375 0 L 18.109375 -99.0625 L 22.921875 -99.0625 L 22.921875 -52.5 L 92.40625 -52.5 L 92.40625 -99.0625 Z M 97.21875 -99.0625 "/></g></g></g><g fill="rgb(85.099792%, 85.099792%, 85.099792%)" fill-opacity="1"><g transform="translate(480.223413, 588.431246)"><g><path d="M 76.28125 -36.09375 L 11.890625 -36.09375 C 11.984375 -29.863281 13.441406 -24.296875 16.265625 -19.390625 C 19.097656 -14.484375 22.988281 -10.660156 27.9375 -7.921875 C 32.894531 -5.191406 38.441406 -3.828125 44.578125 -3.828125 C 49.578125 -3.828125 54.195312 -4.742188 58.4375 -6.578125 C 62.6875 -8.421875 66.179688 -11.132812 68.921875 -14.71875 L 71.890625 -11.609375 C 68.585938 -7.734375 64.578125 -4.757812 59.859375 -2.6875 C 55.140625 -0.613281 50.046875 0.421875 44.578125 0.421875 C 37.410156 0.421875 31.019531 -1.15625 25.40625 -4.3125 C 19.789062 -7.476562 15.378906 -11.890625 12.171875 -17.546875 C 8.960938 -23.203125 7.359375 -29.617188 7.359375 -36.796875 C 7.359375 -43.960938 8.84375 -50.375 11.8125 -56.03125 C 14.789062 -61.695312 18.921875 -66.109375 24.203125 -69.265625 C 29.484375 -72.429688 35.378906 -74.015625 41.890625 -74.015625 C 48.304688 -74.015625 54.128906 -72.457031 59.359375 -69.34375 C 64.597656 -66.226562 68.726562 -61.882812 71.75 -56.3125 C 74.769531 -50.75 76.28125 -44.429688 76.28125 -37.359375 Z M 41.890625 -69.765625 C 36.421875 -69.765625 31.46875 -68.488281 27.03125 -65.9375 C 22.59375 -63.394531 19.050781 -59.832031 16.40625 -55.25 C 13.769531 -50.675781 12.3125 -45.5625 12.03125 -39.90625 L 71.890625 -39.90625 C 71.515625 -45.5625 69.976562 -50.675781 67.28125 -55.25 C 64.59375 -59.832031 61.054688 -63.394531 56.671875 -65.9375 C 52.285156 -68.488281 47.359375 -69.765625 41.890625 -69.765625 Z M 41.890625 -69.765625 "/></g></g></g><g fill="rgb(85.099792%, 85.099792%, 85.099792%)" fill-opacity="1"><g transform="translate(563.859189, 588.431246)"><g><path d="M 39.765625 -74.015625 C 48.535156 -74.015625 55.253906 -71.75 59.921875 -67.21875 C 64.597656 -62.6875 66.9375 -56.128906 66.9375 -47.546875 L 66.9375 0 L 62.40625 0 L 62.40625 -14.71875 C 60.050781 -10 56.535156 -6.296875 51.859375 -3.609375 C 47.191406 -0.921875 41.601562 0.421875 35.09375 0.421875 C 26.882812 0.421875 20.445312 -1.460938 15.78125 -5.234375 C 11.113281 -9.003906 8.78125 -14.003906 8.78125 -20.234375 C 8.78125 -26.179688 10.898438 -31.015625 15.140625 -34.734375 C 19.390625 -38.460938 26.179688 -40.328125 35.515625 -40.328125 L 62.265625 -40.328125 L 62.265625 -47.546875 C 62.265625 -54.816406 60.351562 -60.335938 56.53125 -64.109375 C 52.707031 -67.878906 47.070312 -69.765625 39.625 -69.765625 C 34.4375 -69.765625 29.578125 -68.867188 25.046875 -67.078125 C 20.515625 -65.285156 16.644531 -62.878906 13.4375 -59.859375 L 10.890625 -63.25 C 14.484375 -66.65625 18.800781 -69.300781 23.84375 -71.1875 C 28.894531 -73.070312 34.203125 -74.015625 39.765625 -74.015625 Z M 35.375 -3.53125 C 48.582031 -3.53125 57.546875 -9.429688 62.265625 -21.234375 L 62.265625 -36.515625 L 35.515625 -36.515625 C 27.878906 -36.515625 22.289062 -35.070312 18.75 -32.1875 C 15.207031 -29.3125 13.4375 -25.421875 13.4375 -20.515625 C 13.4375 -15.234375 15.394531 -11.082031 19.3125 -8.0625 C 23.226562 -5.039062 28.582031 -3.53125 35.375 -3.53125 Z M 35.375 -3.53125 "/></g></g></g><g fill="rgb(85.099792%, 85.099792%, 85.099792%)" fill-opacity="1"><g transform="translate(645.655236, 588.431246)"><g><path d="M 15.703125 -105 L 20.375 -105 L 20.375 0 L 15.703125 0 Z M 15.703125 -105 "/></g></g></g></svg>