<svg xmlns="http://www.w3.org/2000/svg" xmlns:xlink="http://www.w3.org/1999/xlink" width="1080" zoomAndPan="magnify" viewBox="0 0 810 809.999993" height="1080" preserveAspectRatio="xMidYMid meet" version="1.0"><defs><g/><clipPath id="id1"><path d="M 140.621094 194.113281 L 355.121094 194.113281 L 355.121094 434.113281 L 140.621094 434.113281 Z M 140.621094 194.113281 " clip-rule="nonzero"/></clipPath></defs><path fill="rgb(100%, 100%, 100%)" d="M 388.257812 63.78125 C 208.28125 63.78125 62.382812 209.679688 62.382812 389.65625 C 62.382812 569.628906 208.28125 715.53125 388.257812 715.53125 C 568.234375 715.53125 714.132812 569.628906 714.132812 389.65625 C 714.132812 209.679688 568.234375 63.78125 388.257812 63.78125 " fill-opacity="1" fill-rule="nonzero"/><path fill="rgb(100%, 100%, 100%)" d="M 217.820312 319.632812 C 217.820312 330.207031 226.390625 338.777344 236.964844 338.777344 C 247.542969 338.777344 256.117188 330.207031 256.117188 319.632812 C 256.117188 309.058594 247.542969 300.484375 236.964844 300.484375 C 226.390625 300.484375 217.820312 309.058594 217.820312 319.632812 " fill-opacity="1" fill-rule="nonzero"/><path fill="rgb(0%, 45.878601%, 100%)" d="M 217.820312 319.632812 L 215.402344 319.632812 C 215.402344 325.578125 217.820312 330.984375 221.71875 334.878906 C 225.613281 338.777344 231.019531 341.191406 236.964844 341.191406 C 242.914062 341.191406 248.320312 338.777344 252.21875 334.878906 C 256.117188 330.984375 258.535156 325.578125 258.53125 319.632812 C 258.535156 313.6875 256.117188 308.28125 252.21875 304.382812 C 248.320312 300.488281 242.917969 298.066406 236.964844 298.066406 C 231.019531 298.066406 225.613281 300.488281 221.71875 304.382812 C 217.820312 308.28125 215.402344 313.6875 215.402344 319.632812 L 220.238281 319.632812 C 220.238281 315.003906 222.105469 310.835938 225.136719 307.800781 C 228.171875 304.773438 232.339844 302.902344 236.964844 302.898438 C 241.59375 302.902344 245.765625 304.773438 248.800781 307.800781 C 251.828125 310.835938 253.699219 315.003906 253.699219 319.632812 C 253.699219 324.257812 251.828125 328.425781 248.800781 331.457031 C 245.765625 334.492188 241.59375 336.355469 236.964844 336.359375 C 232.339844 336.355469 228.171875 334.492188 225.136719 331.457031 C 222.105469 328.425781 220.238281 324.257812 220.238281 319.632812 L 217.820312 319.632812 " fill-opacity="1" fill-rule="nonzero"/><g clip-path="url(#id1)"><path fill="rgb(0%, 45.878601%, 100%)" d="M 234.550781 338.667969 C 234.550781 338.667969 234.550781 340.15625 234.550781 342.773438 C 234.550781 350.621094 234.550781 368.578125 234.550781 386.691406 C 234.550781 393.027344 235.71875 398.34375 237.789062 402.726562 C 239.34375 406.015625 241.394531 408.765625 243.773438 411.011719 C 247.34375 414.378906 251.621094 416.605469 256.050781 417.984375 C 260.484375 419.363281 265.082031 419.910156 269.40625 419.910156 C 275.929688 419.910156 283.457031 420.199219 290.941406 420.199219 C 295.507812 420.199219 300.0625 420.09375 304.378906 419.734375 C 308.695312 419.375 312.777344 418.773438 316.421875 417.746094 C 318.039062 417.289062 319.734375 416.464844 321.421875 415.28125 C 323.941406 413.507812 326.441406 410.921875 328.324219 407.523438 C 330.214844 404.121094 331.464844 399.898438 331.460938 394.980469 C 331.460938 392.3125 331.097656 389.4375 330.28125 386.382812 C 330.160156 385.914062 330.105469 385.472656 330.105469 385.03125 C 330.101562 384.054688 330.378906 383.054688 330.871094 382.003906 C 331.605469 380.4375 332.824219 378.847656 333.964844 377.363281 C 334.535156 376.617188 335.082031 375.894531 335.542969 375.117188 C 335.777344 374.726562 335.992188 374.320312 336.164062 373.855469 C 336.332031 373.394531 336.472656 372.867188 336.472656 372.246094 C 336.472656 372.066406 336.460938 371.882812 336.429688 371.6875 L 336.429688 371.691406 C 336.125 369.628906 335.558594 367.214844 335.070312 365.277344 C 334.578125 363.347656 334.164062 361.910156 334.15625 361.894531 L 331.835938 362.5625 L 332.707031 364.820312 C 332.738281 364.804688 337.167969 363.09375 341.976562 360.84375 C 344.386719 359.71875 346.886719 358.460938 349.023438 357.179688 C 350.089844 356.539062 351.066406 355.894531 351.917969 355.226562 C 352.765625 354.546875 353.496094 353.878906 354.078125 352.996094 C 354.726562 352.007812 355.074219 350.828125 355.066406 349.691406 C 355.066406 348.933594 354.925781 348.199219 354.707031 347.507812 C 354.285156 346.214844 353.597656 345.046875 352.769531 343.847656 C 351.320312 341.757812 349.394531 339.558594 347.296875 336.964844 C 344.160156 333.082031 340.640625 328.363281 337.898438 322.277344 C 335.15625 316.183594 333.175781 308.730469 333.171875 299.292969 C 333.171875 298.492188 333.183594 297.675781 333.214844 296.84375 C 333.222656 296.695312 333.253906 296.546875 333.445312 296.1875 C 333.589844 295.921875 333.824219 295.574219 334.113281 295.136719 C 334.550781 294.492188 335.117188 293.648438 335.574219 292.550781 C 336.03125 291.453125 336.347656 290.109375 336.347656 288.558594 C 336.347656 286.847656 335.980469 284.898438 335.144531 282.601562 L 335.148438 282.605469 C 335.046875 282.339844 334.90625 281.765625 334.792969 281.003906 C 334.578125 279.660156 334.394531 277.730469 334.148438 275.414062 C 333.402344 268.433594 332.046875 257.875 326.769531 246.511719 C 323.929688 240.394531 319.761719 234.101562 314.460938 228.066406 C 306.503906 219.023438 296 210.570312 283.566406 204.355469 C 271.128906 198.140625 256.753906 194.175781 241.136719 194.175781 C 225.949219 194.175781 212.554688 195.664062 200.859375 198.777344 C 192.089844 201.113281 184.28125 204.367188 177.425781 208.597656 C 167.148438 214.9375 159.046875 223.492188 153.148438 234.253906 C 147.242188 245.019531 143.511719 257.960938 141.777344 273.167969 C 140.964844 280.269531 140.589844 286.636719 140.589844 292.398438 C 140.589844 306.144531 142.730469 316.449219 146.132812 324.832031 C 148.679688 331.117188 151.917969 336.296875 155.382812 341.027344 C 160.585938 348.125 166.253906 354.21875 171.144531 361.714844 C 176.03125 369.207031 180.222656 378.09375 182.550781 390.976562 C 183.261719 394.917969 183.566406 398.832031 183.566406 402.628906 C 183.570312 413.28125 181.171875 423.050781 178.761719 430.132812 C 177.558594 433.675781 176.355469 436.542969 175.460938 438.511719 C 175.011719 439.5 174.640625 440.261719 174.382812 440.769531 C 174.253906 441.023438 174.15625 441.214844 174.089844 441.339844 L 174.019531 441.480469 L 174 441.507812 L 173.996094 441.515625 L 174.527344 441.804688 L 173.996094 441.515625 L 174.527344 441.804688 L 173.996094 441.515625 L 178.238281 443.832031 C 178.289062 443.742188 180.8125 439.121094 183.339844 431.6875 C 185.863281 424.253906 188.394531 414 188.398438 402.628906 C 188.398438 398.570312 188.074219 394.375 187.308594 390.117188 C 185.152344 378.117188 181.347656 369.167969 176.886719 361.773438 C 173.542969 356.222656 169.851562 351.554688 166.253906 347.078125 C 160.847656 340.359375 155.679688 334.089844 151.84375 325.847656 C 148.007812 317.601562 145.429688 307.316406 145.425781 292.394531 C 145.425781 286.847656 145.785156 280.65625 146.578125 273.714844 C 148.074219 260.613281 151.078125 249.421875 155.613281 240.019531 C 159.015625 232.972656 163.269531 226.921875 168.425781 221.785156 C 176.160156 214.085938 185.929688 208.410156 197.996094 204.632812 C 210.058594 200.855469 224.40625 199.007812 241.136719 199.007812 C 260.855469 199.007812 278.527344 205.683594 292.617188 215.253906 C 299.660156 220.035156 305.800781 225.535156 310.828125 231.257812 C 315.859375 236.980469 319.777344 242.917969 322.386719 248.542969 C 326.140625 256.636719 327.789062 264.316406 328.683594 270.542969 C 329.132812 273.65625 329.390625 276.402344 329.632812 278.675781 C 329.753906 279.816406 329.871094 280.839844 330.015625 281.753906 C 330.164062 282.675781 330.324219 283.476562 330.605469 284.253906 L 330.605469 284.257812 C 331.296875 286.15625 331.511719 287.542969 331.511719 288.558594 C 331.511719 289.382812 331.378906 289.972656 331.1875 290.503906 C 330.894531 291.296875 330.417969 291.976562 329.816406 292.875 C 329.519531 293.324219 329.195312 293.828125 328.914062 294.453125 C 328.636719 295.074219 328.414062 295.832031 328.386719 296.671875 C 328.351562 297.558594 328.339844 298.4375 328.339844 299.292969 C 328.335938 307.519531 329.757812 314.472656 331.902344 320.359375 C 335.117188 329.1875 339.949219 335.589844 343.847656 340.382812 C 345.792969 342.773438 347.511719 344.777344 348.65625 346.394531 C 349.226562 347.203125 349.652344 347.914062 349.902344 348.480469 C 350.160156 349.046875 350.234375 349.449219 350.234375 349.691406 C 350.226562 349.945312 350.195312 350.082031 350.015625 350.375 C 349.941406 350.511719 349.546875 350.953125 348.929688 351.425781 C 347.847656 352.28125 346.132812 353.328125 344.21875 354.339844 C 341.34375 355.871094 338.011719 357.375 335.414062 358.484375 C 334.113281 359.039062 333 359.5 332.207031 359.816406 C 331.8125 359.976562 331.5 360.101562 331.285156 360.183594 C 331.179688 360.226562 331.097656 360.261719 331.042969 360.277344 L 330.964844 360.3125 L 328.898438 361.109375 L 329.515625 363.238281 L 329.53125 363.296875 C 329.617188 363.59375 330.023438 365.03125 330.476562 366.824219 C 330.921875 368.605469 331.410156 370.757812 331.652344 372.398438 L 331.652344 372.402344 L 332.675781 372.246094 L 331.640625 372.246094 L 331.652344 372.402344 L 332.675781 372.246094 L 331.640625 372.246094 L 332.351562 372.246094 L 331.644531 372.144531 L 331.640625 372.246094 L 332.351562 372.246094 L 331.644531 372.144531 L 331.855469 372.175781 L 331.652344 372.121094 L 331.644531 372.144531 L 331.855469 372.175781 L 331.652344 372.121094 C 331.648438 372.136719 331.582031 372.320312 331.429688 372.582031 C 331.160156 373.046875 330.652344 373.742188 330.039062 374.539062 C 329.117188 375.746094 327.972656 377.210938 327.011719 378.9375 C 326.535156 379.804688 326.105469 380.742188 325.789062 381.757812 C 325.472656 382.773438 325.273438 383.871094 325.273438 385.03125 C 325.273438 385.875 325.378906 386.75 325.613281 387.628906 C 326.324219 390.304688 326.628906 392.753906 326.628906 394.980469 C 326.625 400.445312 324.8125 404.632812 322.449219 407.679688 C 321.265625 409.199219 319.9375 410.417969 318.644531 411.324219 C 317.355469 412.234375 316.09375 412.824219 315.113281 413.097656 C 311.898438 414 308.09375 414.578125 303.980469 414.917969 C 299.859375 415.261719 295.429688 415.371094 290.941406 415.371094 C 283.582031 415.371094 276.0625 415.078125 269.40625 415.078125 C 265.929688 415.078125 262.273438 414.683594 258.789062 413.746094 C 256.175781 413.042969 253.65625 412.039062 251.359375 410.6875 C 247.914062 408.652344 244.972656 405.859375 242.839844 401.996094 C 240.714844 398.132812 239.386719 393.15625 239.382812 386.691406 C 239.382812 374.617188 239.382812 362.609375 239.382812 353.621094 C 239.382812 349.128906 239.382812 345.390625 239.382812 342.773438 C 239.382812 340.15625 239.382812 338.667969 239.382812 338.667969 L 234.550781 338.667969 " fill-opacity="1" fill-rule="nonzero"/></g><path fill="rgb(100%, 100%, 100%)" d="M 166.164062 263.253906 C 166.164062 244.453125 180.910156 229.09375 199.46875 228.109375 C 203.367188 219.445312 212.070312 213.40625 222.195312 213.40625 C 228.804688 213.40625 234.8125 215.984375 239.269531 220.175781 C 243.730469 215.984375 249.734375 213.40625 256.339844 213.40625 C 267.335938 213.40625 276.660156 220.527344 279.976562 230.410156 C 281.535156 229.949219 283.195312 229.699219 284.910156 229.699219 C 294.550781 229.699219 302.363281 237.511719 302.363281 247.152344 C 302.363281 248.039062 302.296875 248.910156 302.167969 249.765625 C 308.921875 253.4375 313.507812 260.597656 313.507812 268.824219 C 313.507812 280.785156 303.800781 290.492188 291.832031 290.492188 C 291.832031 300.132812 284.015625 307.945312 274.378906 307.945312 C 271.335938 307.945312 268.480469 307.164062 265.992188 305.800781 C 261.421875 311.089844 254.667969 314.445312 247.125 314.445312 C 243.703125 314.445312 240.441406 313.757812 237.472656 312.507812 C 233.679688 321.433594 224.832031 327.691406 214.527344 327.691406 C 209.074219 327.691406 204.03125 325.929688 199.929688 322.960938 C 199.054688 323.039062 198.167969 323.085938 197.273438 323.085938 C 180.746094 323.085938 167.351562 309.691406 167.351562 293.167969 C 167.351562 288.441406 168.449219 283.972656 170.402344 280.003906 C 167.699219 275.019531 166.164062 269.3125 166.164062 263.253906 " fill-opacity="1" fill-rule="nonzero"/><path fill="rgb(0%, 45.878601%, 100%)" d="M 166.164062 263.253906 L 168.582031 263.253906 C 168.582031 254.488281 172.011719 246.550781 177.609375 240.664062 C 183.207031 234.78125 190.953125 230.984375 199.59375 230.523438 L 201.0625 230.445312 L 201.667969 229.101562 C 203.429688 225.191406 206.28125 221.867188 209.828125 219.523438 C 213.378906 217.183594 217.617188 215.820312 222.195312 215.820312 C 228.167969 215.820312 233.578125 218.144531 237.613281 221.9375 L 239.269531 223.496094 L 240.925781 221.9375 C 244.960938 218.144531 250.367188 215.820312 256.339844 215.820312 C 261.3125 215.820312 265.886719 217.425781 269.609375 220.152344 C 273.335938 222.875 276.191406 226.71875 277.683594 231.175781 L 278.421875 233.390625 L 280.660156 232.730469 C 282.003906 232.328125 283.429688 232.113281 284.910156 232.113281 C 289.070312 232.113281 292.8125 233.796875 295.542969 236.519531 C 298.269531 239.246094 299.945312 242.992188 299.949219 247.152344 C 299.949219 247.917969 299.886719 248.667969 299.777344 249.410156 L 299.527344 251.082031 L 301.015625 251.890625 C 304.011719 253.519531 306.535156 255.929688 308.304688 258.839844 C 310.074219 261.753906 311.089844 265.160156 311.09375 268.824219 C 311.089844 274.144531 308.941406 278.941406 305.453125 282.433594 C 301.957031 285.925781 297.15625 288.074219 291.832031 288.074219 L 289.417969 288.074219 L 289.417969 290.492188 C 289.414062 294.652344 287.738281 298.394531 285.011719 301.121094 C 282.28125 303.851562 278.535156 305.527344 274.378906 305.53125 C 271.757812 305.527344 269.300781 304.855469 267.152344 303.679688 L 265.441406 302.742188 L 264.164062 304.21875 C 260.023438 309.007812 253.941406 312.03125 247.125 312.03125 C 244.03125 312.03125 241.089844 311.40625 238.410156 310.28125 L 236.1875 309.347656 L 235.25 311.5625 C 233.539062 315.585938 230.683594 319.019531 227.09375 321.441406 C 223.5 323.863281 219.1875 325.269531 214.527344 325.273438 C 209.59375 325.269531 205.058594 323.6875 201.347656 321.003906 L 200.617188 320.476562 L 199.714844 320.554688 C 198.898438 320.628906 198.082031 320.671875 197.273438 320.671875 C 189.667969 320.667969 182.808594 317.59375 177.824219 312.613281 C 172.84375 307.632812 169.769531 300.769531 169.769531 293.167969 C 169.769531 288.816406 170.773438 284.71875 172.570312 281.066406 L 173.121094 279.945312 L 172.523438 278.847656 C 170.007812 274.207031 168.582031 268.90625 168.582031 263.253906 L 163.75 263.253906 C 163.75 269.722656 165.386719 275.828125 168.273438 281.152344 L 170.402344 280.003906 L 168.230469 278.9375 C 166.121094 283.230469 164.933594 288.066406 164.933594 293.167969 C 164.933594 302.089844 168.558594 310.1875 174.40625 316.03125 C 180.25 321.878906 188.351562 325.503906 197.273438 325.5 C 198.253906 325.5 199.210938 325.449219 200.140625 325.367188 L 199.929688 322.960938 L 198.515625 324.917969 C 203.007812 328.175781 208.550781 330.105469 214.527344 330.101562 C 220.175781 330.105469 225.4375 328.386719 229.796875 325.445312 C 234.152344 322.507812 237.613281 318.351562 239.699219 313.453125 L 237.472656 312.507812 L 236.535156 314.734375 C 239.792969 316.105469 243.378906 316.863281 247.125 316.863281 C 255.390625 316.863281 262.8125 313.175781 267.820312 307.378906 L 265.992188 305.800781 L 264.832031 307.917969 C 267.660156 309.46875 270.921875 310.363281 274.378906 310.359375 C 279.859375 310.363281 284.84375 308.132812 288.429688 304.539062 C 292.023438 300.953125 294.25 295.96875 294.25 290.492188 L 291.832031 290.492188 L 291.832031 292.90625 C 298.480469 292.90625 304.515625 290.207031 308.867188 285.851562 C 313.222656 281.5 315.925781 275.464844 315.925781 268.824219 C 315.925781 264.257812 314.648438 259.972656 312.4375 256.332031 C 310.222656 252.691406 307.074219 249.683594 303.320312 247.644531 L 302.167969 249.765625 L 304.558594 250.121094 C 304.703125 249.152344 304.78125 248.164062 304.78125 247.152344 C 304.78125 241.671875 302.550781 236.691406 298.960938 233.101562 C 295.371094 229.511719 290.390625 227.28125 284.910156 227.28125 C 282.957031 227.28125 281.070312 227.566406 279.289062 228.09375 L 279.976562 230.410156 L 282.265625 229.640625 C 280.445312 224.21875 276.984375 219.558594 272.46875 216.253906 C 267.949219 212.945312 262.359375 210.988281 256.339844 210.988281 C 249.097656 210.988281 242.496094 213.820312 237.613281 218.417969 L 239.269531 220.175781 L 240.925781 218.417969 C 236.042969 213.820312 229.4375 210.988281 222.195312 210.988281 C 216.652344 210.988281 211.472656 212.648438 207.167969 215.492188 C 202.855469 218.335938 199.40625 222.363281 197.261719 227.121094 L 199.46875 228.109375 L 199.339844 225.699219 C 189.425781 226.222656 180.519531 230.59375 174.105469 237.335938 C 167.691406 244.074219 163.75 253.214844 163.75 263.253906 L 166.164062 263.253906 " fill-opacity="1" fill-rule="nonzero"/><path fill="rgb(100%, 100%, 100%)" d="M 237.472656 312.507812 C 230.964844 309.507812 226.859375 304.207031 226.859375 304.207031 C 226.859375 304.207031 218.085938 314.566406 203.410156 308.59375 C 188.738281 302.621094 188.59375 288.816406 188.59375 288.816406 C 188.59375 288.816406 177.226562 290.105469 170.402344 280.003906 " fill-opacity="1" fill-rule="nonzero"/><path fill="rgb(0%, 45.878601%, 100%)" d="M 238.484375 310.3125 C 235.542969 308.960938 233.074219 307.039062 231.367188 305.457031 C 230.511719 304.667969 229.847656 303.964844 229.40625 303.472656 C 229.183594 303.222656 229.019531 303.027344 228.910156 302.898438 L 228.796875 302.757812 L 228.773438 302.726562 C 228.328125 302.152344 227.636719 301.804688 226.914062 301.789062 C 226.191406 301.773438 225.484375 302.089844 225.015625 302.644531 L 226.234375 303.675781 L 225.023438 302.636719 L 225.015625 302.644531 L 226.234375 303.675781 L 225.023438 302.636719 L 225.011719 302.644531 C 224.898438 302.78125 223.640625 304.164062 221.460938 305.476562 C 219.277344 306.792969 216.210938 308.03125 212.34375 308.035156 C 210 308.03125 207.332031 307.582031 204.320312 306.355469 C 200.957031 304.980469 198.492188 303.203125 196.640625 301.296875 C 193.863281 298.449219 192.449219 295.285156 191.734375 292.824219 C 191.375 291.59375 191.191406 290.546875 191.101562 289.824219 C 191.058594 289.464844 191.03125 289.1875 191.023438 289.007812 C 191.015625 288.917969 191.011719 288.851562 191.011719 288.816406 L 191.007812 288.78125 L 189.5 288.804688 L 191.007812 288.789062 L 191.007812 288.78125 L 189.5 288.804688 L 191.007812 288.789062 C 191.003906 288.105469 190.703125 287.457031 190.195312 287.007812 C 189.683594 286.554688 189.003906 286.335938 188.324219 286.414062 L 188.492188 287.902344 L 188.332031 286.414062 L 188.324219 286.414062 L 188.492188 287.902344 L 188.332031 286.414062 L 188.273438 286.417969 C 188.144531 286.425781 187.808594 286.453125 187.316406 286.453125 C 185.945312 286.453125 183.359375 286.265625 180.578125 285.199219 C 177.792969 284.121094 174.824219 282.21875 172.402344 278.648438 C 171.652344 277.542969 170.152344 277.253906 169.042969 278 C 167.941406 278.75 167.652344 280.25 168.394531 281.355469 C 171.417969 285.828125 175.324219 288.363281 178.847656 289.707031 C 182.375 291.058594 185.527344 291.28125 187.316406 291.285156 C 188.226562 291.285156 188.789062 291.226562 188.863281 291.214844 L 188.59375 288.816406 L 186.175781 288.839844 C 186.183594 289.050781 186.234375 292.804688 188.292969 297.449219 C 189.328125 299.765625 190.871094 302.300781 193.175781 304.667969 C 195.472656 307.035156 198.53125 309.21875 202.5 310.832031 C 206.054688 312.277344 209.367188 312.867188 212.34375 312.863281 C 217.511719 312.867188 221.597656 311.109375 224.347656 309.371094 C 227.113281 307.628906 228.589844 305.898438 228.703125 305.765625 L 226.859375 304.207031 L 224.945312 305.683594 C 225.011719 305.761719 226.113281 307.183594 228.082031 309.007812 C 230.058594 310.828125 232.890625 313.054688 236.460938 314.703125 C 237.675781 315.261719 239.109375 314.730469 239.667969 313.515625 C 240.226562 312.304688 239.699219 310.871094 238.484375 310.3125 " fill-opacity="1" fill-rule="nonzero"/><path fill="rgb(100%, 100%, 100%)" d="M 265.992188 305.800781 C 265.175781 296.4375 257.210938 292.214844 257.210938 292.214844 C 257.210938 292.214844 260.734375 284.378906 255.582031 279.558594 C 248.871094 273.28125 241.246094 277.164062 241.246094 277.164062 C 241.246094 277.164062 239.527344 266.644531 227.289062 265.226562 C 212.425781 263.5 207.726562 274.285156 207.726562 274.285156 " fill-opacity="1" fill-rule="nonzero"/><path fill="rgb(0%, 45.878601%, 100%)" d="M 268.398438 305.585938 C 268.167969 302.925781 267.417969 300.597656 266.433594 298.640625 C 264.953125 295.703125 262.964844 293.597656 261.34375 292.210938 C 259.722656 290.824219 258.460938 290.144531 258.34375 290.078125 L 257.210938 292.214844 L 259.414062 293.207031 C 259.449219 293.125 259.789062 292.367188 260.125 291.167969 C 260.460938 289.96875 260.800781 288.332031 260.804688 286.460938 C 260.804688 285.097656 260.617188 283.597656 260.074219 282.089844 C 259.53125 280.585938 258.609375 279.078125 257.234375 277.792969 C 255.503906 276.175781 253.660156 275.09375 251.867188 274.445312 C 250.074219 273.789062 248.335938 273.558594 246.796875 273.558594 C 242.980469 273.570312 240.347656 274.917969 240.148438 275.011719 L 241.246094 277.164062 L 243.628906 276.777344 C 243.589844 276.558594 243.101562 273.605469 240.839844 270.34375 C 239.707031 268.71875 238.113281 267.027344 235.921875 265.644531 C 233.734375 264.265625 230.960938 263.214844 227.566406 262.828125 C 226.378906 262.6875 225.238281 262.621094 224.148438 262.621094 C 220.75 262.621094 217.847656 263.261719 215.441406 264.25 C 211.828125 265.722656 209.355469 267.953125 207.800781 269.808594 C 206.246094 271.667969 205.582031 273.167969 205.511719 273.320312 C 204.980469 274.546875 205.539062 275.96875 206.765625 276.5 C 207.988281 277.035156 209.410156 276.476562 209.945312 275.253906 L 208.496094 274.621094 L 209.9375 275.265625 L 209.945312 275.253906 L 208.496094 274.621094 L 209.9375 275.265625 L 209.886719 275.242188 L 209.9375 275.265625 L 209.886719 275.242188 L 209.9375 275.265625 C 209.964844 275.199219 210.910156 273.1875 213.121094 271.269531 C 214.226562 270.308594 215.640625 269.363281 217.441406 268.648438 C 219.246094 267.9375 221.4375 267.457031 224.148438 267.453125 C 225.042969 267.453125 225.996094 267.507812 227.011719 267.628906 C 229.738281 267.945312 231.769531 268.742188 233.34375 269.734375 C 235.703125 271.21875 237.082031 273.191406 237.886719 274.828125 C 238.289062 275.644531 238.542969 276.363281 238.6875 276.863281 C 238.757812 277.113281 238.808594 277.308594 238.835938 277.425781 L 238.859375 277.550781 L 238.863281 277.566406 L 239.9375 277.375 L 238.859375 277.550781 L 238.863281 277.566406 L 239.9375 277.375 L 238.859375 277.550781 C 238.984375 278.316406 239.460938 278.96875 240.152344 279.320312 C 240.847656 279.667969 241.65625 279.667969 242.34375 279.3125 L 241.636719 277.929688 L 242.332031 279.324219 L 242.34375 279.3125 L 241.636719 277.929688 L 242.332031 279.324219 C 242.394531 279.28125 244.339844 278.378906 246.796875 278.390625 C 247.859375 278.390625 249.015625 278.546875 250.210938 278.984375 C 251.410156 279.425781 252.660156 280.136719 253.933594 281.324219 C 254.730469 282.074219 255.210938 282.871094 255.527344 283.734375 C 255.839844 284.597656 255.96875 285.535156 255.96875 286.460938 C 255.96875 287.730469 255.726562 288.964844 255.472656 289.863281 C 255.347656 290.308594 255.222656 290.671875 255.128906 290.910156 C 255.085938 291.03125 255.050781 291.117188 255.027344 291.175781 L 255.003906 291.226562 L 255 291.234375 L 256.109375 291.71875 L 255.007812 291.226562 L 255 291.234375 L 256.109375 291.71875 L 255.007812 291.226562 C 254.480469 292.390625 254.953125 293.75 256.078125 294.347656 L 256.769531 293.046875 L 256.066406 294.347656 L 256.078125 294.347656 L 256.769531 293.046875 L 256.066406 294.347656 L 256.082031 294.351562 C 256.261719 294.453125 258.042969 295.480469 259.789062 297.429688 C 260.660156 298.402344 261.53125 299.601562 262.214844 301.019531 C 262.90625 302.445312 263.414062 304.085938 263.585938 306.007812 C 263.703125 307.339844 264.871094 308.324219 266.203125 308.203125 C 267.53125 308.089844 268.515625 306.917969 268.398438 305.589844 " fill-opacity="1" fill-rule="nonzero"/><path fill="rgb(100%, 100%, 100%)" d="M 242.539062 291.550781 C 242.539062 291.550781 237.363281 298.160156 230.742188 295.867188 C 224.125 293.5625 224.125 290.398438 219.234375 287.519531 C 214.339844 284.640625 203.984375 289.53125 195.644531 281.765625 C 187.296875 274 192.046875 262.492188 192.046875 262.492188 C 192.046875 262.492188 186.378906 248.261719 198.484375 241.996094 C 210.316406 235.882812 217.796875 250.699219 217.796875 250.699219 C 217.796875 250.699219 226.425781 245.804688 233.757812 253 C 239.664062 258.796875 235.054688 267.191406 235.054688 267.191406 " fill-opacity="1" fill-rule="nonzero"/><path fill="rgb(0%, 45.878601%, 100%)" d="M 240.636719 290.058594 L 241.230469 290.523438 L 240.640625 290.050781 L 240.636719 290.058594 L 241.230469 290.523438 L 240.640625 290.050781 C 240.617188 290.085938 239.753906 291.140625 238.425781 292.117188 C 237.765625 292.601562 236.992188 293.070312 236.167969 293.398438 C 235.339844 293.730469 234.472656 293.929688 233.574219 293.933594 C 232.929688 293.929688 232.257812 293.828125 231.535156 293.582031 L 231.539062 293.582031 C 230.042969 293.0625 229.003906 292.523438 228.171875 291.976562 C 227.550781 291.566406 227.042969 291.144531 226.546875 290.675781 C 225.804688 289.984375 225.082031 289.167969 224.136719 288.253906 C 223.195312 287.339844 222.023438 286.355469 220.460938 285.4375 C 219.304688 284.761719 218.070312 284.4375 216.847656 284.261719 C 215.625 284.085938 214.382812 284.058594 213.128906 284.058594 C 212.164062 284.058594 211.183594 284.074219 210.199219 284.074219 C 207.960938 284.078125 205.699219 283.972656 203.542969 283.414062 C 201.378906 282.851562 199.3125 281.871094 197.289062 279.996094 C 195.621094 278.441406 194.609375 276.773438 193.976562 275.0625 C 193.347656 273.359375 193.117188 271.605469 193.117188 269.972656 C 193.117188 268.121094 193.417969 266.4375 193.71875 265.238281 C 193.867188 264.636719 194.019531 264.164062 194.125 263.84375 C 194.179688 263.6875 194.222656 263.570312 194.246094 263.496094 L 194.277344 263.421875 L 194.28125 263.410156 L 193.378906 263.042969 L 194.277344 263.417969 L 194.28125 263.410156 L 193.378906 263.042969 L 194.277344 263.417969 C 194.519531 262.835938 194.523438 262.179688 194.292969 261.597656 L 193.46875 261.925781 L 194.292969 261.605469 L 194.292969 261.597656 L 193.46875 261.925781 L 194.292969 261.605469 C 194.273438 261.570312 193.128906 258.542969 193.136719 255.019531 C 193.136719 253.078125 193.472656 251.011719 194.414062 249.152344 C 195.367188 247.285156 196.886719 245.554688 199.597656 244.144531 C 201.316406 243.257812 202.804688 242.9375 204.160156 242.933594 C 205.792969 242.933594 207.28125 243.414062 208.679688 244.207031 C 210.769531 245.386719 212.570312 247.304688 213.792969 248.933594 C 214.410156 249.746094 214.882812 250.480469 215.195312 251.003906 C 215.351562 251.265625 215.46875 251.472656 215.542969 251.609375 L 215.625 251.753906 L 215.640625 251.785156 L 215.726562 251.742188 L 215.640625 251.785156 L 215.726562 251.742188 L 215.640625 251.785156 C 215.9375 252.378906 216.460938 252.820312 217.097656 253.011719 C 217.730469 253.203125 218.410156 253.128906 218.992188 252.800781 L 218.3125 251.605469 L 218.976562 252.804688 L 218.992188 252.800781 L 218.3125 251.605469 L 218.976562 252.804688 L 219 252.792969 C 219.132812 252.722656 219.789062 252.386719 220.773438 252.078125 C 221.757812 251.769531 223.066406 251.488281 224.492188 251.488281 C 225.65625 251.488281 226.886719 251.667969 228.15625 252.148438 C 229.425781 252.636719 230.738281 253.421875 232.0625 254.726562 C 232.96875 255.613281 233.511719 256.519531 233.863281 257.453125 C 234.210938 258.386719 234.351562 259.359375 234.351562 260.324219 C 234.355469 261.828125 233.996094 263.308594 233.628906 264.378906 C 233.441406 264.914062 233.261719 265.347656 233.128906 265.640625 C 233.0625 265.785156 233.007812 265.894531 232.972656 265.960938 L 232.9375 266.027344 C 232.296875 267.195312 232.726562 268.664062 233.894531 269.308594 C 235.066406 269.949219 236.535156 269.519531 237.175781 268.351562 C 237.222656 268.261719 237.707031 267.367188 238.199219 265.945312 C 238.683594 264.523438 239.179688 262.566406 239.183594 260.324219 C 239.183594 258.890625 238.972656 257.332031 238.390625 255.769531 C 237.8125 254.207031 236.855469 252.652344 235.449219 251.273438 C 233.671875 249.527344 231.761719 248.351562 229.878906 247.632812 C 227.996094 246.917969 226.152344 246.65625 224.492188 246.65625 C 222.234375 246.660156 220.3125 247.132812 218.929688 247.597656 C 217.550781 248.070312 216.707031 248.539062 216.605469 248.597656 L 217.796875 250.699219 L 219.953125 249.609375 C 219.886719 249.492188 218.527344 246.78125 215.941406 243.96875 C 214.644531 242.566406 213.035156 241.128906 211.070312 240.007812 C 209.113281 238.890625 206.773438 238.101562 204.160156 238.101562 C 202.007812 238.097656 199.703125 238.644531 197.375 239.851562 C 193.832031 241.671875 191.46875 244.242188 190.101562 246.972656 C 188.726562 249.703125 188.304688 252.535156 188.304688 255.019531 C 188.304688 257.347656 188.671875 259.398438 189.035156 260.886719 C 189.402344 262.375 189.769531 263.308594 189.800781 263.390625 L 192.046875 262.492188 L 189.8125 261.570312 C 189.746094 261.746094 188.292969 265.242188 188.285156 269.972656 C 188.285156 272.054688 188.574219 274.378906 189.441406 276.734375 C 190.304688 279.085938 191.757812 281.457031 193.996094 283.53125 C 196.632812 285.992188 199.535156 287.378906 202.332031 288.09375 C 205.136719 288.816406 207.828125 288.90625 210.199219 288.90625 C 211.242188 288.90625 212.226562 288.890625 213.128906 288.890625 C 214.300781 288.886719 215.335938 288.925781 216.164062 289.042969 C 217 289.160156 217.601562 289.359375 218.007812 289.601562 C 219.066406 290.222656 219.816406 290.832031 220.515625 291.480469 C 221.042969 291.96875 221.53125 292.484375 222.070312 293.042969 C 222.882812 293.878906 223.8125 294.816406 225.074219 295.710938 C 226.335938 296.609375 227.90625 297.433594 229.949219 298.144531 L 229.953125 298.144531 C 231.1875 298.574219 232.414062 298.765625 233.574219 298.761719 C 235.25 298.761719 236.78125 298.378906 238.097656 297.828125 C 240.082031 297.003906 241.621094 295.828125 242.695312 294.859375 C 243.769531 293.890625 244.378906 293.117188 244.441406 293.039062 C 245.261719 291.988281 245.078125 290.46875 244.027344 289.644531 C 242.976562 288.820312 241.460938 289.007812 240.636719 290.058594 " fill-opacity="1" fill-rule="nonzero"/><path fill="rgb(100%, 100%, 100%)" d="M 279.976562 230.410156 C 284.832031 244.902344 271.695312 249.070312 271.695312 249.070312 C 271.695312 249.070312 272.460938 262.875 260.351562 262.875 C 248.675781 262.875 248.46875 249.773438 248.46875 249.773438 C 248.46875 249.773438 239.835938 252.855469 237.59375 244.078125 C 235.546875 236.09375 242.238281 232.746094 242.238281 232.746094 " fill-opacity="1" fill-rule="nonzero"/><path fill="rgb(0%, 45.878601%, 100%)" d="M 277.683594 231.179688 C 278.371094 233.226562 278.636719 234.976562 278.636719 236.464844 C 278.632812 238.484375 278.164062 240.050781 277.460938 241.359375 C 276.417969 243.3125 274.78125 244.695312 273.375 245.578125 C 272.671875 246.015625 272.035156 246.328125 271.59375 246.519531 C 271.371094 246.617188 271.195312 246.683594 271.085938 246.726562 L 270.96875 246.769531 L 270.953125 246.777344 L 271.257812 247.703125 L 270.964844 246.773438 L 270.953125 246.777344 L 271.257812 247.703125 L 270.964844 246.773438 C 269.914062 247.101562 269.21875 248.105469 269.28125 249.207031 C 269.28125 249.238281 269.285156 249.363281 269.285156 249.554688 C 269.289062 250.066406 269.253906 251.078125 269.054688 252.273438 C 268.910156 253.167969 268.671875 254.164062 268.304688 255.117188 C 267.746094 256.5625 266.921875 257.882812 265.722656 258.832031 C 265.125 259.304688 264.421875 259.703125 263.550781 259.992188 C 262.679688 260.277344 261.632812 260.460938 260.351562 260.460938 C 257.878906 260.449219 256.261719 259.804688 255.003906 258.886719 C 254.066406 258.191406 253.332031 257.308594 252.75 256.320312 C 251.878906 254.847656 251.386719 253.15625 251.140625 251.851562 C 251.019531 251.199219 250.953125 250.640625 250.917969 250.265625 C 250.902344 250.074219 250.890625 249.929688 250.890625 249.839844 L 250.886719 249.746094 L 250.882812 249.730469 L 249.957031 249.75 L 250.882812 249.734375 L 250.882812 249.730469 L 249.957031 249.75 L 250.882812 249.734375 C 250.875 248.960938 250.484375 248.230469 249.84375 247.789062 C 249.207031 247.347656 248.382812 247.238281 247.65625 247.5 L 248.011719 248.492188 L 247.667969 247.496094 L 247.65625 247.5 L 248.011719 248.492188 L 247.667969 247.496094 C 247.65625 247.503906 246.460938 247.890625 245.117188 247.882812 C 244.601562 247.882812 244.074219 247.832031 243.574219 247.707031 C 242.820312 247.519531 242.152344 247.191406 241.542969 246.59375 C 240.941406 245.992188 240.34375 245.074219 239.933594 243.480469 C 239.710938 242.605469 239.617188 241.832031 239.617188 241.144531 C 239.621094 240.019531 239.855469 239.113281 240.199219 238.332031 C 240.714844 237.164062 241.523438 236.277344 242.210938 235.6875 C 242.554688 235.398438 242.863281 235.1875 243.070312 235.054688 C 243.175781 234.988281 243.253906 234.941406 243.296875 234.914062 L 243.335938 234.894531 L 243.304688 234.832031 L 243.335938 234.894531 L 243.304688 234.832031 L 243.335938 234.894531 L 242.605469 233.476562 L 243.320312 234.902344 L 243.335938 234.894531 L 242.605469 233.476562 L 243.320312 234.902344 C 244.515625 234.304688 244.996094 232.855469 244.398438 231.660156 C 243.800781 230.464844 242.351562 229.984375 241.15625 230.582031 C 240.992188 230.671875 239.5 231.421875 237.945312 233.101562 C 237.167969 233.941406 236.382812 235.023438 235.78125 236.371094 C 235.183594 237.714844 234.785156 239.328125 234.785156 241.144531 C 234.785156 242.253906 234.933594 243.4375 235.25 244.679688 C 235.636719 246.195312 236.214844 247.5 236.945312 248.582031 C 238.035156 250.207031 239.5 251.300781 240.960938 251.917969 C 242.425781 252.535156 243.871094 252.714844 245.117188 252.714844 C 247.445312 252.707031 249.121094 252.101562 249.28125 252.050781 L 248.46875 249.773438 L 246.054688 249.816406 C 246.054688 249.902344 246.070312 250.832031 246.296875 252.214844 C 246.46875 253.25 246.757812 254.539062 247.257812 255.925781 C 248.011719 257.996094 249.253906 260.320312 251.390625 262.179688 C 252.457031 263.101562 253.742188 263.894531 255.246094 264.441406 C 256.746094 264.992188 258.457031 265.292969 260.351562 265.292969 C 263.441406 265.300781 266.03125 264.488281 268.011719 263.140625 C 269.5 262.136719 270.632812 260.867188 271.472656 259.542969 C 272.734375 257.546875 273.375 255.441406 273.722656 253.644531 C 274.070312 251.851562 274.121094 250.351562 274.121094 249.554688 C 274.121094 249.199219 274.109375 248.976562 274.105469 248.941406 L 271.695312 249.070312 L 272.425781 251.375 C 272.601562 251.3125 275.199219 250.492188 277.921875 248.242188 C 279.277344 247.113281 280.664062 245.609375 281.722656 243.644531 C 282.773438 241.683594 283.472656 239.265625 283.46875 236.464844 C 283.46875 234.394531 283.097656 232.117188 282.265625 229.640625 C 281.839844 228.378906 280.472656 227.695312 279.207031 228.121094 C 277.941406 228.542969 277.257812 229.914062 277.683594 231.179688 " fill-opacity="1" fill-rule="nonzero"/><path fill="rgb(100%, 100%, 100%)" d="M 258.300781 284.613281 C 261.242188 270.546875 275.914062 274.863281 275.914062 274.863281 C 275.914062 274.863281 273.035156 265.039062 280.839844 259.101562 C 287.5 254.035156 296.054688 258.035156 296.054688 258.035156 " fill-opacity="1" fill-rule="nonzero"/><path fill="rgb(0%, 45.878601%, 100%)" d="M 260.660156 285.109375 C 261.066406 283.1875 261.691406 281.753906 262.425781 280.65625 C 263.523438 279.015625 264.863281 278.070312 266.359375 277.464844 C 267.855469 276.863281 269.507812 276.652344 270.996094 276.652344 C 272.210938 276.652344 273.308594 276.792969 274.078125 276.929688 C 274.464844 276.996094 274.769531 277.066406 274.96875 277.113281 C 275.070312 277.136719 275.140625 277.15625 275.1875 277.167969 L 275.230469 277.179688 L 275.234375 277.179688 L 275.589844 275.945312 L 275.230469 277.179688 L 275.234375 277.179688 L 275.589844 275.945312 L 275.230469 277.179688 C 276.078125 277.429688 276.992188 277.195312 277.621094 276.570312 C 278.246094 275.945312 278.480469 275.03125 278.230469 274.183594 L 276.820312 274.59375 L 278.234375 274.191406 L 278.230469 274.183594 L 276.820312 274.59375 L 278.234375 274.191406 L 278.230469 274.179688 C 278.1875 274.039062 277.808594 272.558594 277.808594 270.601562 C 277.808594 269.136719 278.019531 267.417969 278.679688 265.753906 C 279.34375 264.085938 280.421875 262.460938 282.304688 261.023438 C 283.34375 260.234375 284.425781 259.722656 285.527344 259.398438 C 286.628906 259.078125 287.75 258.949219 288.832031 258.949219 C 290.539062 258.949219 292.136719 259.277344 293.28125 259.609375 C 293.851562 259.773438 294.3125 259.933594 294.617188 260.054688 C 294.769531 260.109375 294.882812 260.160156 294.953125 260.191406 L 295.027344 260.222656 L 295.035156 260.226562 L 295.472656 259.277344 L 295.03125 260.222656 L 295.035156 260.226562 L 295.472656 259.277344 L 295.03125 260.222656 C 296.238281 260.789062 297.675781 260.269531 298.242188 259.058594 C 298.804688 257.847656 298.285156 256.410156 297.074219 255.84375 C 296.992188 255.804688 296.078125 255.382812 294.613281 254.964844 C 293.15625 254.542969 291.140625 254.121094 288.832031 254.117188 C 287.371094 254.117188 285.789062 254.292969 284.175781 254.761719 C 282.5625 255.230469 280.917969 256.003906 279.375 257.179688 C 276.765625 259.15625 275.121094 261.597656 274.183594 263.976562 C 273.246094 266.367188 272.976562 268.6875 272.976562 270.601562 C 272.980469 273.429688 273.554688 275.394531 273.59375 275.542969 L 275.914062 274.863281 L 276.59375 272.542969 C 276.453125 272.507812 274.148438 271.828125 270.996094 271.820312 C 269.714844 271.820312 268.285156 271.9375 266.808594 272.28125 C 264.59375 272.789062 262.230469 273.832031 260.238281 275.765625 C 258.238281 277.691406 256.6875 280.464844 255.933594 284.117188 C 255.660156 285.425781 256.496094 286.703125 257.800781 286.976562 C 259.109375 287.25 260.386719 286.414062 260.660156 285.109375 " fill-opacity="1" fill-rule="nonzero"/><path fill="rgb(100%, 100%, 100%)" d="M 239.332031 220.125 C 244.09375 226.117188 242.238281 232.746094 242.238281 232.746094 C 242.238281 232.746094 249.636719 228.164062 256.925781 235.261719 C 263.730469 241.882812 258.300781 250.796875 258.300781 250.796875 " fill-opacity="1" fill-rule="nonzero"/><path fill="rgb(0%, 45.878601%, 100%)" d="M 237.4375 221.625 C 238.570312 223.054688 239.246094 224.496094 239.648438 225.855469 C 240.054688 227.214844 240.179688 228.492188 240.179688 229.542969 C 240.179688 230.359375 240.101562 231.03125 240.027344 231.484375 C 239.992188 231.710938 239.957031 231.882812 239.9375 231.984375 L 239.910156 232.09375 L 239.988281 232.113281 L 239.910156 232.089844 L 239.910156 232.09375 L 239.988281 232.113281 L 239.910156 232.089844 C 239.640625 233.050781 239.988281 234.070312 240.785156 234.671875 C 241.585938 235.273438 242.660156 235.324219 243.511719 234.796875 L 242.65625 233.421875 L 243.496094 234.804688 L 243.511719 234.796875 L 242.65625 233.421875 L 243.496094 234.804688 L 243.398438 234.640625 L 243.496094 234.804688 L 243.398438 234.640625 L 243.496094 234.804688 C 243.515625 234.792969 244.007812 234.507812 244.804688 234.234375 C 245.601562 233.960938 246.695312 233.703125 247.9375 233.703125 C 248.96875 233.707031 250.101562 233.875 251.320312 234.359375 C 252.539062 234.84375 253.851562 235.644531 255.238281 236.992188 C 256.308594 238.039062 256.957031 239.085938 257.367188 240.132812 C 257.773438 241.183594 257.933594 242.25 257.933594 243.292969 C 257.9375 244.957031 257.507812 246.570312 257.0625 247.742188 C 256.84375 248.324219 256.621094 248.796875 256.460938 249.113281 C 256.382812 249.269531 256.320312 249.386719 256.277344 249.460938 L 256.234375 249.535156 L 256.230469 249.542969 L 257.175781 250.109375 L 256.234375 249.539062 L 256.230469 249.542969 L 257.175781 250.109375 L 256.234375 249.539062 C 255.539062 250.675781 255.898438 252.160156 257.039062 252.855469 C 258.179688 253.550781 259.667969 253.191406 260.359375 252.050781 C 260.417969 251.957031 261 250.996094 261.582031 249.445312 C 262.164062 247.898438 262.765625 245.761719 262.765625 243.292969 C 262.765625 241.75 262.523438 240.070312 261.875 238.386719 C 261.222656 236.707031 260.160156 235.035156 258.605469 233.527344 L 258.605469 233.53125 C 256.8125 231.777344 254.933594 230.59375 253.105469 229.867188 C 251.277344 229.140625 249.507812 228.871094 247.9375 228.875 C 245.910156 228.875 244.214844 229.308594 243.011719 229.742188 C 241.800781 230.179688 241.074219 230.621094 240.964844 230.6875 L 242.238281 232.746094 L 244.566406 233.390625 C 244.605469 233.242188 245.007812 231.769531 245.011719 229.542969 C 245.007812 228.113281 244.839844 226.367188 244.28125 224.480469 C 243.726562 222.59375 242.769531 220.566406 241.222656 218.621094 C 240.394531 217.578125 238.871094 217.402344 237.828125 218.230469 C 236.785156 219.0625 236.609375 220.582031 237.4375 221.628906 " fill-opacity="1" fill-rule="nonzero"/><path fill="rgb(100%, 100%, 100%)" d="M 291.832031 290.492188 C 291.378906 281.785156 286.125 278.75 286.125 278.75 " fill-opacity="1" fill-rule="nonzero"/><path fill="rgb(0%, 45.878601%, 100%)" d="M 294.246094 290.367188 C 294 285.535156 292.375 282.09375 290.75 279.914062 C 289.128906 277.726562 287.546875 276.777344 287.335938 276.65625 C 286.183594 275.984375 284.703125 276.382812 284.035156 277.535156 C 283.367188 278.691406 283.761719 280.171875 284.917969 280.835938 L 285.667969 279.539062 L 284.890625 280.824219 L 284.917969 280.835938 L 285.667969 279.539062 L 284.890625 280.824219 L 285.023438 280.609375 L 284.890625 280.820312 L 284.890625 280.824219 L 285.023438 280.609375 L 284.890625 280.820312 C 284.910156 280.832031 285.957031 281.484375 287.023438 283.007812 C 288.09375 284.535156 289.21875 286.914062 289.421875 290.617188 C 289.488281 291.953125 290.625 292.972656 291.960938 292.90625 C 293.289062 292.835938 294.316406 291.695312 294.246094 290.367188 " fill-opacity="1" fill-rule="nonzero"/><g fill="rgb(0%, 45.878601%, 100%)" fill-opacity="1"><g transform="translate(346.194157, 484.729676)"><g><path d="M 28.703125 0.4375 C 22.128906 0.4375 17.003906 -1.445312 13.328125 -5.21875 C 9.660156 -8.988281 7.828125 -14.472656 7.828125 -21.671875 L 7.828125 -50.734375 L 13.1875 -50.734375 L 13.1875 -21.890625 C 13.1875 -15.992188 14.515625 -11.59375 17.171875 -8.6875 C 19.835938 -5.789062 23.679688 -4.34375 28.703125 -4.34375 C 33.773438 -4.34375 37.640625 -5.789062 40.296875 -8.6875 C 42.953125 -11.59375 44.28125 -15.992188 44.28125 -21.890625 L 44.28125 -50.734375 L 49.5 -50.734375 L 49.5 -21.671875 C 49.5 -14.472656 47.675781 -8.988281 44.03125 -5.21875 C 40.382812 -1.445312 35.273438 0.4375 28.703125 0.4375 Z M 28.703125 0.4375 "/></g></g></g><g fill="rgb(0%, 45.878601%, 100%)" fill-opacity="1"><g transform="translate(403.589456, 484.729676)"><g><path d="M 26.8125 -38.421875 C 30.394531 -38.421875 33.632812 -37.609375 36.53125 -35.984375 C 39.425781 -34.367188 41.695312 -32.085938 43.34375 -29.140625 C 44.988281 -26.191406 45.8125 -22.832031 45.8125 -19.0625 C 45.8125 -15.25 44.988281 -11.867188 43.34375 -8.921875 C 41.695312 -5.972656 39.4375 -3.6875 36.5625 -2.0625 C 33.6875 -0.445312 30.4375 0.359375 26.8125 0.359375 C 23.726562 0.359375 20.941406 -0.28125 18.453125 -1.5625 C 15.960938 -2.84375 13.921875 -4.710938 12.328125 -7.171875 L 12.328125 14.0625 L 7.171875 14.0625 L 7.171875 -38.125 L 12.109375 -38.125 L 12.109375 -30.59375 C 13.648438 -33.101562 15.6875 -35.035156 18.21875 -36.390625 C 20.757812 -37.742188 23.625 -38.421875 26.8125 -38.421875 Z M 26.453125 -4.203125 C 29.109375 -4.203125 31.523438 -4.816406 33.703125 -6.046875 C 35.878906 -7.285156 37.582031 -9.039062 38.8125 -11.3125 C 40.039062 -13.582031 40.65625 -16.164062 40.65625 -19.0625 C 40.65625 -21.957031 40.039062 -24.53125 38.8125 -26.78125 C 37.582031 -29.03125 35.878906 -30.78125 33.703125 -32.03125 C 31.523438 -33.289062 29.109375 -33.921875 26.453125 -33.921875 C 23.742188 -33.921875 21.316406 -33.289062 19.171875 -32.03125 C 17.023438 -30.78125 15.332031 -29.03125 14.09375 -26.78125 C 12.863281 -24.53125 12.25 -21.957031 12.25 -19.0625 C 12.25 -16.164062 12.863281 -13.582031 14.09375 -11.3125 C 15.332031 -9.039062 17.023438 -7.285156 19.171875 -6.046875 C 21.316406 -4.816406 23.742188 -4.203125 26.453125 -4.203125 Z M 26.453125 -4.203125 "/></g></g></g><g fill="rgb(0%, 45.878601%, 100%)" fill-opacity="1"><g transform="translate(452.723311, 484.729676)"><g/></g></g><g fill="rgb(0%, 45.878601%, 100%)" fill-opacity="1"><g transform="translate(471.710146, 484.729676)"><g><path d="M 50.671875 -50.734375 L 50.671875 0 L 45.375 0 L 45.375 -23.40625 L 13.625 -23.40625 L 13.625 0 L 8.265625 0 L 8.265625 -50.734375 L 13.625 -50.734375 L 13.625 -28.125 L 45.375 -28.125 L 45.375 -50.734375 Z M 50.671875 -50.734375 "/></g></g></g><g fill="rgb(0%, 45.878601%, 100%)" fill-opacity="1"><g transform="translate(530.627291, 484.729676)"><g><path d="M 40.375 -17.46875 L 8.484375 -17.46875 C 8.773438 -13.507812 10.296875 -10.304688 13.046875 -7.859375 C 15.796875 -5.421875 19.273438 -4.203125 23.484375 -4.203125 C 25.847656 -4.203125 28.019531 -4.625 30 -5.46875 C 31.988281 -6.3125 33.707031 -7.554688 35.15625 -9.203125 L 38.046875 -5.875 C 36.359375 -3.84375 34.242188 -2.296875 31.703125 -1.234375 C 29.171875 -0.171875 26.382812 0.359375 23.34375 0.359375 C 19.425781 0.359375 15.957031 -0.472656 12.9375 -2.140625 C 9.914062 -3.804688 7.554688 -6.113281 5.859375 -9.0625 C 4.171875 -12.007812 3.328125 -15.34375 3.328125 -19.0625 C 3.328125 -22.78125 4.132812 -26.113281 5.75 -29.0625 C 7.375 -32.007812 9.597656 -34.304688 12.421875 -35.953125 C 15.253906 -37.597656 18.4375 -38.421875 21.96875 -38.421875 C 25.488281 -38.421875 28.648438 -37.597656 31.453125 -35.953125 C 34.253906 -34.304688 36.453125 -32.019531 38.046875 -29.09375 C 39.648438 -26.175781 40.453125 -22.832031 40.453125 -19.0625 Z M 21.96875 -34 C 18.289062 -34 15.207031 -32.828125 12.71875 -30.484375 C 10.226562 -28.140625 8.816406 -25.082031 8.484375 -21.3125 L 35.515625 -21.3125 C 35.179688 -25.082031 33.769531 -28.140625 31.28125 -30.484375 C 28.789062 -32.828125 25.6875 -34 21.96875 -34 Z M 21.96875 -34 "/></g></g></g><g fill="rgb(0%, 45.878601%, 100%)" fill-opacity="1"><g transform="translate(574.398446, 484.729676)"><g><path d="M 20.515625 -38.421875 C 25.492188 -38.421875 29.3125 -37.175781 31.96875 -34.6875 C 34.625 -32.195312 35.953125 -28.507812 35.953125 -23.625 L 35.953125 0 L 31.015625 0 L 31.015625 -5.9375 C 29.859375 -3.957031 28.15625 -2.410156 25.90625 -1.296875 C 23.664062 -0.191406 21 0.359375 17.90625 0.359375 C 13.65625 0.359375 10.269531 -0.648438 7.75 -2.671875 C 5.238281 -4.703125 3.984375 -7.390625 3.984375 -10.734375 C 3.984375 -13.960938 5.15625 -16.566406 7.5 -18.546875 C 9.84375 -20.535156 13.578125 -21.53125 18.703125 -21.53125 L 30.8125 -21.53125 L 30.8125 -23.84375 C 30.8125 -27.132812 29.890625 -29.632812 28.046875 -31.34375 C 26.210938 -33.0625 23.53125 -33.921875 20 -33.921875 C 17.582031 -33.921875 15.265625 -33.519531 13.046875 -32.71875 C 10.828125 -31.925781 8.921875 -30.828125 7.328125 -29.421875 L 5 -33.265625 C 6.9375 -34.910156 9.253906 -36.179688 11.953125 -37.078125 C 14.660156 -37.972656 17.515625 -38.421875 20.515625 -38.421875 Z M 18.703125 -3.703125 C 21.597656 -3.703125 24.082031 -4.363281 26.15625 -5.6875 C 28.238281 -7.019531 29.789062 -8.941406 30.8125 -11.453125 L 30.8125 -17.6875 L 18.84375 -17.6875 C 12.320312 -17.6875 9.0625 -15.414062 9.0625 -10.875 C 9.0625 -8.644531 9.90625 -6.890625 11.59375 -5.609375 C 13.289062 -4.335938 15.660156 -3.703125 18.703125 -3.703125 Z M 18.703125 -3.703125 "/></g></g></g><g fill="rgb(0%, 45.878601%, 100%)" fill-opacity="1"><g transform="translate(617.155035, 484.729676)"><g><path d="M 7.171875 -53.78125 L 12.328125 -53.78125 L 12.328125 0 L 7.171875 0 Z M 7.171875 -53.78125 "/></g></g></g><g fill="rgb(0%, 45.878601%, 100%)" fill-opacity="1"><g transform="translate(636.649129, 484.729676)"><g><path d="M 7.6875 0.359375 C 6.625 0.359375 5.71875 -0.0234375 4.96875 -0.796875 C 4.21875 -1.566406 3.84375 -2.507812 3.84375 -3.625 C 3.84375 -4.738281 4.21875 -5.664062 4.96875 -6.40625 C 5.71875 -7.15625 6.625 -7.53125 7.6875 -7.53125 C 8.75 -7.53125 9.664062 -7.15625 10.4375 -6.40625 C 11.207031 -5.664062 11.59375 -4.738281 11.59375 -3.625 C 11.59375 -2.507812 11.207031 -1.566406 10.4375 -0.796875 C 9.664062 -0.0234375 8.75 0.359375 7.6875 0.359375 Z M 7.6875 0.359375 "/></g></g></g><path stroke-linecap="butt" transform="matrix(3.756385, 0, 0, 3.519061, 177.101831, 435.65671)" fill="none" stroke-linejoin="miter" d="M -0.0000715822 -0.00013074 L 47.72076 -0.00013074 " stroke="rgb(0%, 45.878601%, 100%)" stroke-width="1" stroke-opacity="1" stroke-miterlimit="4"/></svg>