<svg xmlns="http://www.w3.org/2000/svg" xmlns:xlink="http://www.w3.org/1999/xlink" width="1080" zoomAndPan="magnify" viewBox="0 0 810 809.999993" height="1080" preserveAspectRatio="xMidYMid meet" version="1.0"><defs><g/><clipPath id="id1"><path d="M 312 217 L 642 217 L 642 528.054688 L 312 528.054688 Z M 312 217 " clip-rule="nonzero"/></clipPath></defs><g clip-path="url(#id1)"><path fill="rgb(100%, 50.979614%, 58.428955%)" d="M 640.648438 336.542969 C 639.328125 327.777344 635.429688 320.132812 629.703125 315.074219 C 624.625 310.578125 617.976562 308.246094 611.71875 308.554688 C 612.195312 300.742188 610.425781 292.652344 606.667969 285.710938 C 603.1875 279.277344 598.304688 273.429688 591.710938 267.867188 C 586.492188 263.457031 580.09375 259.183594 572.210938 254.828125 C 562.921875 249.6875 554.25 246.257812 546.421875 244.628906 C 536.433594 242.550781 527.480469 243.28125 519.792969 246.820312 C 513.144531 249.882812 507.222656 255.082031 501.695312 262.695312 C 496.894531 269.300781 493.023438 276.859375 489.628906 283.519531 C 484.296875 293.914062 479.695312 304.875 475.824219 316.253906 C 470.546875 315.355469 465.554688 314.765625 460.726562 314.484375 C 460.5 314.484375 460.304688 314.457031 460.082031 314.457031 C 471.980469 297.933594 480.59375 280.484375 485.726562 262.386719 C 486.207031 260.703125 486.792969 258.902344 487.410156 256.992188 C 489.375 250.839844 491.621094 243.898438 491.425781 237.660156 C 491.425781 237.574219 491.425781 237.492188 491.425781 237.378906 C 498.859375 235.046875 506.578125 233.894531 514.433594 233.949219 C 520.269531 234.007812 532.421875 234.089844 538.566406 239.316406 C 539.042969 239.738281 539.773438 239.65625 540.164062 239.175781 C 540.558594 238.699219 540.5 237.96875 540.023438 237.574219 C 533.234375 231.84375 520.523438 231.730469 514.433594 231.675781 C 506.519531 231.617188 498.71875 232.742188 491.199219 235.046875 C 490.273438 229.003906 486.710938 224.847656 480.398438 222.402344 C 467.238281 217.289062 450.289062 216.558594 435.023438 220.40625 C 429.578125 221.785156 425.257812 223.609375 421.835938 226.027344 C 418.578125 228.300781 416.054688 231.054688 414.175781 234.457031 C 413.191406 233.699219 412.152344 233.050781 411.117188 232.460938 C 402.699219 227.910156 391.585938 228.722656 378.0625 234.878906 C 367.652344 239.625 357.914062 245.808594 349.101562 253.253906 C 340.265625 260.757812 332.574219 269.355469 326.234375 278.824219 C 318.65625 290.234375 310.238281 307.601562 313.214844 325.835938 C 315.402344 339.183594 323.679688 352.054688 336.53125 362.085938 C 347.390625 370.542969 359.820312 376.164062 375.113281 381.953125 C 375.421875 382.066406 375.761719 382.035156 376.070312 381.894531 C 376.347656 381.726562 376.574219 381.445312 376.628906 381.136719 C 381.484375 358.152344 395.710938 337.949219 414.203125 326.792969 C 415.074219 328.253906 416.027344 329.6875 417.035156 331.035156 C 418.101562 332.496094 419.335938 333.902344 421.105469 334.40625 C 424.835938 335.503906 428.035156 332.046875 429.636719 328.757812 C 431.066406 325.835938 432.160156 322.632812 433.003906 319.007812 C 435.585938 318.363281 438.195312 317.855469 440.804688 317.464844 C 440.972656 318.503906 441.195312 319.542969 441.421875 320.554688 C 441.703125 321.820312 442.515625 325.527344 445.320312 326.765625 C 441.925781 328.226562 438.558594 329.882812 435.191406 331.683594 C 424.921875 337.21875 415.296875 344.128906 407.382812 351.71875 C 399.695312 359.078125 393.074219 367.3125 387.742188 376.191406 C 385.863281 379.3125 384.234375 382.65625 385.074219 386.167969 C 385.722656 388.921875 387.769531 390.972656 389.59375 392.660156 C 399.640625 401.847656 412.183594 408.535156 425.875 412.019531 C 439.539062 415.503906 453.765625 415.644531 466.984375 412.414062 C 467.601562 412.273438 467.964844 411.652344 467.824219 411.035156 C 467.796875 410.867188 467.714844 410.726562 467.628906 410.613281 C 466.898438 407.496094 466.140625 377.203125 466.367188 373.550781 C 467.179688 361.128906 469.257812 348.316406 472.566406 335.476562 C 473.886719 330.359375 475.347656 325.304688 476.972656 320.328125 C 478.824219 320.105469 480.761719 319.9375 482.726562 319.824219 C 487.578125 320.863281 492.265625 322.042969 496.644531 323.253906 C 502.199219 324.769531 507.839844 326.484375 513.3125 328.113281 C 517.6875 329.433594 522.066406 330.753906 526.527344 331.992188 C 528.4375 333.394531 530.316406 334.96875 532.140625 336.683594 C 538.257812 342.417969 543.195312 349.609375 547.964844 356.550781 C 552.089844 362.5625 556.328125 368.746094 561.40625 374.054688 C 559.527344 377.035156 557.535156 379.929688 555.402344 382.710938 C 543.980469 383.160156 532.589844 383.949219 521.394531 384.761719 C 514.210938 385.269531 506.773438 385.800781 499.503906 386.222656 C 494.453125 386.503906 487.496094 387.515625 485.277344 392.996094 C 483.988281 396.199219 484.914062 400.441406 487.550781 403.28125 C 489.292969 405.164062 491.566406 406.398438 493.136719 407.160156 C 506.828125 413.847656 524.480469 411.710938 539.210938 401.566406 C 546.085938 396.84375 551.726562 391.167969 556.582031 384.960938 C 562.921875 384.734375 569.234375 384.621094 575.550781 384.707031 C 581.777344 387.769531 588.570312 389.316406 595.5 389.175781 C 597.097656 389.144531 598.699219 389.035156 600.269531 388.835938 C 601.421875 389.539062 602.457031 390.382812 603.414062 391.367188 C 607.875 396.003906 609.191406 403.8125 606.695312 410.8125 C 604.5625 416.769531 600.046875 422.191406 593.253906 426.941406 C 579.953125 436.242188 562.359375 439.980469 544.992188 437.167969 C 529.023438 434.582031 513.535156 426.800781 500.234375 414.660156 C 499.675781 414.15625 499.113281 413.648438 498.578125 413.117188 C 495.632812 410.363281 492.574219 407.523438 488.871094 405.695312 C 483.820312 403.195312 477 403.8125 473.324219 407.160156 C 470.574219 409.632812 469.929688 413.226562 471.445312 417.273438 C 474 424.046875 481.632812 428.878906 487.972656 432.335938 C 493.25 435.203125 498.917969 437.925781 504.386719 440.570312 C 519.371094 447.761719 534.863281 455.179688 545.972656 467.234375 C 559.527344 481.960938 565.894531 502.558594 564.410156 526.835938 C 564.378906 527.453125 564.859375 528.015625 565.476562 528.042969 C 565.503906 528.042969 565.53125 528.042969 565.558594 528.042969 C 566.148438 528.042969 566.652344 527.566406 566.710938 526.976562 C 568.253906 502.078125 561.660156 480.863281 547.683594 465.691406 C 536.292969 453.328125 520.605469 445.796875 505.425781 438.488281 C 499.984375 435.875 494.34375 433.179688 489.125 430.3125 C 483.117188 427.023438 475.90625 422.5 473.632812 416.429688 C 472.457031 413.285156 472.875 410.671875 474.925781 408.84375 C 477.898438 406.148438 483.734375 405.640625 487.917969 407.75 C 491.339844 409.433594 494.257812 412.160156 497.09375 414.800781 C 497.652344 415.335938 498.214844 415.839844 498.777344 416.347656 C 505.34375 422.332031 512.527344 427.332031 520.101562 431.238281 C 528.097656 435.34375 536.375 438.097656 544.710938 439.445312 C 548.609375 440.0625 552.511719 440.371094 556.410156 440.371094 C 570.386719 440.371094 583.882812 436.355469 594.65625 428.824219 C 601.839844 423.792969 606.640625 418.003906 608.941406 411.597656 C 610.230469 407.945312 610.652344 403.871094 610.0625 400.105469 C 609.445312 396.03125 607.734375 392.460938 605.152344 389.792969 C 604.648438 389.257812 604.113281 388.78125 603.582031 388.332031 C 609.191406 387.207031 614.609375 385.042969 619.601562 381.867188 C 627.011719 377.175781 632.933594 370.683594 636.75 363.042969 C 640.621094 354.863281 642.050781 345.703125 640.648438 336.542969 Z M 391.867188 343.566406 C 383.5625 354.019531 377.640625 366.355469 374.695312 379.367188 C 360.128906 373.804688 348.261719 368.351562 337.933594 360.289062 C 325.53125 350.59375 317.5625 338.230469 315.488281 325.472656 C 312.625 307.992188 320.816406 291.160156 328.199219 280.117188 C 340.574219 261.601562 358.644531 246.257812 379.042969 236.957031 C 386.535156 233.558594 393.183594 231.84375 398.964844 231.84375 C 403.117188 231.84375 406.824219 232.714844 410.050781 234.484375 C 411.117188 235.074219 412.152344 235.75 413.164062 236.5625 C 413.082031 236.789062 412.96875 236.984375 412.882812 237.210938 C 409.542969 245.273438 408.28125 253.984375 407.046875 262.386719 C 406.878906 263.566406 406.710938 264.777344 406.515625 265.957031 C 404.578125 278.714844 404.214844 289.730469 405.363281 299.59375 C 406.457031 309.035156 409.039062 317.464844 413.023438 324.769531 C 405.167969 329.519531 397.984375 335.867188 391.867188 343.566406 Z M 427.558594 327.746094 C 426.578125 329.742188 424.25 332.945312 421.722656 332.214844 C 420.542969 331.878906 419.644531 330.726562 418.859375 329.6875 C 417.90625 328.394531 417.007812 327.046875 416.167969 325.640625 C 419.167969 323.953125 422.257812 322.519531 425.453125 321.339844 C 427.109375 320.722656 428.792969 320.160156 430.476562 319.683594 C 429.71875 322.632812 428.765625 325.304688 427.558594 327.746094 Z M 432.328125 307.488281 C 432.078125 311.027344 431.65625 314.230469 431.066406 317.125 C 428.878906 317.714844 426.746094 318.390625 424.667969 319.175781 C 421.386719 320.414062 418.160156 321.902344 415.042969 323.644531 C 407.214844 309.316406 405.167969 290.460938 408.785156 266.320312 C 408.957031 265.140625 409.152344 263.933594 409.320312 262.726562 C 410.527344 254.464844 411.761719 245.921875 414.988281 238.136719 C 417.429688 240.496094 419.675781 243.5625 421.808594 247.410156 C 433.285156 268.34375 433.339844 294.027344 432.328125 307.488281 Z M 440.410156 315.1875 C 438.054688 315.523438 435.753906 315.972656 433.480469 316.507812 C 433.984375 313.808594 434.351562 310.859375 434.574219 307.65625 C 435.613281 293.945312 435.554688 267.78125 423.742188 246.316406 C 421.359375 241.988281 418.777344 238.558594 415.941406 235.972656 C 419.449219 229.34375 425.59375 225.183594 435.585938 222.65625 C 450.398438 218.890625 466.84375 219.621094 479.582031 224.566406 C 485.25 226.785156 488.308594 230.355469 489.011719 235.804688 C 489.011719 235.804688 488.984375 235.804688 488.984375 235.804688 C 472.371094 241.480469 458.453125 252.722656 449.78125 267.445312 C 441.421875 281.691406 438.109375 298.804688 440.410156 315.1875 Z M 451.773438 268.570312 C 460.054688 254.464844 473.324219 243.671875 489.179688 238.136719 C 489.265625 243.871094 487.132812 250.472656 485.25 256.289062 C 484.632812 258.199219 484.042969 260.027344 483.566406 261.769531 C 478.375 280.035156 469.59375 297.679688 457.386719 314.34375 C 452.222656 314.175781 447.339844 314.371094 442.65625 314.933594 C 440.4375 299.03125 443.636719 282.394531 451.773438 268.570312 Z M 443.609375 320.046875 C 443.386719 319.09375 443.21875 318.109375 443.019531 317.125 C 447.257812 316.621094 451.523438 316.453125 455.730469 316.507812 C 454.414062 318.25 453.066406 319.964844 451.691406 321.679688 C 449.699219 324.152344 448.015625 325.164062 446.554688 324.796875 C 445.210938 324.460938 444.226562 322.886719 443.609375 320.046875 Z M 470.324219 334.914062 C 466.984375 347.894531 464.878906 360.820312 464.039062 373.410156 C 463.925781 375.097656 464.066406 384.566406 464.316406 393.277344 C 464.457031 398.25 464.625 402.464844 464.824219 405.527344 C 464.964844 408.03125 465.105469 409.519531 465.242188 410.445312 C 439.175781 416.402344 410.863281 408.984375 391.109375 390.917969 C 389.507812 389.457031 387.769531 387.714844 387.265625 385.578125 C 386.621094 382.878906 388.050781 380.015625 389.679688 377.316406 C 394.925781 368.605469 401.40625 360.539062 408.957031 353.320312 C 425.175781 337.78125 447.621094 325.921875 468.976562 321.59375 C 470.714844 321.230469 472.539062 320.917969 474.417969 320.640625 C 472.933594 325.359375 471.558594 330.109375 470.324219 334.914062 Z M 468.527344 319.375 C 463.363281 320.414062 458.171875 321.875 453.039062 323.703125 C 453.234375 323.476562 453.402344 323.28125 453.515625 323.113281 C 455.253906 320.949219 456.9375 318.785156 458.566406 316.59375 C 464.039062 316.816406 469.453125 317.433594 474.699219 318.304688 C 472.652344 318.617188 470.574219 318.980469 468.527344 319.375 Z M 537.835938 399.683594 C 526.808594 407.269531 509.523438 412.695312 494.0625 405.105469 C 491.816406 404.011719 490.300781 402.972656 489.152344 401.734375 C 487.101562 399.515625 486.34375 396.285156 487.328125 393.839844 C 489.066406 389.566406 495.128906 388.753906 499.5625 388.5 C 506.859375 388.078125 514.292969 387.542969 521.503906 387.039062 C 532.027344 386.28125 542.746094 385.519531 553.464844 385.070312 C 549.03125 390.523438 543.925781 395.496094 537.835938 399.683594 Z M 513.929688 325.949219 C 508.457031 324.320312 502.789062 322.605469 497.203125 321.089844 C 495.746094 320.695312 494.316406 320.300781 492.910156 319.9375 C 501.722656 320.582031 510.925781 322.800781 519.738281 327.691406 C 517.773438 327.101562 515.835938 326.511719 513.929688 325.949219 Z M 502.902344 319.066406 C 496.503906 317.714844 489.796875 317.210938 482.78125 317.546875 C 481.210938 317.210938 479.667969 316.902344 478.152344 316.648438 C 481.96875 305.492188 486.484375 294.757812 491.703125 284.558594 C 498.664062 270.929688 506.578125 255.476562 520.804688 248.898438 C 533.824219 242.886719 550.773438 245.554688 571.144531 256.824219 C 581.777344 262.695312 596.847656 272.195312 604.675781 286.777344 C 608.125 293.15625 610.007812 301.109375 609.472656 308.78125 C 608.464844 308.949219 607.480469 309.175781 606.527344 309.453125 C 598.585938 311.957031 593.058594 318.8125 589.128906 324.542969 C 586.378906 328.507812 583.882812 332.664062 581.496094 336.910156 C 577.402344 337.527344 572.882812 337.722656 567.972656 337.5 C 554.25 336.851562 540.726562 333.675781 527.453125 329.941406 C 520.214844 324.628906 511.964844 321.003906 502.902344 319.066406 Z M 609.25 311.140625 C 608.378906 317.519531 605.742188 323.589844 600.859375 328.28125 C 596.707031 332.242188 591.234375 334.941406 584.445312 336.375 C 586.519531 332.777344 588.679688 329.238281 591.011719 325.835938 C 594.742188 320.414062 599.960938 313.921875 607.230469 311.648438 C 607.902344 311.421875 608.574219 311.253906 609.25 311.140625 Z M 549.789062 355.257812 C 544.964844 348.203125 539.941406 340.925781 533.65625 335.027344 C 533.121094 334.519531 532.5625 334.015625 532 333.535156 C 543.757812 336.683594 555.710938 339.183594 567.886719 339.746094 C 572.292969 339.941406 576.363281 339.832031 580.152344 339.382812 C 577.90625 343.484375 575.800781 347.613281 573.695312 351.6875 C 570.1875 358.515625 566.625 365.457031 562.613281 372.0625 C 557.816406 366.949219 553.746094 361.046875 549.789062 355.257812 Z M 558.292969 382.628906 C 559.949219 380.378906 561.492188 378.101562 563.007812 375.742188 C 565.167969 377.851562 567.523438 379.816406 570.050781 381.53125 C 570.46875 381.8125 570.917969 382.09375 571.339844 382.375 C 567.019531 382.402344 562.640625 382.457031 558.292969 382.628906 Z M 581.890625 384.847656 C 582.226562 384.847656 582.59375 384.875 582.929688 384.875 C 587.25 385.042969 591.878906 385.4375 595.976562 386.871094 C 591.234375 387.011719 586.464844 386.335938 581.890625 384.847656 Z M 618.199219 379.929688 C 612.671875 383.414062 606.722656 385.605469 600.691406 386.476562 C 595.472656 383.527344 588.960938 382.824219 583.039062 382.597656 C 580.710938 382.515625 578.382812 382.457031 576.054688 382.429688 C 574.453125 381.617188 572.882812 380.6875 571.339844 379.648438 C 568.785156 377.90625 566.429688 375.910156 564.242188 373.746094 C 568.449219 366.917969 572.097656 359.78125 575.71875 352.730469 C 578.046875 348.175781 580.429688 343.539062 582.957031 338.988281 C 591.039062 337.609375 597.546875 334.578125 602.402344 329.941406 C 607.453125 325.105469 610.597656 318.53125 611.523438 310.859375 C 617.273438 310.464844 623.476562 312.601562 628.21875 316.816406 C 633.519531 321.539062 637.140625 328.675781 638.402344 336.9375 C 640.984375 353.9375 633.242188 370.402344 618.199219 379.929688 Z M 618.199219 379.929688 " fill-opacity="1" fill-rule="nonzero"/></g><g fill="rgb(100%, 50.979614%, 58.428955%)" fill-opacity="1"><g transform="translate(90.39937, 561.456144)"><g><path d="M 52.015625 0.390625 C 40.835938 0.390625 32.144531 -2.882812 25.9375 -9.4375 C 19.738281 -15.988281 16.640625 -25.640625 16.640625 -38.390625 L 16.640625 -91.703125 L 19.265625 -91.703125 L 19.265625 -38.515625 C 19.265625 -26.460938 22.078125 -17.378906 27.703125 -11.265625 C 33.335938 -5.148438 41.441406 -2.09375 52.015625 -2.09375 C 62.578125 -2.09375 70.675781 -5.148438 76.3125 -11.265625 C 81.945312 -17.378906 84.765625 -26.460938 84.765625 -38.515625 L 84.765625 -91.703125 L 87.390625 -91.703125 L 87.390625 -38.390625 C 87.390625 -25.640625 84.285156 -15.988281 78.078125 -9.4375 C 71.878906 -2.882812 63.191406 0.390625 52.015625 0.390625 Z M 52.015625 0.390625 "/></g></g></g><g fill="rgb(100%, 50.979614%, 58.428955%)" fill-opacity="1"><g transform="translate(213.164687, 561.456144)"><g><path d="M 47.953125 -68.125 C 54.066406 -68.125 59.632812 -66.660156 64.65625 -63.734375 C 69.675781 -60.804688 73.628906 -56.722656 76.515625 -51.484375 C 79.398438 -46.242188 80.84375 -40.347656 80.84375 -33.796875 C 80.84375 -27.242188 79.398438 -21.367188 76.515625 -16.171875 C 73.628906 -10.984375 69.675781 -6.925781 64.65625 -4 C 59.632812 -1.070312 54.066406 0.390625 47.953125 0.390625 C 40.960938 0.390625 34.738281 -1.503906 29.28125 -5.296875 C 23.820312 -9.097656 19.957031 -14.1875 17.6875 -20.5625 L 17.6875 25.421875 L 15.0625 25.421875 L 15.0625 -67.734375 L 17.6875 -67.734375 L 17.6875 -47.03125 C 19.957031 -53.5 23.800781 -58.628906 29.21875 -62.421875 C 34.632812 -66.222656 40.878906 -68.125 47.953125 -68.125 Z M 47.953125 -2.09375 C 53.628906 -2.09375 58.78125 -3.425781 63.40625 -6.09375 C 68.039062 -8.757812 71.664062 -12.515625 74.28125 -17.359375 C 76.90625 -22.203125 78.21875 -27.679688 78.21875 -33.796875 C 78.21875 -39.910156 76.90625 -45.390625 74.28125 -50.234375 C 71.664062 -55.085938 68.039062 -58.867188 63.40625 -61.578125 C 58.78125 -64.285156 53.628906 -65.640625 47.953125 -65.640625 C 42.273438 -65.640625 37.117188 -64.285156 32.484375 -61.578125 C 27.859375 -58.867188 24.234375 -55.085938 21.609375 -50.234375 C 18.992188 -45.390625 17.6875 -39.910156 17.6875 -33.796875 C 17.6875 -27.679688 18.992188 -22.203125 21.609375 -17.359375 C 24.234375 -12.515625 27.859375 -8.757812 32.484375 -6.09375 C 37.117188 -3.425781 42.273438 -2.09375 47.953125 -2.09375 Z M 47.953125 -2.09375 "/></g></g></g><g fill="rgb(100%, 50.979614%, 58.428955%)" fill-opacity="1"><g transform="translate(319.814854, 561.456144)"><g/></g></g><g fill="rgb(100%, 50.979614%, 58.428955%)" fill-opacity="1"><g transform="translate(371.306666, 561.456144)"><g><path d="M 89.484375 -91.703125 L 89.484375 0 L 86.859375 0 L 86.859375 -45.328125 L 20.046875 -45.328125 L 20.046875 0 L 17.421875 0 L 17.421875 -91.703125 L 20.046875 -91.703125 L 20.046875 -47.828125 L 86.859375 -47.828125 L 86.859375 -91.703125 Z M 89.484375 -91.703125 "/></g></g></g><g fill="rgb(100%, 50.979614%, 58.428955%)" fill-opacity="1"><g transform="translate(496.954359, 561.456144)"><g><path d="M 69.828125 -33.9375 L 9.5625 -33.9375 C 9.5625 -27.820312 10.914062 -22.335938 13.625 -17.484375 C 16.332031 -12.640625 20.066406 -8.863281 24.828125 -6.15625 C 29.585938 -3.445312 34.9375 -2.09375 40.875 -2.09375 C 45.507812 -2.09375 49.851562 -2.988281 53.90625 -4.78125 C 57.96875 -6.570312 61.3125 -9.171875 63.9375 -12.578125 L 65.765625 -10.75 C 62.796875 -7.164062 59.128906 -4.410156 54.765625 -2.484375 C 50.398438 -0.566406 45.769531 0.390625 40.875 0.390625 C 34.414062 0.390625 28.628906 -1.070312 23.515625 -4 C 18.410156 -6.925781 14.394531 -11.007812 11.46875 -16.25 C 8.539062 -21.488281 7.078125 -27.382812 7.078125 -33.9375 C 7.078125 -40.488281 8.429688 -46.359375 11.140625 -51.546875 C 13.847656 -56.742188 17.582031 -60.804688 22.34375 -63.734375 C 27.101562 -66.660156 32.453125 -68.125 38.390625 -68.125 C 44.242188 -68.125 49.570312 -66.679688 54.375 -63.796875 C 59.175781 -60.921875 62.953125 -56.945312 65.703125 -51.875 C 68.453125 -46.8125 69.828125 -41.050781 69.828125 -34.59375 Z M 38.390625 -65.640625 C 33.148438 -65.640625 28.390625 -64.375 24.109375 -61.84375 C 19.828125 -59.3125 16.394531 -55.816406 13.8125 -51.359375 C 11.238281 -46.898438 9.820312 -41.921875 9.5625 -36.421875 L 67.34375 -36.421875 C 67.082031 -41.921875 65.640625 -46.898438 63.015625 -51.359375 C 60.398438 -55.816406 56.953125 -59.3125 52.671875 -61.84375 C 48.390625 -64.375 43.628906 -65.640625 38.390625 -65.640625 Z M 38.390625 -65.640625 "/></g></g></g><g fill="rgb(100%, 50.979614%, 58.428955%)" fill-opacity="1"><g transform="translate(592.599062, 561.456144)"><g><path d="M 36.6875 -68.125 C 44.539062 -68.125 50.539062 -66.09375 54.6875 -62.03125 C 58.84375 -57.96875 60.921875 -52.097656 60.921875 -44.421875 L 60.921875 0 L 58.296875 0 L 58.296875 -14.40625 C 56.117188 -9.78125 52.820312 -6.15625 48.40625 -3.53125 C 44 -0.914062 38.691406 0.390625 32.484375 0.390625 C 24.972656 0.390625 19.097656 -1.332031 14.859375 -4.78125 C 10.628906 -8.226562 8.515625 -12.835938 8.515625 -18.609375 C 8.515625 -24.023438 10.414062 -28.410156 14.21875 -31.765625 C 18.019531 -35.128906 24.15625 -36.8125 32.625 -36.8125 L 58.296875 -36.8125 L 58.296875 -44.28125 C 58.296875 -51.351562 56.484375 -56.679688 52.859375 -60.265625 C 49.234375 -63.847656 43.882812 -65.640625 36.8125 -65.640625 C 31.925781 -65.640625 27.363281 -64.785156 23.125 -63.078125 C 18.882812 -61.378906 15.238281 -59.085938 12.1875 -56.203125 L 10.34375 -58.046875 C 13.582031 -61.179688 17.515625 -63.644531 22.140625 -65.4375 C 26.765625 -67.226562 31.613281 -68.125 36.6875 -68.125 Z M 32.484375 -2.09375 C 45.066406 -2.09375 53.671875 -7.859375 58.296875 -19.390625 L 58.296875 -34.328125 L 32.484375 -34.328125 C 25.148438 -34.328125 19.757812 -32.925781 16.3125 -30.125 C 12.863281 -27.332031 11.140625 -23.535156 11.140625 -18.734375 C 11.140625 -13.578125 13.015625 -9.515625 16.765625 -6.546875 C 20.523438 -3.578125 25.765625 -2.09375 32.484375 -2.09375 Z M 32.484375 -2.09375 "/></g></g></g><g fill="rgb(100%, 50.979614%, 58.428955%)" fill-opacity="1"><g transform="translate(686.54054, 561.456144)"><g><path d="M 15.0625 -97.21875 L 17.6875 -97.21875 L 17.6875 0 L 15.0625 0 Z M 15.0625 -97.21875 "/></g></g></g></svg>