<svg xmlns="http://www.w3.org/2000/svg" xmlns:xlink="http://www.w3.org/1999/xlink" width="1080" zoomAndPan="magnify" viewBox="0 0 810 809.999993" height="1080" preserveAspectRatio="xMidYMid meet" version="1.0"><defs><g/><clipPath id="id1"><path d="M 314 222 L 636.878906 222 L 636.878906 525.292969 L 314 525.292969 Z M 314 222 " clip-rule="nonzero"/></clipPath></defs><g clip-path="url(#id1)"><path fill="rgb(0%, 45.878601%, 100%)" d="M 635.507812 338.082031 C 634.21875 329.511719 630.40625 322.039062 624.808594 317.09375 C 619.84375 312.699219 613.34375 310.421875 607.226562 310.722656 C 607.691406 303.085938 605.964844 295.175781 602.289062 288.390625 C 598.886719 282.101562 594.117188 276.386719 587.667969 270.949219 C 582.566406 266.636719 576.3125 262.460938 568.605469 258.203125 C 559.527344 253.175781 551.050781 249.824219 543.398438 248.230469 C 533.632812 246.199219 524.882812 246.914062 517.367188 250.375 C 510.867188 253.367188 505.078125 258.449219 499.675781 265.894531 C 494.984375 272.347656 491.199219 279.738281 487.878906 286.246094 C 482.667969 296.410156 478.167969 307.125 474.382812 318.25 C 469.226562 317.371094 464.34375 316.792969 459.628906 316.519531 C 459.40625 316.519531 459.214844 316.492188 458.996094 316.492188 C 470.625 300.339844 479.046875 283.28125 484.066406 265.589844 C 484.535156 263.945312 485.109375 262.183594 485.714844 260.316406 C 487.632812 254.300781 489.828125 247.515625 489.636719 241.417969 C 489.636719 241.335938 489.636719 241.253906 489.636719 241.144531 C 496.90625 238.863281 504.449219 237.738281 512.128906 237.792969 C 517.832031 237.847656 529.710938 237.929688 535.71875 243.039062 C 536.183594 243.453125 536.898438 243.371094 537.28125 242.902344 C 537.664062 242.433594 537.609375 241.722656 537.144531 241.335938 C 530.503906 235.734375 518.082031 235.625 512.128906 235.570312 C 504.394531 235.511719 496.765625 236.613281 489.414062 238.863281 C 488.511719 232.957031 485.027344 228.894531 478.855469 226.503906 C 465.992188 221.503906 449.421875 220.789062 434.5 224.554688 C 429.179688 225.898438 424.957031 227.683594 421.609375 230.046875 C 418.425781 232.273438 415.957031 234.964844 414.121094 238.289062 C 413.160156 237.546875 412.144531 236.914062 411.132812 236.335938 C 402.902344 231.886719 392.039062 232.683594 378.820312 238.699219 C 368.640625 243.34375 359.125 249.386719 350.511719 256.664062 C 341.871094 264 334.355469 272.402344 328.15625 281.660156 C 320.75 292.8125 312.519531 309.789062 315.429688 327.617188 C 317.566406 340.664062 325.660156 353.242188 338.222656 363.050781 C 348.839844 371.316406 360.988281 376.8125 375.9375 382.46875 C 376.242188 382.582031 376.570312 382.554688 376.871094 382.414062 C 377.144531 382.25 377.363281 381.976562 377.421875 381.671875 C 382.164062 359.203125 396.074219 339.453125 414.148438 328.550781 C 415 329.976562 415.929688 331.378906 416.917969 332.699219 C 417.960938 334.125 419.167969 335.5 420.894531 335.992188 C 424.542969 337.066406 427.671875 333.6875 429.234375 330.472656 C 430.632812 327.617188 431.703125 324.484375 432.527344 320.941406 C 435.050781 320.308594 437.601562 319.816406 440.152344 319.429688 C 440.316406 320.445312 440.535156 321.460938 440.753906 322.453125 C 441.03125 323.6875 441.824219 327.3125 444.566406 328.523438 C 441.25 329.949219 437.957031 331.570312 434.667969 333.328125 C 424.625 338.742188 415.21875 345.496094 407.484375 352.914062 C 399.96875 360.109375 393.492188 368.160156 388.28125 376.839844 C 386.445312 379.886719 384.851562 383.15625 385.675781 386.589844 C 386.308594 389.28125 388.308594 391.289062 390.09375 392.9375 C 399.914062 401.917969 412.171875 408.457031 425.558594 411.863281 C 438.917969 415.269531 452.824219 415.40625 465.742188 412.246094 C 466.347656 412.109375 466.703125 411.503906 466.566406 410.898438 C 466.539062 410.734375 466.457031 410.597656 466.375 410.488281 C 465.660156 407.4375 464.921875 377.828125 465.140625 374.257812 C 465.9375 362.117188 467.964844 349.589844 471.203125 337.039062 C 472.492188 332.039062 473.917969 327.09375 475.507812 322.230469 C 477.320312 322.011719 479.210938 321.847656 481.132812 321.738281 C 485.878906 322.753906 490.457031 323.90625 494.738281 325.089844 C 500.167969 326.570312 505.683594 328.246094 511.03125 329.839844 C 515.308594 331.132812 519.589844 332.421875 523.949219 333.632812 C 525.816406 335.003906 527.652344 336.542969 529.4375 338.21875 C 535.414062 343.820312 540.242188 350.855469 544.90625 357.640625 C 548.9375 363.515625 553.082031 369.558594 558.046875 374.75 C 556.207031 377.664062 554.261719 380.492188 552.175781 383.210938 C 541.011719 383.652344 529.875 384.421875 518.929688 385.21875 C 511.910156 385.710938 504.640625 386.234375 497.535156 386.644531 C 492.597656 386.921875 485.796875 387.910156 483.628906 393.265625 C 482.367188 396.398438 483.273438 400.542969 485.851562 403.320312 C 487.550781 405.160156 489.773438 406.367188 491.308594 407.109375 C 504.695312 413.648438 521.949219 411.558594 536.347656 401.644531 C 543.070312 397.027344 548.582031 391.480469 553.328125 385.410156 C 559.527344 385.191406 565.699219 385.078125 571.871094 385.164062 C 577.960938 388.15625 584.597656 389.667969 591.371094 389.53125 C 592.9375 389.503906 594.5 389.390625 596.035156 389.199219 C 597.160156 389.886719 598.175781 390.710938 599.109375 391.671875 C 603.46875 396.203125 604.757812 403.839844 602.316406 410.679688 C 600.230469 416.503906 595.816406 421.804688 589.179688 426.449219 C 576.175781 435.539062 558.976562 439.191406 542 436.445312 C 526.390625 433.917969 511.25 426.308594 498.25 414.445312 C 497.699219 413.949219 497.152344 413.453125 496.628906 412.933594 C 493.75 410.242188 490.761719 407.464844 487.140625 405.679688 C 482.203125 403.238281 475.535156 403.839844 471.941406 407.109375 C 469.253906 409.527344 468.625 413.042969 470.105469 417 C 472.601562 423.617188 480.0625 428.34375 486.261719 431.722656 C 491.417969 434.523438 496.960938 437.1875 502.308594 439.769531 C 516.957031 446.800781 532.097656 454.054688 542.957031 465.835938 C 556.207031 480.230469 562.433594 500.367188 560.980469 524.097656 C 560.953125 524.703125 561.417969 525.253906 562.023438 525.28125 C 562.050781 525.28125 562.078125 525.28125 562.105469 525.28125 C 562.679688 525.28125 563.175781 524.8125 563.230469 524.234375 C 564.738281 499.898438 558.292969 479.160156 544.632812 464.328125 C 533.496094 452.242188 518.164062 444.878906 503.324219 437.738281 C 498 435.183594 492.488281 432.546875 487.386719 429.742188 C 481.515625 426.53125 474.464844 422.109375 472.246094 416.175781 C 471.09375 413.097656 471.503906 410.542969 473.507812 408.757812 C 476.414062 406.121094 482.121094 405.625 486.207031 407.6875 C 489.554688 409.335938 492.40625 412 495.175781 414.582031 C 495.726562 415.101562 496.273438 415.597656 496.820312 416.09375 C 503.242188 421.941406 510.261719 426.832031 517.667969 430.648438 C 525.484375 434.660156 533.578125 437.351562 541.722656 438.671875 C 545.539062 439.277344 549.351562 439.578125 553.164062 439.578125 C 566.824219 439.578125 580.015625 435.648438 590.550781 428.289062 C 597.570312 423.371094 602.261719 417.710938 604.511719 411.449219 C 605.773438 407.878906 606.183594 403.894531 605.609375 400.214844 C 605.003906 396.230469 603.332031 392.742188 600.808594 390.132812 C 600.316406 389.613281 599.792969 389.144531 599.273438 388.707031 C 604.757812 387.605469 610.050781 385.492188 614.933594 382.386719 C 622.175781 377.800781 627.964844 371.457031 631.695312 363.984375 C 635.480469 355.992188 636.878906 347.035156 635.507812 338.082031 Z M 392.3125 344.949219 C 384.195312 355.167969 378.40625 367.226562 375.527344 379.941406 C 361.292969 374.503906 349.6875 369.175781 339.59375 361.292969 C 327.46875 351.816406 319.679688 339.730469 317.652344 327.257812 C 314.851562 310.171875 322.863281 293.71875 330.074219 282.925781 C 342.171875 264.824219 359.835938 249.824219 379.777344 240.734375 C 387.101562 237.410156 393.605469 235.734375 399.253906 235.734375 C 403.3125 235.734375 406.933594 236.585938 410.089844 238.316406 C 411.132812 238.890625 412.144531 239.550781 413.132812 240.347656 C 413.050781 240.566406 412.941406 240.761719 412.859375 240.980469 C 409.59375 248.863281 408.359375 257.378906 407.152344 265.589844 C 406.988281 266.746094 406.824219 267.925781 406.632812 269.078125 C 404.738281 281.550781 404.382812 292.320312 405.507812 301.960938 C 406.578125 311.1875 409.101562 319.429688 412.996094 326.570312 C 405.316406 331.214844 398.292969 337.421875 392.3125 344.949219 Z M 427.207031 329.484375 C 426.246094 331.433594 423.96875 334.566406 421.5 333.851562 C 420.347656 333.519531 419.46875 332.394531 418.703125 331.378906 C 417.769531 330.117188 416.890625 328.796875 416.070312 327.421875 C 419.003906 325.773438 422.019531 324.375 425.148438 323.21875 C 426.765625 322.617188 428.410156 322.066406 430.058594 321.601562 C 429.316406 324.484375 428.382812 327.09375 427.207031 329.484375 Z M 431.867188 309.679688 C 431.621094 313.140625 431.210938 316.269531 430.632812 319.101562 C 428.496094 319.675781 426.410156 320.335938 424.378906 321.105469 C 421.171875 322.3125 418.015625 323.769531 414.972656 325.472656 C 407.320312 311.464844 405.316406 293.03125 408.855469 269.4375 C 409.019531 268.285156 409.210938 267.101562 409.375 265.921875 C 410.554688 257.84375 411.761719 249.496094 414.917969 241.886719 C 417.304688 244.195312 419.496094 247.1875 421.582031 250.949219 C 432.800781 271.414062 432.855469 296.519531 431.867188 309.679688 Z M 439.769531 317.203125 C 437.464844 317.535156 435.214844 317.972656 432.992188 318.496094 C 433.488281 315.859375 433.84375 312.976562 434.0625 309.84375 C 435.078125 296.4375 435.023438 270.867188 423.476562 249.878906 C 421.144531 245.648438 418.621094 242.296875 415.847656 239.769531 C 419.277344 233.289062 425.285156 229.222656 435.050781 226.75 C 449.53125 223.070312 465.605469 223.785156 478.058594 228.617188 C 483.601562 230.789062 486.589844 234.277344 487.277344 239.605469 C 487.277344 239.605469 487.25 239.605469 487.25 239.605469 C 471.011719 245.15625 457.40625 256.140625 448.929688 270.535156 C 440.753906 284.460938 437.519531 301.191406 439.769531 317.203125 Z M 450.878906 271.632812 C 458.96875 257.84375 471.941406 247.296875 487.441406 241.886719 C 487.523438 247.488281 485.4375 253.945312 483.601562 259.632812 C 482.996094 261.5 482.421875 263.285156 481.953125 264.988281 C 476.878906 282.84375 468.296875 300.09375 456.363281 316.382812 C 451.316406 316.214844 446.542969 316.410156 441.960938 316.957031 C 439.796875 301.410156 442.921875 285.148438 450.878906 271.632812 Z M 442.894531 321.957031 C 442.675781 321.023438 442.511719 320.0625 442.320312 319.101562 C 446.460938 318.605469 450.628906 318.441406 454.746094 318.496094 C 453.457031 320.199219 452.140625 321.875 450.792969 323.550781 C 448.847656 325.96875 447.203125 326.957031 445.773438 326.597656 C 444.457031 326.269531 443.5 324.730469 442.894531 321.957031 Z M 469.007812 336.488281 C 465.742188 349.179688 463.6875 361.8125 462.863281 374.121094 C 462.753906 375.769531 462.890625 385.023438 463.136719 393.539062 C 463.273438 398.402344 463.441406 402.523438 463.632812 405.515625 C 463.769531 407.960938 463.90625 409.417969 464.042969 410.324219 C 438.5625 416.148438 410.882812 408.894531 391.574219 391.234375 C 390.011719 389.804688 388.308594 388.101562 387.816406 386.015625 C 387.183594 383.375 388.582031 380.574219 390.175781 377.9375 C 395.304688 369.421875 401.640625 361.539062 409.019531 354.480469 C 424.875 339.289062 446.816406 327.699219 467.691406 323.46875 C 469.390625 323.109375 471.175781 322.808594 473.011719 322.535156 C 471.558594 327.148438 470.214844 331.789062 469.007812 336.488281 Z M 467.253906 321.296875 C 462.207031 322.3125 457.132812 323.742188 452.113281 325.527344 C 452.304688 325.308594 452.46875 325.117188 452.578125 324.949219 C 454.277344 322.835938 455.925781 320.722656 457.515625 318.578125 C 462.863281 318.796875 468.15625 319.402344 473.289062 320.253906 C 471.285156 320.554688 469.253906 320.914062 467.253906 321.296875 Z M 535.003906 399.804688 C 524.222656 407.21875 507.328125 412.519531 492.214844 405.105469 C 490.019531 404.03125 488.539062 403.015625 487.414062 401.808594 C 485.410156 399.636719 484.671875 396.480469 485.628906 394.089844 C 487.332031 389.914062 493.257812 389.117188 497.589844 388.871094 C 504.722656 388.457031 511.992188 387.9375 519.039062 387.441406 C 529.328125 386.699219 539.804688 385.957031 550.28125 385.519531 C 545.949219 390.847656 540.957031 395.710938 535.003906 399.804688 Z M 511.632812 327.726562 C 506.285156 326.132812 500.746094 324.457031 495.285156 322.972656 C 493.859375 322.589844 492.460938 322.203125 491.089844 321.847656 C 499.703125 322.480469 508.699219 324.648438 517.3125 329.429688 C 515.390625 328.851562 513.5 328.273438 511.632812 327.726562 Z M 500.855469 320.996094 C 494.601562 319.675781 488.042969 319.183594 481.1875 319.511719 C 479.652344 319.183594 478.140625 318.878906 476.660156 318.632812 C 480.390625 307.726562 484.808594 297.234375 489.910156 287.265625 C 496.710938 273.941406 504.449219 258.835938 518.355469 252.40625 C 531.082031 246.527344 547.648438 249.136719 567.5625 260.152344 C 577.960938 265.894531 592.6875 275.179688 600.34375 289.433594 C 603.714844 295.667969 605.554688 303.441406 605.03125 310.941406 C 604.046875 311.105469 603.085938 311.328125 602.152344 311.601562 C 594.390625 314.046875 588.984375 320.75 585.144531 326.351562 C 582.457031 330.226562 580.015625 334.289062 577.683594 338.4375 C 573.679688 339.042969 569.265625 339.234375 564.464844 339.015625 C 551.050781 338.382812 537.828125 335.28125 524.855469 331.625 C 517.777344 326.433594 509.714844 322.890625 500.855469 320.996094 Z M 604.8125 313.25 C 603.964844 319.484375 601.382812 325.417969 596.613281 330.003906 C 592.550781 333.878906 587.203125 336.515625 580.566406 337.917969 C 582.59375 334.398438 584.707031 330.9375 586.984375 327.617188 C 590.632812 322.3125 595.734375 315.96875 602.839844 313.742188 C 603.496094 313.523438 604.15625 313.359375 604.8125 313.25 Z M 546.6875 356.375 C 541.972656 349.480469 537.0625 342.367188 530.917969 336.597656 C 530.394531 336.101562 529.847656 335.609375 529.300781 335.140625 C 540.792969 338.21875 552.476562 340.664062 564.382812 341.210938 C 568.6875 341.40625 572.664062 341.296875 576.367188 340.855469 C 574.175781 344.867188 572.117188 348.902344 570.058594 352.886719 C 566.632812 359.5625 563.148438 366.347656 559.226562 372.800781 C 554.535156 367.800781 550.558594 362.035156 546.6875 356.375 Z M 555 383.128906 C 556.617188 380.933594 558.128906 378.707031 559.609375 376.398438 C 561.722656 378.460938 564.023438 380.382812 566.492188 382.058594 C 566.90625 382.332031 567.34375 382.609375 567.753906 382.882812 C 563.53125 382.910156 559.253906 382.964844 555 383.128906 Z M 578.070312 385.300781 C 578.398438 385.300781 578.753906 385.328125 579.085938 385.328125 C 583.308594 385.492188 587.835938 385.875 591.839844 387.277344 C 587.203125 387.414062 582.539062 386.753906 578.070312 385.300781 Z M 613.5625 380.492188 C 608.160156 383.898438 602.34375 386.042969 596.445312 386.894531 C 591.34375 384.007812 584.980469 383.320312 579.195312 383.101562 C 576.917969 383.019531 574.640625 382.964844 572.363281 382.9375 C 570.800781 382.140625 569.265625 381.234375 567.753906 380.21875 C 565.257812 378.515625 562.957031 376.566406 560.816406 374.449219 C 564.929688 367.773438 568.496094 360.796875 572.035156 353.902344 C 574.3125 349.453125 576.644531 344.921875 579.113281 340.472656 C 587.011719 339.125 593.375 336.160156 598.121094 331.625 C 603.058594 326.902344 606.128906 320.472656 607.035156 312.976562 C 612.65625 312.589844 618.71875 314.679688 623.355469 318.796875 C 628.539062 323.414062 632.078125 330.390625 633.3125 338.464844 C 635.835938 355.085938 628.265625 371.179688 613.5625 380.492188 Z M 613.5625 380.492188 " fill-opacity="1" fill-rule="nonzero"/></g><g fill="rgb(0%, 45.878601%, 100%)" fill-opacity="1"><g transform="translate(97.619797, 557.941079)"><g><path d="M 50.84375 0.390625 C 39.914062 0.390625 31.421875 -2.8125 25.359375 -9.21875 C 19.296875 -15.625 16.265625 -25.0625 16.265625 -37.53125 L 16.265625 -89.65625 L 18.828125 -89.65625 L 18.828125 -37.65625 C 18.828125 -25.875 21.578125 -16.992188 27.078125 -11.015625 C 32.585938 -5.035156 40.507812 -2.046875 50.84375 -2.046875 C 61.175781 -2.046875 69.09375 -5.035156 74.59375 -11.015625 C 80.101562 -16.992188 82.859375 -25.875 82.859375 -37.65625 L 82.859375 -89.65625 L 85.421875 -89.65625 L 85.421875 -37.53125 C 85.421875 -25.0625 82.390625 -15.625 76.328125 -9.21875 C 70.265625 -2.8125 61.769531 0.390625 50.84375 0.390625 Z M 50.84375 0.390625 "/></g></g></g><g fill="rgb(0%, 45.878601%, 100%)" fill-opacity="1"><g transform="translate(217.627091, 557.941079)"><g><path d="M 46.875 -66.59375 C 52.851562 -66.59375 58.296875 -65.160156 63.203125 -62.296875 C 68.117188 -59.441406 71.984375 -55.453125 74.796875 -50.328125 C 77.617188 -45.210938 79.03125 -39.453125 79.03125 -33.046875 C 79.03125 -26.640625 77.617188 -20.894531 74.796875 -15.8125 C 71.984375 -10.738281 68.117188 -6.769531 63.203125 -3.90625 C 58.296875 -1.039062 52.851562 0.390625 46.875 0.390625 C 40.039062 0.390625 33.957031 -1.46875 28.625 -5.1875 C 23.289062 -8.90625 19.515625 -13.878906 17.296875 -20.109375 L 17.296875 24.84375 L 14.734375 24.84375 L 14.734375 -66.21875 L 17.296875 -66.21875 L 17.296875 -45.984375 C 19.515625 -52.296875 23.269531 -57.304688 28.5625 -61.015625 C 33.851562 -64.734375 39.957031 -66.59375 46.875 -66.59375 Z M 46.875 -2.046875 C 52.425781 -2.046875 57.460938 -3.347656 61.984375 -5.953125 C 66.515625 -8.554688 70.0625 -12.226562 72.625 -16.96875 C 75.1875 -21.707031 76.46875 -27.066406 76.46875 -33.046875 C 76.46875 -39.023438 75.1875 -44.378906 72.625 -49.109375 C 70.0625 -53.847656 66.515625 -57.539062 61.984375 -60.1875 C 57.460938 -62.84375 52.425781 -64.171875 46.875 -64.171875 C 41.320312 -64.171875 36.28125 -62.84375 31.75 -60.1875 C 27.226562 -57.539062 23.6875 -53.847656 21.125 -49.109375 C 18.570312 -44.378906 17.296875 -39.023438 17.296875 -33.046875 C 17.296875 -27.066406 18.570312 -21.707031 21.125 -16.96875 C 23.6875 -12.226562 27.226562 -8.554688 31.75 -5.953125 C 36.28125 -3.347656 41.320312 -2.046875 46.875 -2.046875 Z M 46.875 -2.046875 "/></g></g></g><g fill="rgb(0%, 45.878601%, 100%)" fill-opacity="1"><g transform="translate(321.881274, 557.941079)"><g/></g></g><g fill="rgb(0%, 45.878601%, 100%)" fill-opacity="1"><g transform="translate(372.216281, 557.941079)"><g><path d="M 87.484375 -89.65625 L 87.484375 0 L 84.921875 0 L 84.921875 -44.3125 L 19.59375 -44.3125 L 19.59375 0 L 17.03125 0 L 17.03125 -89.65625 L 19.59375 -89.65625 L 19.59375 -46.75 L 84.921875 -46.75 L 84.921875 -89.65625 Z M 87.484375 -89.65625 "/></g></g></g><g fill="rgb(0%, 45.878601%, 100%)" fill-opacity="1"><g transform="translate(495.041196, 557.941079)"><g><path d="M 68.265625 -33.171875 L 9.34375 -33.171875 C 9.34375 -27.191406 10.664062 -21.832031 13.3125 -17.09375 C 15.96875 -12.351562 19.617188 -8.660156 24.265625 -6.015625 C 28.921875 -3.367188 34.148438 -2.046875 39.953125 -2.046875 C 44.484375 -2.046875 48.734375 -2.921875 52.703125 -4.671875 C 56.671875 -6.421875 59.9375 -8.960938 62.5 -12.296875 L 64.296875 -10.5 C 61.390625 -7 57.800781 -4.304688 53.53125 -2.421875 C 49.257812 -0.546875 44.734375 0.390625 39.953125 0.390625 C 33.640625 0.390625 27.984375 -1.039062 22.984375 -3.90625 C 17.992188 -6.769531 14.066406 -10.757812 11.203125 -15.875 C 8.347656 -21 6.921875 -26.765625 6.921875 -33.171875 C 6.921875 -39.578125 8.242188 -45.316406 10.890625 -50.390625 C 13.535156 -55.472656 17.179688 -59.441406 21.828125 -62.296875 C 26.484375 -65.160156 31.71875 -66.59375 37.53125 -66.59375 C 43.25 -66.59375 48.457031 -65.179688 53.15625 -62.359375 C 57.851562 -59.546875 61.546875 -55.664062 64.234375 -50.71875 C 66.921875 -45.769531 68.265625 -40.132812 68.265625 -33.8125 Z M 37.53125 -64.171875 C 32.40625 -64.171875 27.75 -62.929688 23.5625 -60.453125 C 19.382812 -57.972656 16.035156 -54.554688 13.515625 -50.203125 C 10.992188 -45.847656 9.601562 -40.984375 9.34375 -35.609375 L 65.828125 -35.609375 C 65.578125 -40.984375 64.171875 -45.847656 61.609375 -50.203125 C 59.046875 -54.554688 55.671875 -57.972656 51.484375 -60.453125 C 47.304688 -62.929688 42.65625 -64.171875 37.53125 -64.171875 Z M 37.53125 -64.171875 "/></g></g></g><g fill="rgb(0%, 45.878601%, 100%)" fill-opacity="1"><g transform="translate(588.537162, 557.941079)"><g><path d="M 35.859375 -66.59375 C 43.546875 -66.59375 49.414062 -64.609375 53.46875 -60.640625 C 57.53125 -56.671875 59.5625 -50.929688 59.5625 -43.421875 L 59.5625 0 L 57 0 L 57 -14.09375 C 54.863281 -9.5625 51.640625 -6.015625 47.328125 -3.453125 C 43.015625 -0.890625 37.828125 0.390625 31.765625 0.390625 C 24.421875 0.390625 18.675781 -1.296875 14.53125 -4.671875 C 10.394531 -8.046875 8.328125 -12.550781 8.328125 -18.1875 C 8.328125 -23.476562 10.179688 -27.765625 13.890625 -31.046875 C 17.609375 -34.335938 23.609375 -35.984375 31.890625 -35.984375 L 57 -35.984375 L 57 -43.296875 C 57 -50.210938 55.222656 -55.421875 51.671875 -58.921875 C 48.128906 -62.421875 42.898438 -64.171875 35.984375 -64.171875 C 31.203125 -64.171875 26.738281 -63.335938 22.59375 -61.671875 C 18.457031 -60.003906 14.894531 -57.765625 11.90625 -54.953125 L 10.125 -56.734375 C 13.28125 -59.804688 17.117188 -62.21875 21.640625 -63.96875 C 26.171875 -65.71875 30.910156 -66.59375 35.859375 -66.59375 Z M 31.765625 -2.046875 C 44.054688 -2.046875 52.46875 -7.679688 57 -18.953125 L 57 -33.5625 L 31.765625 -33.5625 C 24.585938 -33.5625 19.3125 -32.191406 15.9375 -29.453125 C 12.570312 -26.722656 10.890625 -23.007812 10.890625 -18.3125 C 10.890625 -13.28125 12.722656 -9.3125 16.390625 -6.40625 C 20.066406 -3.5 25.191406 -2.046875 31.765625 -2.046875 Z M 31.765625 -2.046875 "/></g></g></g><g fill="rgb(0%, 45.878601%, 100%)" fill-opacity="1"><g transform="translate(680.368168, 557.941079)"><g><path d="M 14.734375 -95.03125 L 17.296875 -95.03125 L 17.296875 0 L 14.734375 0 Z M 14.734375 -95.03125 "/></g></g></g></svg>