<svg xmlns="http://www.w3.org/2000/svg" xmlns:xlink="http://www.w3.org/1999/xlink" width="1080" zoomAndPan="magnify" viewBox="0 0 810 809.999993" height="1080" preserveAspectRatio="xMidYMid meet" version="1.0"><defs><filter x="0%" y="0%" width="100%" height="100%" id="id1"><feColorMatrix values="0 0 0 0 1 0 0 0 0 1 0 0 0 0 1 0 0 0 1 0" color-interpolation-filters="sRGB"/></filter><g/><clipPath id="id2"><path d="M 391.195312 186.582031 L 659.277344 186.582031 L 659.277344 367.328125 L 391.195312 367.328125 Z M 391.195312 186.582031 " clip-rule="nonzero"/></clipPath><mask id="id3"><g filter="url(#id1)"><rect x="-81" width="972" fill="rgb(0%, 0%, 0%)" y="-80.999999" height="971.999992" fill-opacity="0.9176"/></g></mask><clipPath id="id4"><rect x="0" width="632" y="0" height="9"/></clipPath></defs><path fill="rgb(100%, 50.979614%, 58.428955%)" d="M 94.417969 482.382812 L 94.417969 210.136719 C 94.417969 196.894531 99.675781 184.195312 109.039062 174.835938 C 118.402344 165.472656 131.101562 160.210938 144.34375 160.210938 L 665.648438 160.210938 C 678.890625 160.210938 691.589844 165.472656 700.953125 174.835938 C 710.316406 184.195312 715.578125 196.894531 715.578125 210.136719 L 715.578125 482.382812 C 715.578125 495.625 710.316406 508.324219 700.953125 517.6875 C 691.589844 527.050781 678.890625 532.3125 665.648438 532.3125 L 144.34375 532.3125 C 116.769531 532.3125 94.417969 509.957031 94.417969 482.382812 " fill-opacity="1" fill-rule="nonzero"/><g fill="rgb(100%, 100%, 100%)" fill-opacity="1"><g transform="translate(143.754884, 304.111953)"><g/></g></g><g fill="rgb(100%, 100%, 100%)" fill-opacity="1"><g transform="translate(176.066733, 304.111953)"><g><path d="M 70.671875 -64.875 L 70.671875 0 L 62.28125 0 L 62.28125 -11.84375 C 59.976562 -7.894531 56.8125 -4.832031 52.78125 -2.65625 C 48.757812 -0.476562 44.160156 0.609375 38.984375 0.609375 C 30.503906 0.609375 23.816406 -1.75 18.921875 -6.46875 C 14.035156 -11.195312 11.59375 -18.128906 11.59375 -27.265625 L 11.59375 -64.875 L 20.359375 -64.875 L 20.359375 -28.125 C 20.359375 -21.300781 22.039062 -16.117188 25.40625 -12.578125 C 28.78125 -9.046875 33.59375 -7.28125 39.84375 -7.28125 C 46.664062 -7.28125 52.050781 -9.351562 56 -13.5 C 59.945312 -17.65625 61.921875 -23.429688 61.921875 -30.828125 L 61.921875 -64.875 Z M 70.671875 -64.875 "/></g></g></g><g fill="rgb(100%, 100%, 100%)" fill-opacity="1"><g transform="translate(259.073181, 304.111953)"><g><path d="M 45.640625 -65.375 C 51.722656 -65.375 57.226562 -63.992188 62.15625 -61.234375 C 67.09375 -58.484375 70.957031 -54.597656 73.75 -49.578125 C 76.550781 -44.566406 77.953125 -38.851562 77.953125 -32.4375 C 77.953125 -25.9375 76.550781 -20.175781 73.75 -15.15625 C 70.957031 -10.144531 67.113281 -6.265625 62.21875 -3.515625 C 57.332031 -0.765625 51.804688 0.609375 45.640625 0.609375 C 40.378906 0.609375 35.628906 -0.476562 31.390625 -2.65625 C 27.148438 -4.832031 23.675781 -8.019531 20.96875 -12.21875 L 20.96875 23.921875 L 12.21875 23.921875 L 12.21875 -64.875 L 20.59375 -64.875 L 20.59375 -52.046875 C 23.226562 -56.328125 26.703125 -59.617188 31.015625 -61.921875 C 35.335938 -64.222656 40.210938 -65.375 45.640625 -65.375 Z M 45.015625 -7.15625 C 49.535156 -7.15625 53.644531 -8.203125 57.34375 -10.296875 C 61.050781 -12.390625 63.953125 -15.367188 66.046875 -19.234375 C 68.148438 -23.097656 69.203125 -27.5 69.203125 -32.4375 C 69.203125 -37.375 68.148438 -41.753906 66.046875 -45.578125 C 63.953125 -49.398438 61.050781 -52.378906 57.34375 -54.515625 C 53.644531 -56.648438 49.535156 -57.71875 45.015625 -57.71875 C 40.410156 -57.71875 36.28125 -56.648438 32.625 -54.515625 C 28.96875 -52.378906 26.085938 -49.398438 23.984375 -45.578125 C 21.890625 -41.753906 20.84375 -37.375 20.84375 -32.4375 C 20.84375 -27.5 21.890625 -23.097656 23.984375 -19.234375 C 26.085938 -15.367188 28.96875 -12.390625 32.625 -10.296875 C 36.28125 -8.203125 40.410156 -7.15625 45.015625 -7.15625 Z M 45.015625 -7.15625 "/></g></g></g><g fill="rgb(100%, 100%, 100%)" fill-opacity="1"><g transform="translate(342.692878, 304.111953)"><g/></g></g><g fill="rgb(100%, 100%, 100%)" fill-opacity="1"><g transform="translate(375.007427, 304.111953)"><g/></g></g><g fill="rgb(100%, 100%, 100%)" fill-opacity="1"><g transform="translate(407.321975, 304.111953)"><g/></g></g><g fill="rgb(100%, 100%, 100%)" fill-opacity="1"><g transform="translate(439.636524, 304.111953)"><g/></g></g><g fill="rgb(100%, 100%, 100%)" fill-opacity="1"><g transform="translate(471.951073, 304.111953)"><g/></g></g><g fill="rgb(100%, 100%, 100%)" fill-opacity="1"><g transform="translate(504.265621, 304.111953)"><g/></g></g><g fill="rgb(100%, 100%, 100%)" fill-opacity="1"><g transform="translate(536.58017, 304.111953)"><g/></g></g><g fill="rgb(100%, 100%, 100%)" fill-opacity="1"><g transform="translate(568.894731, 304.111953)"><g/></g></g><g fill="rgb(100%, 100%, 100%)" fill-opacity="1"><g transform="translate(601.209268, 304.111953)"><g/></g></g><g fill="rgb(100%, 100%, 100%)" fill-opacity="1"><g transform="translate(633.523805, 304.111953)"><g/></g></g><g fill="rgb(100%, 100%, 100%)" fill-opacity="1"><g transform="translate(143.778617, 476.5051)"><g/></g></g><g fill="rgb(100%, 100%, 100%)" fill-opacity="1"><g transform="translate(176.093165, 476.5051)"><g/></g></g><g fill="rgb(100%, 100%, 100%)" fill-opacity="1"><g transform="translate(208.407714, 476.5051)"><g/></g></g><g fill="rgb(100%, 100%, 100%)" fill-opacity="1"><g transform="translate(240.722263, 476.5051)"><g/></g></g><g fill="rgb(100%, 100%, 100%)" fill-opacity="1"><g transform="translate(273.036812, 476.5051)"><g/></g></g><g fill="rgb(100%, 100%, 100%)" fill-opacity="1"><g transform="translate(305.35136, 476.5051)"><g/></g></g><g fill="rgb(100%, 100%, 100%)" fill-opacity="1"><g transform="translate(337.665909, 476.5051)"><g/></g></g><g fill="rgb(100%, 100%, 100%)" fill-opacity="1"><g transform="translate(369.973425, 476.5051)"><g><path d="M 45.265625 -65.375 C 53.410156 -65.375 59.882812 -63.007812 64.6875 -58.28125 C 69.5 -53.550781 71.90625 -46.664062 71.90625 -37.625 L 71.90625 0 L 63.15625 0 L 63.15625 -36.75 C 63.15625 -43.5 61.46875 -48.640625 58.09375 -52.171875 C 54.71875 -55.710938 49.90625 -57.484375 43.65625 -57.484375 C 36.664062 -57.484375 31.132812 -55.40625 27.0625 -51.25 C 23 -47.09375 20.96875 -41.359375 20.96875 -34.046875 L 20.96875 0 L 12.21875 0 L 12.21875 -91.515625 L 20.96875 -91.515625 L 20.96875 -53.53125 C 23.351562 -57.3125 26.640625 -60.226562 30.828125 -62.28125 C 35.023438 -64.34375 39.835938 -65.375 45.265625 -65.375 Z M 45.265625 -65.375 "/></g></g></g><g fill="rgb(100%, 100%, 100%)" fill-opacity="1"><g transform="translate(453.473227, 476.5051)"><g><path d="M 68.703125 -29.71875 L 14.4375 -29.71875 C 14.925781 -22.976562 17.515625 -17.53125 22.203125 -13.375 C 26.890625 -9.226562 32.8125 -7.15625 39.96875 -7.15625 C 43.988281 -7.15625 47.6875 -7.875 51.0625 -9.3125 C 54.4375 -10.75 57.359375 -12.867188 59.828125 -15.671875 L 64.75 -9.984375 C 61.875 -6.535156 58.273438 -3.90625 53.953125 -2.09375 C 49.640625 -0.289062 44.894531 0.609375 39.71875 0.609375 C 33.050781 0.609375 27.148438 -0.804688 22.015625 -3.640625 C 16.878906 -6.472656 12.867188 -10.394531 9.984375 -15.40625 C 7.109375 -20.425781 5.671875 -26.101562 5.671875 -32.4375 C 5.671875 -38.769531 7.046875 -44.441406 9.796875 -49.453125 C 12.554688 -54.472656 16.34375 -58.378906 21.15625 -61.171875 C 25.96875 -63.972656 31.375 -65.375 37.375 -65.375 C 43.375 -65.375 48.757812 -63.972656 53.53125 -61.171875 C 58.300781 -58.378906 62.039062 -54.492188 64.75 -49.515625 C 67.46875 -44.546875 68.828125 -38.851562 68.828125 -32.4375 Z M 37.375 -57.84375 C 31.125 -57.84375 25.878906 -55.847656 21.640625 -51.859375 C 17.410156 -47.878906 15.007812 -42.679688 14.4375 -36.265625 L 60.4375 -36.265625 C 59.863281 -42.679688 57.457031 -47.878906 53.21875 -51.859375 C 48.988281 -55.847656 43.707031 -57.84375 37.375 -57.84375 Z M 37.375 -57.84375 "/></g></g></g><g fill="rgb(100%, 100%, 100%)" fill-opacity="1"><g transform="translate(527.969358, 476.5051)"><g><path d="M 34.90625 -65.375 C 43.375 -65.375 49.867188 -63.253906 54.390625 -59.015625 C 58.910156 -54.785156 61.171875 -48.515625 61.171875 -40.203125 L 61.171875 0 L 52.796875 0 L 52.796875 -10.109375 C 50.816406 -6.742188 47.914062 -4.113281 44.09375 -2.21875 C 40.269531 -0.332031 35.726562 0.609375 30.46875 0.609375 C 23.226562 0.609375 17.46875 -1.113281 13.1875 -4.5625 C 8.914062 -8.019531 6.78125 -12.582031 6.78125 -18.25 C 6.78125 -23.757812 8.773438 -28.203125 12.765625 -31.578125 C 16.753906 -34.953125 23.109375 -36.640625 31.828125 -36.640625 L 52.421875 -36.640625 L 52.421875 -40.578125 C 52.421875 -46.171875 50.859375 -50.425781 47.734375 -53.34375 C 44.609375 -56.257812 40.046875 -57.71875 34.046875 -57.71875 C 29.929688 -57.71875 25.984375 -57.039062 22.203125 -55.6875 C 18.421875 -54.332031 15.171875 -52.460938 12.453125 -50.078125 L 8.515625 -56.609375 C 11.796875 -59.410156 15.738281 -61.570312 20.34375 -63.09375 C 24.957031 -64.613281 29.8125 -65.375 34.90625 -65.375 Z M 31.828125 -6.296875 C 36.753906 -6.296875 40.984375 -7.425781 44.515625 -9.6875 C 48.054688 -11.945312 50.691406 -15.210938 52.421875 -19.484375 L 52.421875 -30.09375 L 32.0625 -30.09375 C 20.96875 -30.09375 15.421875 -26.226562 15.421875 -18.5 C 15.421875 -14.71875 16.859375 -11.738281 19.734375 -9.5625 C 22.609375 -7.382812 26.640625 -6.296875 31.828125 -6.296875 Z M 31.828125 -6.296875 "/></g></g></g><g fill="rgb(100%, 100%, 100%)" fill-opacity="1"><g transform="translate(600.73874, 476.5051)"><g><path d="M 12.21875 -91.515625 L 20.96875 -91.515625 L 20.96875 0 L 12.21875 0 Z M 12.21875 -91.515625 "/></g></g></g><g fill="rgb(100%, 100%, 100%)" fill-opacity="1"><g transform="translate(633.914837, 476.5051)"><g/></g></g><g clip-path="url(#id2)"><path fill="rgb(100%, 100%, 100%)" d="M 654.792969 280.976562 C 651.894531 273.730469 647.605469 267.066406 641.996094 261.570312 C 640.78125 260.378906 639.390625 259.214844 637.878906 258.167969 C 637.855469 249.902344 635.90625 241.78125 632.175781 234.558594 C 628.421875 227.289062 622.890625 220.917969 615.746094 216.296875 C 611.359375 213.453125 606.414062 211.09375 601.222656 209.417969 C 596.03125 207.765625 590.59375 206.792969 585.160156 206.792969 C 583.257812 206.792969 581.332031 206.914062 579.457031 207.15625 C 579.40625 207.082031 579.359375 207.011719 579.308594 206.9375 C 576.507812 203.09375 572.828125 199.59375 569.097656 196.699219 C 567.21875 195.265625 565.34375 193.976562 563.515625 192.90625 C 561.6875 191.835938 559.957031 190.9375 558.371094 190.304688 C 551.9375 187.703125 545.234375 186.585938 538.53125 186.585938 C 530.199219 186.585938 521.835938 188.3125 513.941406 191.058594 C 512.378906 191.59375 510.648438 192.300781 508.917969 193.175781 C 501.316406 189.648438 493.078125 187.921875 484.863281 187.921875 C 474.285156 187.921875 463.707031 190.769531 454.421875 196.289062 C 450.617188 198.546875 445.035156 202.292969 440.332031 206.839844 C 437.992188 209.125 435.847656 211.605469 434.289062 214.253906 C 434.117188 214.546875 433.945312 214.839844 433.800781 215.15625 C 429.195312 215.714844 424.832031 217.199219 420.835938 219.386719 C 413.300781 223.519531 407.015625 230.109375 402.601562 237.839844 C 398.191406 245.574219 395.632812 254.421875 395.632812 263.128906 C 395.632812 266.945312 396.121094 270.714844 397.167969 274.335938 C 396.851562 274.652344 396.558594 274.992188 396.289062 275.335938 C 394.511719 277.5 393.242188 280.003906 392.414062 282.703125 C 391.585938 285.375 391.195312 288.246094 391.195312 291.136719 C 391.195312 296.34375 392.4375 301.691406 394.679688 306.480469 C 395.800781 308.863281 397.167969 311.101562 398.777344 313.117188 C 400.382812 315.113281 402.210938 316.886719 404.261719 318.296875 C 407.160156 320.316406 410.28125 321.800781 413.546875 322.820312 C 416.8125 323.839844 420.199219 324.402344 423.636719 324.546875 C 424.320312 324.570312 424.90625 324.035156 424.929688 323.355469 C 424.953125 322.675781 424.417969 322.089844 423.734375 322.066406 C 420.515625 321.945312 417.324219 321.410156 414.300781 320.460938 C 411.253906 319.511719 408.355469 318.128906 405.671875 316.253906 C 403.847656 314.992188 402.1875 313.410156 400.726562 311.5625 C 398.53125 308.816406 396.753906 305.507812 395.558594 302.007812 C 394.339844 298.480469 393.707031 294.761719 393.707031 291.164062 C 393.707031 288.78125 394 286.445312 394.582031 284.257812 C 395.023438 282.628906 395.632812 281.074219 396.4375 279.636719 C 396.921875 278.738281 397.484375 277.886719 398.117188 277.109375 C 399.167969 279.929688 400.605469 282.628906 402.40625 285.132812 C 403.75 287.003906 405.671875 288.535156 407.84375 289.632812 C 410.011719 290.726562 412.449219 291.355469 414.863281 291.355469 C 416.03125 291.355469 417.226562 291.210938 418.347656 290.871094 C 419.492188 290.53125 420.566406 290.019531 421.566406 289.316406 C 423.003906 288.269531 424.074219 286.933594 424.757812 285.472656 C 425.441406 283.988281 425.757812 282.410156 425.757812 280.804688 C 425.757812 279.199219 425.441406 277.59375 424.855469 276.113281 C 424.269531 274.605469 423.417969 273.21875 422.296875 272.050781 C 420.929688 270.617188 419.273438 269.597656 417.46875 268.914062 C 415.667969 268.234375 413.742188 267.917969 411.839844 267.917969 C 410.597656 267.917969 409.378906 268.0625 408.207031 268.308594 C 405.257812 268.964844 402.699219 270.082031 400.53125 271.539062 C 400.09375 271.832031 399.679688 272.148438 399.261719 272.464844 C 398.507812 269.449219 398.140625 266.3125 398.140625 263.152344 C 398.140625 257.683594 399.214844 252.089844 401.1875 246.789062 C 404.136719 238.835938 409.109375 231.519531 415.375 226.195312 C 418.519531 223.542969 421.980469 221.355469 425.683594 219.847656 C 427.925781 218.925781 430.242188 218.269531 432.628906 217.855469 C 432.582031 218.023438 432.507812 218.195312 432.460938 218.363281 C 432.019531 219.773438 431.753906 221.210938 431.753906 222.644531 C 431.753906 223.910156 431.949219 225.199219 432.363281 226.460938 C 432.777344 227.726562 433.433594 228.992188 434.3125 230.207031 C 435.433594 231.761719 436.921875 232.976562 438.625 233.828125 C 440.308594 234.679688 442.183594 235.140625 444.085938 235.140625 C 444.523438 235.140625 444.9375 235.117188 445.378906 235.070312 C 446.5 234.949219 447.644531 234.632812 448.691406 234.121094 C 449.742188 233.609375 450.714844 232.878906 451.472656 231.90625 C 452.007812 231.203125 452.398438 230.425781 452.664062 229.597656 C 452.910156 228.796875 453.03125 227.945312 453.03125 227.09375 C 453.03125 225.367188 452.566406 223.664062 451.738281 222.183594 C 451.058594 220.941406 450.15625 219.871094 449.132812 218.949219 C 447.597656 217.585938 445.742188 216.566406 443.792969 215.910156 C 441.84375 215.253906 439.746094 214.914062 437.699219 214.914062 C 437.601562 214.914062 437.503906 214.914062 437.382812 214.914062 C 437.1875 214.914062 436.992188 214.914062 436.824219 214.9375 C 437.261719 214.253906 437.75 213.550781 438.261719 212.894531 C 440.625 209.832031 443.769531 206.914062 446.9375 204.433594 C 450.105469 201.953125 453.300781 199.886719 455.710938 198.453125 C 464.558594 193.125 474.699219 190.402344 484.839844 190.402344 C 492.101562 190.402344 499.339844 191.8125 506.140625 194.660156 C 505.289062 195.144531 504.460938 195.679688 503.65625 196.238281 C 501.511719 197.746094 499.535156 199.472656 498.050781 201.441406 C 497.316406 202.4375 496.707031 203.484375 496.269531 204.601562 C 495.855469 205.722656 495.613281 206.914062 495.613281 208.128906 C 495.613281 209.441406 495.878906 210.777344 496.488281 212.117188 C 497.074219 213.453125 497.976562 214.789062 499.195312 216.128906 C 500.390625 217.441406 501.875 218.4375 503.484375 219.117188 C 505.09375 219.800781 506.847656 220.140625 508.578125 220.140625 C 510.453125 220.140625 512.332031 219.726562 514.039062 218.875 C 516.132812 217.828125 517.839844 216.152344 519.035156 214.183594 C 520.230469 212.214844 520.886719 209.929688 520.886719 207.617188 C 520.886719 206.839844 520.8125 206.085938 520.667969 205.308594 C 520.421875 204.140625 520.035156 203.046875 519.496094 202 C 518.691406 200.445312 517.621094 199.058594 516.351562 197.867188 C 515.109375 196.675781 513.671875 195.65625 512.183594 194.828125 C 512.039062 194.753906 511.867188 194.660156 511.722656 194.585938 C 512.769531 194.125 513.792969 193.734375 514.746094 193.394531 C 522.445312 190.71875 530.515625 189.066406 538.507812 189.066406 C 544.917969 189.066406 551.304688 190.136719 557.398438 192.617188 C 559.589844 193.515625 562.25 194.972656 564.976562 196.824219 C 569.074219 199.617188 573.3125 203.339844 576.507812 207.398438 C 576.578125 207.472656 576.628906 207.546875 576.675781 207.640625 C 573.09375 208.371094 569.609375 209.613281 566.292969 211.410156 C 564.367188 212.457031 562.636719 213.914062 561.296875 215.667969 C 559.957031 217.417969 558.980469 219.460938 558.640625 221.671875 C 558.519531 222.402344 558.46875 223.105469 558.46875 223.789062 C 558.46875 225.464844 558.8125 226.996094 559.445312 228.335938 C 559.910156 229.332031 560.542969 230.207031 561.296875 230.984375 C 562.417969 232.128906 563.785156 232.976562 565.269531 233.539062 C 566.757812 234.097656 568.367188 234.386719 570 234.386719 C 571.609375 234.386719 573.242188 234.121094 574.800781 233.539062 C 576.359375 232.953125 577.824219 232.078125 579.089844 230.910156 C 580.871094 229.257812 582.1875 227.457031 583.015625 225.609375 C 583.867188 223.738281 584.234375 221.816406 584.234375 219.898438 C 584.234375 218.269531 583.964844 216.640625 583.476562 215.058594 C 582.917969 213.160156 582.039062 211.3125 580.96875 209.515625 C 582.355469 209.367188 583.746094 209.296875 585.136719 209.296875 C 590.253906 209.296875 595.445312 210.195312 600.441406 211.800781 C 605.414062 213.378906 610.167969 215.667969 614.382812 218.390625 C 621.160156 222.765625 626.398438 228.773438 629.957031 235.703125 C 633.246094 242.097656 635.101562 249.269531 635.34375 256.585938 C 634.613281 256.175781 633.855469 255.761719 633.078125 255.394531 C 631.394531 254.59375 629.640625 253.9375 627.863281 253.5 C 626.082031 253.039062 624.277344 252.792969 622.476562 252.792969 C 621.160156 252.792969 619.84375 252.941406 618.574219 253.230469 C 616.675781 253.695312 614.847656 254.519531 613.1875 255.808594 C 611.554688 257.074219 610.09375 258.800781 608.921875 260.964844 C 607.800781 263.007812 607.265625 265.242188 607.265625 267.433594 C 607.265625 269.644531 607.800781 271.808594 608.851562 273.753906 C 609.898438 275.699219 611.457031 277.402344 613.457031 278.640625 C 614.675781 279.394531 615.917969 279.953125 617.136719 280.292969 C 618.378906 280.660156 619.597656 280.828125 620.816406 280.828125 C 623.011719 280.828125 625.105469 280.269531 627.007812 279.320312 C 629.859375 277.886719 632.320312 275.578125 634.148438 272.855469 C 635.976562 270.105469 637.195312 266.945312 637.539062 263.710938 C 637.636719 262.886719 637.683594 262.035156 637.734375 261.207031 C 638.609375 261.886719 639.4375 262.617188 640.195312 263.347656 C 645.53125 268.574219 649.652344 274.96875 652.429688 281.921875 C 655.207031 288.878906 656.644531 296.390625 656.644531 303.902344 C 656.644531 305.847656 656.550781 307.792969 656.355469 309.738281 C 656.160156 311.585938 655.816406 313.507812 655.304688 315.355469 C 654.527344 318.128906 653.308594 320.753906 651.648438 322.917969 C 650.820312 323.988281 649.871094 324.960938 648.796875 325.785156 C 647.726562 326.613281 646.53125 327.269531 645.167969 327.757812 C 642.898438 328.582031 640.632812 328.921875 638.34375 328.921875 C 636.417969 328.921875 634.492188 328.65625 632.566406 328.195312 C 629.6875 327.511719 626.863281 326.347656 624.132812 324.960938 C 621.402344 323.550781 618.769531 321.898438 616.308594 320.21875 C 603.464844 311.394531 590.839844 301.179688 577.285156 292.769531 C 570.511719 288.5625 563.492188 284.816406 556.105469 281.921875 C 549.0625 279.175781 541.652344 277.207031 533.804688 276.355469 C 535.488281 271.6875 537.730469 267.261719 540.507812 263.273438 C 542.285156 264.148438 544.089844 265 545.894531 265.753906 C 553.765625 269.035156 562.078125 271.078125 570.535156 271.078125 C 572.898438 271.078125 575.265625 270.910156 577.652344 270.59375 C 579.382812 270.347656 581.160156 269.960938 582.894531 269.378906 C 585.476562 268.527344 587.988281 267.285156 590.007812 265.558594 C 591.035156 264.683594 591.933594 263.710938 592.640625 262.59375 C 593.375 261.476562 593.933594 260.234375 594.25 258.847656 C 594.445312 257.996094 594.542969 257.171875 594.542969 256.320312 C 594.542969 255.078125 594.347656 253.863281 593.984375 252.695312 C 593.445312 250.945312 592.542969 249.292969 591.375 247.859375 C 590.230469 246.425781 588.816406 245.160156 587.230469 244.210938 C 585.425781 243.117188 583.476562 242.386719 581.480469 241.925781 C 579.480469 241.464844 577.410156 241.269531 575.359375 241.269531 C 573.949219 241.269531 572.535156 241.367188 571.144531 241.511719 C 565.953125 242.121094 561.101562 243.605469 556.714844 245.792969 C 550.109375 249.074219 544.503906 253.914062 540.042969 259.75 C 539.945312 259.871094 539.847656 259.992188 539.777344 260.113281 C 534.707031 257.4375 529.855469 254.300781 525.324219 250.921875 C 522.398438 248.734375 519.523438 246.425781 516.546875 244.1875 C 513.597656 241.949219 510.550781 239.761719 507.3125 237.867188 C 504.238281 236.066406 501.023438 234.632812 497.730469 233.632812 C 494.441406 232.636719 491.054688 232.101562 487.617188 232.101562 C 484.300781 232.101562 480.9375 232.613281 477.550781 233.683594 C 470.191406 236.015625 463.414062 240.273438 457.855469 245.765625 C 452.300781 251.261719 447.960938 257.972656 445.476562 265.269531 C 444.671875 267.625 444.0625 270.253906 444.0625 272.878906 C 444.0625 274.144531 444.207031 275.429688 444.550781 276.648438 C 444.890625 277.886719 445.449219 279.054688 446.28125 280.125 C 446.5 280.414062 446.742188 280.707031 446.988281 280.976562 C 446.425781 281.753906 445.890625 282.507812 445.378906 283.1875 C 442.429688 287.273438 439.796875 291.796875 437.917969 296.585938 C 436.019531 301.375 434.875 306.457031 434.875 311.636719 C 434.875 314.308594 435.191406 316.984375 435.871094 319.660156 C 436.699219 322.964844 438.015625 325.957031 439.722656 328.582031 C 442.28125 332.546875 445.71875 335.730469 449.714844 338.089844 C 453.714844 340.472656 458.296875 342.054688 463.144531 342.855469 C 466.144531 343.34375 469.140625 343.5625 472.140625 343.5625 C 475.550781 343.5625 478.964844 343.292969 482.375 342.902344 C 487.910156 342.273438 493.222656 340.886719 498.488281 339.671875 C 503.753906 338.453125 508.945312 337.433594 514.28125 337.433594 C 514.988281 337.433594 515.695312 337.457031 516.402344 337.480469 C 519.59375 337.652344 522.738281 337.824219 525.859375 338.066406 C 526.101562 340.375 526.6875 342.660156 527.492188 344.898438 C 529.171875 349.519531 531.855469 353.894531 534.972656 357.808594 C 538.09375 361.722656 541.605469 365.128906 544.96875 367.777344 C 547.964844 370.136719 551.0625 372.347656 554.058594 374.609375 C 557.058594 376.871094 559.933594 379.207031 562.515625 381.832031 C 565.929688 385.285156 568.269531 389.027344 569.78125 393.066406 C 571.289062 397.101562 571.972656 401.429688 571.972656 406.023438 C 571.972656 407.628906 571.898438 409.28125 571.730469 410.960938 C 571.511719 413.367188 570.679688 416.238281 569.339844 419.347656 C 569.074219 419.980469 569.367188 420.710938 570 420.976562 C 570.632812 421.246094 571.363281 420.953125 571.632812 420.320312 C 573.046875 417.039062 573.949219 413.953125 574.214844 411.179688 C 574.386719 409.429688 574.460938 407.703125 574.460938 406 C 574.460938 401.160156 573.753906 396.519531 572.121094 392.164062 C 570.488281 387.8125 567.925781 383.753906 564.296875 380.058594 C 561.589844 377.308594 558.59375 374.902344 555.570312 372.617188 C 552.523438 370.332031 549.429688 368.144531 546.503906 365.808594 C 542.238281 362.453125 537.605469 357.6875 534.097656 352.363281 C 532.34375 349.6875 530.855469 346.890625 529.832031 344.023438 C 529.125 342.101562 528.636719 340.179688 528.394531 338.261719 C 530.269531 338.453125 532.148438 338.699219 533.976562 338.988281 C 539.628906 339.914062 545.039062 341.492188 550.039062 344.316406 C 555.839844 347.597656 561.6875 351.339844 567.828125 354.355469 C 570.902344 355.863281 574.046875 357.175781 577.285156 358.148438 C 580.527344 359.121094 583.890625 359.753906 587.378906 359.851562 C 587.71875 359.851562 588.085938 359.875 588.425781 359.875 C 590.960938 359.875 593.566406 359.558594 596.03125 358.855469 C 598.492188 358.125 600.855469 357.007812 602.902344 355.378906 C 605.242188 353.503906 606.996094 351.074219 608.144531 348.398438 C 609.289062 345.726562 609.875 342.757812 609.875 339.816406 C 609.875 336.777344 609.265625 333.714844 608.070312 330.917969 C 606.316406 326.832031 603.488281 323.378906 600.101562 320.609375 C 596.710938 317.835938 592.738281 315.71875 588.597656 314.335938 C 586.476562 313.628906 584.304688 313.363281 582.136719 313.363281 C 578.796875 313.363281 575.457031 313.96875 572.167969 314.625 C 568.878906 315.257812 565.660156 315.914062 562.613281 316.0625 C 561.882812 316.085938 561.128906 316.109375 560.371094 316.109375 C 558.566406 316.109375 556.640625 316.035156 554.691406 315.964844 C 552.71875 315.890625 550.695312 315.792969 548.695312 315.792969 C 545.1875 315.792969 541.675781 316.035156 538.460938 316.984375 C 536.851562 317.472656 535.316406 318.128906 533.902344 319.027344 C 532.488281 319.925781 531.222656 321.09375 530.125 322.527344 C 528.589844 324.570312 527.492188 326.6875 526.785156 328.875 C 526.078125 331.039062 525.761719 333.277344 525.761719 335.488281 C 525.761719 335.511719 525.761719 335.5625 525.761719 335.585938 C 522.714844 335.34375 519.644531 335.171875 516.574219 335.027344 C 515.816406 334.976562 515.0625 334.976562 514.304688 334.976562 C 508.652344 334.976562 503.265625 336.070312 497.976562 337.289062 C 492.664062 338.503906 487.445312 339.863281 482.15625 340.472656 C 478.816406 340.863281 475.503906 341.105469 472.214844 341.105469 C 469.335938 341.105469 466.484375 340.910156 463.632812 340.449219 C 457.515625 339.453125 451.957031 337.117188 447.570312 333.566406 C 445.378906 331.792969 443.453125 329.675781 441.890625 327.269531 C 440.332031 324.863281 439.136719 322.140625 438.359375 319.074219 C 437.726562 316.621094 437.457031 314.140625 437.457031 311.660156 C 437.457031 306.871094 438.527344 302.082031 440.332031 297.507812 C 442.136719 292.9375 444.648438 288.585938 447.5 284.648438 C 447.960938 284.015625 448.449219 283.332031 448.9375 282.652344 C 448.960938 282.652344 448.960938 282.675781 448.984375 282.675781 C 450.449219 283.746094 452.082031 284.476562 453.835938 284.960938 C 455.589844 285.449219 457.441406 285.644531 459.320312 285.644531 C 463.074219 285.644531 466.972656 284.816406 470.457031 283.480469 C 472.214844 282.796875 473.847656 282.019531 475.332031 281.121094 C 476.820312 280.222656 478.136719 279.222656 479.234375 278.179688 C 480.425781 277.011719 481.378906 275.648438 482.035156 274.214844 C 482.695312 272.78125 483.058594 271.25 483.058594 269.71875 C 483.058594 268.867188 482.9375 268.015625 482.695312 267.214844 C 482.304688 265.996094 481.621094 264.855469 480.597656 263.929688 C 479.574219 263.007812 478.257812 262.300781 476.625 261.886719 C 475.285156 261.523438 473.96875 261.378906 472.675781 261.378906 C 471.140625 261.378906 469.652344 261.597656 468.214844 262.007812 C 465.707031 262.738281 463.339844 264.003906 461.125 265.609375 C 457.808594 268.015625 454.835938 271.128906 452.226562 274.289062 C 450.933594 275.867188 449.714844 277.425781 448.59375 278.933594 C 448.523438 278.835938 448.449219 278.738281 448.375 278.640625 C 447.765625 277.839844 447.328125 276.9375 447.058594 275.964844 C 446.792969 274.992188 446.644531 273.949219 446.644531 272.878906 C 446.644531 270.664062 447.179688 268.257812 447.914062 266.070312 C 450.253906 259.1875 454.394531 252.769531 459.683594 247.542969 C 464.972656 242.316406 471.433594 238.253906 478.402344 236.066406 C 481.523438 235.070312 484.644531 234.605469 487.714844 234.605469 C 490.882812 234.605469 494.027344 235.09375 497.121094 236.015625 C 500.195312 236.941406 503.214844 238.304688 506.164062 240.003906 C 509.285156 241.828125 512.234375 243.945312 515.160156 246.15625 C 518.082031 248.371094 520.960938 250.679688 523.933594 252.914062 C 528.464844 256.296875 533.339844 259.457031 538.410156 262.15625 C 535.488281 266.433594 533.121094 271.175781 531.390625 276.160156 C 529.367188 276.015625 527.34375 275.941406 525.324219 275.941406 C 517.597656 275.941406 509.871094 277.035156 502.507812 279.25 C 495.148438 281.460938 488.128906 284.816406 481.890625 289.363281 C 479.792969 290.871094 477.746094 292.597656 475.992188 294.617188 C 475.113281 295.613281 474.332031 296.683594 473.652344 297.847656 C 472.96875 298.992188 472.433594 300.230469 472.042969 301.546875 C 471.628906 302.929688 471.457031 304.316406 471.457031 305.703125 C 471.457031 307.574219 471.796875 309.421875 472.40625 311.171875 C 473.335938 313.800781 474.871094 316.253906 476.820312 318.320312 C 478.769531 320.390625 481.132812 322.066406 483.765625 323.183594 C 486.984375 324.523438 490.394531 325.105469 493.808594 325.105469 C 499.097656 325.105469 504.386719 323.71875 509.1875 321.628906 C 512.28125 320.265625 515.28125 318.566406 517.984375 316.449219 C 520.691406 314.359375 523.082031 311.855469 524.910156 308.9375 C 526.296875 306.699219 527.320312 304.367188 528.101562 301.984375 C 529.269531 298.382812 529.929688 294.6875 530.539062 291.015625 C 531.148438 287.34375 531.734375 283.722656 532.707031 280.320312 C 532.855469 279.832031 533 279.347656 533.144531 278.835938 C 540.96875 279.613281 548.308594 281.535156 555.351562 284.28125 C 566.171875 288.511719 576.238281 294.664062 586.035156 301.449219 C 595.835938 308.230469 605.339844 315.625 615.042969 322.308594 C 618.378906 324.621094 622.109375 326.882812 626.035156 328.582031 C 628.007812 329.433594 630.03125 330.140625 632.125 330.648438 C 634.199219 331.160156 636.320312 331.429688 638.488281 331.429688 C 641.023438 331.429688 643.605469 331.015625 646.140625 330.113281 C 648.261719 329.359375 650.089844 328.195312 651.648438 326.785156 C 653.964844 324.644531 655.648438 321.945312 656.816406 319.027344 C 657.988281 316.109375 658.667969 313.023438 658.960938 310.03125 C 659.15625 308.011719 659.277344 305.96875 659.277344 303.953125 C 659.179688 296.050781 657.671875 288.222656 654.792969 280.976562 Z M 401.164062 274.019531 C 403.1875 272.488281 405.671875 271.320312 408.695312 270.640625 C 409.695312 270.421875 410.742188 270.300781 411.792969 270.300781 C 413.425781 270.300781 415.058594 270.570312 416.542969 271.128906 C 418.03125 271.6875 419.371094 272.539062 420.445312 273.65625 C 421.320312 274.582031 422.027344 275.699219 422.492188 276.914062 C 422.980469 278.128906 423.222656 279.441406 423.222656 280.707031 C 423.222656 281.996094 422.980469 283.234375 422.441406 284.332031 C 421.929688 285.449219 421.152344 286.421875 420.054688 287.199219 C 419.296875 287.734375 418.46875 288.148438 417.59375 288.390625 C 416.714844 288.660156 415.765625 288.78125 414.789062 288.78125 C 412.816406 288.78125 410.71875 288.246094 408.867188 287.320312 C 407.015625 286.398438 405.40625 285.085938 404.332031 283.601562 C 402.40625 280.925781 400.945312 278.007812 399.945312 274.96875 C 400.335938 274.675781 400.726562 274.363281 401.164062 274.019531 Z M 437.382812 217.367188 C 437.480469 217.367188 437.554688 217.367188 437.652344 217.367188 C 440.015625 217.367188 442.476562 217.878906 444.574219 218.898438 C 445.621094 219.410156 446.597656 220.042969 447.425781 220.773438 C 448.253906 221.527344 448.960938 222.375 449.496094 223.347656 C 450.128906 224.46875 450.472656 225.804688 450.472656 227.070312 C 450.472656 227.675781 450.398438 228.285156 450.226562 228.84375 C 450.058594 229.402344 449.789062 229.914062 449.449219 230.351562 C 448.960938 230.984375 448.304688 231.46875 447.546875 231.859375 C 446.792969 232.222656 445.914062 232.46875 445.035156 232.566406 C 444.695312 232.613281 444.378906 232.613281 444.039062 232.613281 C 442.550781 232.613281 441.039062 232.25 439.699219 231.566406 C 438.359375 230.886719 437.164062 229.914062 436.285156 228.699219 C 435.53125 227.675781 435.019531 226.65625 434.679688 225.636719 C 434.335938 224.613281 434.191406 223.617188 434.191406 222.597656 C 434.191406 221.429688 434.386719 220.261719 434.777344 219.070312 C 434.945312 218.535156 435.164062 218 435.410156 217.441406 C 436.042969 217.417969 436.699219 217.367188 437.382812 217.367188 Z M 510.992188 197.015625 C 512.746094 197.988281 514.378906 199.253906 515.671875 200.761719 C 516.304688 201.515625 516.863281 202.316406 517.304688 203.167969 C 517.742188 204.019531 518.058594 204.894531 518.253906 205.84375 C 518.375 206.425781 518.425781 207.035156 518.425781 207.640625 C 518.425781 209.464844 517.890625 211.339844 516.914062 212.941406 C 515.964844 214.546875 514.574219 215.886719 512.941406 216.6875 C 511.601562 217.34375 510.113281 217.683594 508.578125 217.683594 C 507.164062 217.683594 505.726562 217.390625 504.433594 216.859375 C 503.117188 216.324219 501.949219 215.519531 500.996094 214.5 C 499.925781 213.332031 499.195312 212.214844 498.730469 211.167969 C 498.269531 210.121094 498.074219 209.125 498.074219 208.152344 C 498.074219 207.351562 498.21875 206.574219 498.464844 205.792969 C 498.925781 204.433594 499.78125 203.09375 500.925781 201.832031 C 502.632812 199.933594 504.972656 198.183594 507.457031 196.75 C 507.945312 196.480469 508.433594 196.214844 508.894531 195.945312 C 509.625 196.289062 510.308594 196.628906 510.992188 197.015625 Z M 580.332031 213.648438 C 581.257812 215.761719 581.769531 217.855469 581.769531 219.871094 C 581.769531 221.476562 581.453125 223.035156 580.773438 224.566406 C 580.066406 226.097656 578.992188 227.605469 577.410156 229.085938 C 576.386719 230.035156 575.191406 230.742188 573.921875 231.203125 C 572.65625 231.664062 571.316406 231.910156 570 231.910156 C 568.804688 231.910156 567.636719 231.714844 566.5625 231.347656 C 565.757812 231.082031 565.003906 230.71875 564.320312 230.253906 C 563.296875 229.574219 562.46875 228.699219 561.882812 227.628906 C 561.296875 226.558594 560.957031 225.292969 560.957031 223.789062 C 560.957031 223.253906 561.003906 222.667969 561.101562 222.0625 C 561.394531 220.285156 562.175781 218.609375 563.296875 217.148438 C 564.417969 215.691406 565.878906 214.449219 567.511719 213.550781 C 570.242188 212.066406 573.117188 210.972656 576.066406 210.292969 C 576.800781 210.121094 577.53125 209.976562 578.285156 209.832031 C 579.089844 211.121094 579.796875 212.382812 580.332031 213.648438 Z M 635.125 263.46875 C 634.929688 265.316406 634.394531 267.1875 633.589844 268.964844 C 632.371094 271.613281 630.492188 273.996094 628.277344 275.675781 C 627.179688 276.527344 625.984375 277.207031 624.742188 277.667969 C 623.5 278.128906 622.207031 278.375 620.890625 278.375 C 619.914062 278.375 618.917969 278.226562 617.917969 277.9375 C 616.917969 277.644531 615.871094 277.183594 614.847656 276.550781 C 613.214844 275.527344 611.96875 274.167969 611.117188 272.585938 C 610.265625 271.007812 609.824219 269.230469 609.824219 267.433594 C 609.824219 265.632812 610.265625 263.808594 611.164062 262.132812 C 611.847656 260.867188 612.628906 259.796875 613.480469 258.921875 C 614.75 257.609375 616.136719 256.710938 617.671875 256.125 C 619.183594 255.542969 620.816406 255.273438 622.546875 255.273438 C 624.082031 255.273438 625.691406 255.492188 627.300781 255.90625 C 629.714844 256.515625 632.125 257.558594 634.34375 258.847656 C 634.710938 259.066406 635.050781 259.285156 635.394531 259.503906 C 635.34375 260.816406 635.246094 262.132812 635.125 263.46875 Z M 528.199219 335.464844 C 528.199219 333.496094 528.492188 331.523438 529.101562 329.628906 C 529.734375 327.707031 530.683594 325.835938 532.074219 324.011719 C 532.976562 322.796875 534.046875 321.847656 535.21875 321.09375 C 536.996094 319.953125 539.070312 319.246094 541.335938 318.808594 C 543.628906 318.371094 546.113281 318.25 548.648438 318.25 C 550.597656 318.25 552.597656 318.320312 554.546875 318.394531 C 556.519531 318.46875 558.46875 318.566406 560.324219 318.566406 C 561.128906 318.566406 561.90625 318.542969 562.6875 318.515625 C 566 318.371094 569.316406 317.664062 572.582031 317.035156 C 575.847656 316.402344 579.042969 315.816406 582.0625 315.816406 C 584.039062 315.816406 585.914062 316.0625 587.742188 316.667969 C 591.617188 317.980469 595.324219 319.953125 598.441406 322.527344 C 601.5625 325.105469 604.121094 328.242188 605.707031 331.914062 C 606.777344 334.371094 607.316406 337.117188 607.316406 339.839844 C 607.316406 342.464844 606.804688 345.09375 605.804688 347.449219 C 604.804688 349.808594 603.292969 351.875 601.292969 353.480469 C 599.539062 354.890625 597.492188 355.863281 595.273438 356.519531 C 593.082031 357.152344 590.714844 357.445312 588.375 357.445312 C 588.058594 357.445312 587.71875 357.445312 587.402344 357.421875 C 584.160156 357.324219 581.039062 356.738281 577.945312 355.816406 C 573.339844 354.429688 568.851562 352.289062 564.417969 349.859375 C 559.980469 347.425781 555.617188 344.703125 551.207031 342.222656 C 545.894531 339.207031 540.191406 337.578125 534.339844 336.605469 C 532.292969 336.265625 530.222656 336.023438 528.148438 335.804688 C 528.199219 335.660156 528.199219 335.5625 528.199219 335.464844 Z M 452.300781 278.007812 C 455.03125 274.507812 458.199219 270.910156 461.636719 268.210938 C 463.367188 266.871094 465.144531 265.753906 466.972656 265 C 468.800781 264.222656 470.675781 263.808594 472.578125 263.808594 C 473.652344 263.808594 474.746094 263.953125 475.867188 264.246094 C 476.722656 264.464844 477.453125 264.78125 478.015625 265.144531 C 478.890625 265.707031 479.476562 266.363281 479.867188 267.117188 C 480.257812 267.871094 480.453125 268.746094 480.453125 269.667969 C 480.453125 270.761719 480.183594 271.980469 479.648438 273.121094 C 479.109375 274.289062 478.332031 275.40625 477.378906 276.355469 C 476.453125 277.253906 475.308594 278.128906 473.945312 278.957031 C 471.921875 280.171875 469.507812 281.21875 466.972656 281.972656 C 464.4375 282.703125 461.757812 283.140625 459.222656 283.140625 C 456.957031 283.140625 454.785156 282.796875 452.933594 282.070312 C 452.007812 281.703125 451.128906 281.242188 450.351562 280.660156 C 450.324219 280.660156 450.324219 280.632812 450.300781 280.609375 C 450.960938 279.757812 451.617188 278.882812 452.300781 278.007812 Z M 546.671875 256.003906 C 549.988281 252.769531 553.71875 250.046875 557.886719 247.980469 C 562.027344 245.914062 566.585938 244.527344 571.484375 243.945312 C 572.777344 243.796875 574.117188 243.699219 575.433594 243.699219 C 577.335938 243.699219 579.210938 243.871094 580.992188 244.285156 C 582.769531 244.699219 584.476562 245.355469 586.035156 246.277344 C 587.792969 247.324219 589.328125 248.855469 590.425781 250.605469 C 590.960938 251.480469 591.398438 252.40625 591.691406 253.355469 C 591.984375 254.300781 592.128906 255.273438 592.128906 256.246094 C 592.128906 256.902344 592.058594 257.558594 591.910156 258.214844 C 591.570312 259.652344 590.910156 260.914062 590.007812 262.035156 C 589.328125 262.859375 588.5 263.640625 587.570312 264.296875 C 586.183594 265.316406 584.527344 266.117188 582.769531 266.75 C 581.015625 267.382812 579.164062 267.820312 577.359375 268.0625 C 575.09375 268.378906 572.851562 268.527344 570.585938 268.527344 C 562.539062 268.527344 554.546875 266.582031 546.894531 263.394531 C 545.261719 262.714844 543.628906 261.960938 542.019531 261.183594 C 543.457031 259.382812 545.015625 257.632812 546.671875 256.003906 Z M 530.222656 279.539062 C 528.855469 284.355469 528.273438 289.339844 527.371094 294.128906 C 526.90625 296.511719 526.394531 298.871094 525.664062 301.109375 C 524.933594 303.34375 523.980469 305.507812 522.714844 307.527344 C 521.058594 310.175781 518.863281 312.460938 516.351562 314.40625 C 513.84375 316.351562 511.015625 317.957031 508.066406 319.269531 C 503.53125 321.265625 498.535156 322.554688 493.6875 322.554688 C 490.542969 322.554688 487.472656 322.019531 484.617188 320.828125 C 481.597656 319.5625 478.867188 317.324219 476.917969 314.625 C 475.941406 313.265625 475.164062 311.804688 474.625 310.296875 C 474.089844 308.789062 473.796875 307.210938 473.796875 305.65625 C 473.796875 304.488281 473.96875 303.320312 474.285156 302.175781 C 474.601562 301.082031 475.089844 300.039062 475.648438 299.039062 C 476.527344 297.558594 477.671875 296.171875 478.964844 294.882812 C 480.257812 293.59375 481.71875 292.425781 483.207031 291.332031 C 489.203125 286.957031 495.953125 283.722656 503.09375 281.582031 C 510.210938 279.441406 517.71875 278.375 525.199219 278.398438 C 526.957031 278.398438 528.710938 278.445312 530.464844 278.566406 C 530.417969 278.882812 530.320312 279.199219 530.222656 279.539062 Z M 530.222656 279.539062 " fill-opacity="1" fill-rule="nonzero"/></g><g mask="url(#id3)"><g transform="matrix(1, 0, 0, 1, 89, 365)"><g clip-path="url(#id4)"><path stroke-linecap="butt" transform="matrix(3.798654, 0, 0, 3.797206, 4.744989, 4.56549)" fill="none" stroke-linejoin="miter" d="M 0.00029082 0.000241376 L 163.938924 0.000241376 " stroke="rgb(100%, 100%, 100%)" stroke-width="1" stroke-opacity="1" stroke-miterlimit="4"/></g></g></g></svg>